<svg width="142" height="142" viewBox="0 0 142 142" fill="none" xmlns="http://www.w3.org/2000/svg">
<path opacity="0.2" d="M70.9989 130.176C103.68 130.176 130.172 103.683 130.172 71.002C130.172 38.3213 103.68 11.8284 70.9989 11.8284C38.3182 11.8284 11.8253 38.3213 11.8253 71.002C11.8253 103.683 38.3182 130.176 70.9989 130.176Z" fill="#3A72EC"/>
<path opacity="0.2" d="M106.5 106.5C126.106 86.8939 126.106 55.1061 106.5 35.5C86.8939 15.8939 55.1061 15.8939 35.5 35.5C15.8939 55.1061 15.8939 86.8939 35.5 106.5C55.1061 126.106 86.8939 126.106 106.5 106.5Z" fill="#3A72EC"/>
<path opacity="0.2" d="M101.619 101.619C118.53 84.7086 118.53 57.2914 101.619 40.3809C84.7087 23.4705 57.2914 23.4705 40.381 40.3809C23.4706 57.2914 23.4706 84.7086 40.381 101.619C57.2914 118.529 84.7087 118.529 101.619 101.619Z" fill="#3A72EC"/>
<path opacity="0.2" d="M97.7974 97.7973C112.597 82.9976 112.597 59.0024 97.7974 44.2027C82.9976 29.4029 59.0025 29.4029 44.2027 44.2027C29.403 59.0024 29.403 82.9976 44.2027 97.7973C59.0025 112.597 82.9976 112.597 97.7974 97.7973Z" fill="#3A72EC"/>
<path d="M87.6119 122.004C84.8531 121.651 83.9799 119.573 85.6661 117.36C87.3522 115.147 90.9353 113.641 93.7054 113.991C96.4756 114.341 97.3337 116.423 95.6513 118.636C93.9689 120.849 90.3708 122.354 87.6119 122.004Z" fill="#263238"/>
<path d="M96.4868 116.822L95.5647 117.198C95.0873 116.809 94.5034 116.574 93.8898 116.524C91.6316 116.238 88.7222 117.465 87.3522 119.264C86.9585 119.738 86.7171 120.319 86.6597 120.932L85.7375 121.308L87.499 122.543C87.9312 122.815 88.4207 122.984 88.9292 123.036C91.1874 123.322 94.1006 122.095 95.4706 120.296C95.7899 119.896 96.0128 119.429 96.1217 118.929L96.4868 116.822Z" fill="#3A72EC"/>
<path opacity="0.4" d="M96.4868 116.822L95.5647 117.198C95.0873 116.809 94.5034 116.574 93.8898 116.524C91.6316 116.238 88.7222 117.465 87.3522 119.264C86.9585 119.738 86.7171 120.319 86.6597 120.932L85.7375 121.308L87.499 122.543C87.9312 122.815 88.4207 122.984 88.9292 123.036C91.1874 123.322 94.1006 122.095 95.4706 120.296C95.7899 119.896 96.0128 119.429 96.1217 118.929L96.4868 116.822Z" fill="black"/>
<path d="M91.607 120.262C96.2556 118.329 99.1195 114.587 98.0037 111.904C96.8879 109.221 92.2149 108.613 87.5663 110.546C82.9177 112.479 80.0538 116.221 81.1696 118.904C82.2855 121.587 86.9584 122.195 91.607 120.262Z" fill="#3A72EC"/>
<path d="M91.1658 119.201C95.9871 117.196 98.9574 113.314 97.8001 110.531C96.6428 107.748 91.7961 107.118 86.9748 109.123C82.1534 111.127 79.1832 115.009 80.3405 117.792C81.4978 120.575 86.3445 121.206 91.1658 119.201Z" fill="#3A72EC"/>
<path opacity="0.2" d="M91.1658 119.201C95.9871 117.196 98.9574 113.314 97.8001 110.531C96.6428 107.748 91.7961 107.118 86.9748 109.123C82.1534 111.127 79.1832 115.009 80.3405 117.792C81.4978 120.575 86.3445 121.206 91.1658 119.201Z" fill="black"/>
<path d="M90.6635 117.995C95.6076 115.939 98.6535 111.959 97.4667 109.105C96.2799 106.251 91.3097 105.604 86.3655 107.66C81.4214 109.716 78.3755 113.696 79.5623 116.55C80.7492 119.404 85.7193 120.051 90.6635 117.995Z" fill="#3A72EC"/>
<path d="M90.165 116.79C95.2301 114.684 98.3501 110.605 97.1337 107.68C95.9173 104.755 90.8252 104.091 85.7601 106.197C80.695 108.304 77.5751 112.383 78.7914 115.308C80.0078 118.233 85.0999 118.896 90.165 116.79Z" fill="#3A72EC"/>
<path opacity="0.2" d="M90.165 116.79C95.2301 114.684 98.3501 110.605 97.1337 107.68C95.9173 104.755 90.8252 104.091 85.7601 106.197C80.695 108.304 77.5751 112.383 78.7914 115.308C80.0078 118.233 85.0999 118.896 90.165 116.79Z" fill="black"/>
<path d="M89.6628 115.588C94.8507 113.431 98.0469 109.255 96.8018 106.261C95.5567 103.267 90.3417 102.588 85.1538 104.746C79.9659 106.903 76.7696 111.079 78.0147 114.073C79.2598 117.068 84.4748 117.746 89.6628 115.588Z" fill="#3A72EC"/>
<path d="M89.1606 114.384C94.4695 112.177 97.7398 107.902 96.4652 104.837C95.1905 101.772 89.8536 101.077 84.5447 103.285C79.2359 105.492 75.9656 109.767 77.2402 112.832C78.5148 115.897 83.8518 116.592 89.1606 114.384Z" fill="#37474F"/>
<path d="M58.394 40.3839C54.4192 42.0347 50.8085 44.4523 47.7682 47.4987C44.7279 50.5452 42.3176 54.1607 40.6749 58.1389C39.0322 62.117 38.1893 66.3798 38.1944 70.6838C38.1994 74.9878 39.0524 79.2486 40.7044 83.2228C50.6934 107.239 72.1693 102.986 76.1965 112.667C76.8364 114.21 78.4962 115.328 81.0254 115.678C86.0801 116.336 92.693 113.585 95.7868 109.539C97.3375 107.514 97.7139 105.546 97.074 104.006C93.0468 94.3221 111.207 82.0937 101.214 58.0886C97.8831 50.063 91.5005 43.6891 83.4704 40.3689C75.4403 37.0488 66.4202 37.0541 58.394 40.3839Z" fill="#3A72EC"/>
<g style="mix-blend-mode:screen" opacity="0.9">
<path d="M58.394 40.3839C54.4192 42.0347 50.8085 44.4523 47.7682 47.4987C44.7279 50.5452 42.3176 54.1607 40.6749 58.1389C39.0322 62.117 38.1893 66.3798 38.1944 70.6838C38.1994 74.9878 39.0524 79.2486 40.7044 83.2228C50.6934 107.239 72.1693 102.986 76.1965 112.667C76.8364 114.21 78.4962 115.328 81.0254 115.678C86.0801 116.336 92.693 113.585 95.7868 109.539C97.3375 107.514 97.7139 105.546 97.074 104.006C93.0468 94.3221 111.207 82.0937 101.214 58.0886C97.8831 50.063 91.5005 43.6891 83.4704 40.3689C75.4403 37.0488 66.4202 37.0541 58.394 40.3839Z" fill="white"/>
</g>
<path d="M78.8688 46.1951C78.5575 46.5165 78.2892 46.8771 78.0709 47.2677C77.2579 48.7092 77.4649 50.5836 78.3155 52.0025C79.9603 54.75 83.5358 55.3899 86.114 57.0008C88.943 58.7508 91.4393 60.9884 93.4872 63.6099C94.0969 64.3928 95.019 65.7214 95.8019 66.3273C96.3012 66.7214 96.9294 66.9155 97.5639 66.8716C98.1985 66.8278 98.794 66.5492 99.2344 66.0902C100.149 64.9611 100.145 63.2523 99.8329 62.0291C97.951 54.7764 94.4356 50.2373 88.7938 46.4058C85.7301 44.3169 81.7782 43.2142 78.8688 46.1951Z" fill="white"/>
<path opacity="0.6" d="M85.1059 81.4209C94.2321 72.2947 94.2321 57.4982 85.1059 48.372C75.9797 39.2458 61.1832 39.2458 52.057 48.372C42.9308 57.4982 42.9308 72.2947 52.057 81.4209C61.1832 90.5471 75.9797 90.5471 85.1059 81.4209Z" fill="white"/>
<path d="M96.9762 71.352C97.021 71.8595 97.173 72.3517 97.4222 72.7961C97.6713 73.2406 98.0119 73.6271 98.4214 73.9302C98.8737 74.2464 99.4323 74.3717 99.9763 74.2787C100.52 74.1857 101.006 73.8819 101.327 73.4333C101.649 72.9688 101.85 72.4309 101.911 71.8688C101.972 71.3068 101.892 70.7383 101.677 70.2153C101.199 69.1126 99.9872 68.2281 98.7075 68.6157C97.5144 68.9808 96.9009 70.3132 96.9762 71.352Z" fill="white"/>
<path opacity="0.15" d="M79.3317 107.785C77.0735 104.232 75.1615 102.61 69.4331 102.139C63.7047 101.669 54.0017 101.387 46.4742 92.9596C57.3214 106.2 72.8581 104.571 76.2078 112.655C76.8477 114.198 78.5075 115.316 81.0367 115.666C82.1273 115.795 83.2297 115.789 84.3187 115.647C82.8922 113.389 80.7281 109.994 79.3317 107.785Z" fill="#3A72EC"/>
<path opacity="0.15" d="M91.4322 102.745C90.51 98.6353 90.702 96.14 94.4168 91.7552C98.1316 87.3704 104.771 80.2984 104.097 69.0034C105.84 86.0343 93.7243 95.8991 97.0891 104.006C97.7289 105.546 97.3525 107.514 95.8019 109.539C95.1252 110.404 94.3439 111.181 93.4759 111.854C92.8812 109.234 92.008 105.316 91.4322 102.745Z" fill="#3A72EC"/>
<path d="M66.2176 63.9453C67.1911 61.3333 65.8628 58.4267 63.2508 57.4533C60.6389 56.4798 57.7323 57.8081 56.7588 60.4201C55.7854 63.032 57.1136 65.9386 59.7256 66.9121C62.3376 67.8855 65.2442 66.5573 66.2176 63.9453Z" fill="#3A72EC"/>
<path opacity="0.2" d="M62.2368 65.4467C59.6661 66.0978 57.3025 64.4756 56.4444 62.0593C56.4189 62.8019 56.5579 63.5409 56.8512 64.2235C57.1446 64.9061 57.5852 65.5155 58.1415 66.008C58.6978 66.5006 59.356 66.8641 60.0691 67.0727C60.7823 67.2812 61.5327 67.3296 62.2667 67.2145C63.0007 67.0993 63.7002 66.8233 64.3152 66.4064C64.9301 65.9894 65.4454 65.4417 65.8241 64.8024C66.2027 64.1632 66.4355 63.4482 66.5057 62.7085C66.5759 61.9688 66.4818 61.2228 66.2301 60.5237C66.5877 61.8673 64.973 64.7504 62.2368 65.4467Z" fill="black"/>
<path d="M64.6907 68.9958C65.3746 69.7232 65.8273 70.637 65.9918 71.6218C66.1562 72.6065 66.0249 73.6179 65.6144 74.528C65.204 75.4381 64.5328 76.206 63.6859 76.7346C62.839 77.2632 61.8543 77.5288 60.8564 77.4977C59.8585 77.4667 58.8923 77.1403 58.0799 76.5601C57.2675 75.9798 56.6454 75.1716 56.2924 74.2377C55.9394 73.3039 55.8712 72.2863 56.0966 71.3137C56.3219 70.3411 56.8307 69.4572 57.5584 68.7738C58.5343 67.8587 59.8334 67.3682 61.1705 67.4098C62.5076 67.4514 63.7737 68.0218 64.6907 68.9958Z" fill="#3A72EC"/>
<path opacity="0.45" d="M64.6907 68.9958C65.3746 69.7232 65.8273 70.637 65.9918 71.6218C66.1562 72.6065 66.0249 73.6179 65.6144 74.528C65.204 75.4381 64.5328 76.206 63.6859 76.7346C62.839 77.2632 61.8543 77.5288 60.8564 77.4977C59.8585 77.4667 58.8923 77.1403 58.0799 76.5601C57.2675 75.9798 56.6454 75.1716 56.2924 74.2377C55.9394 73.3039 55.8712 72.2863 56.0966 71.3137C56.3219 70.3411 56.8307 69.4572 57.5584 68.7738C58.5343 67.8587 59.8334 67.3682 61.1705 67.4098C62.5076 67.4514 63.7737 68.0218 64.6907 68.9958Z" fill="white"/>
<path opacity="0.2" d="M61.7625 75.7141C59.1919 76.369 56.8283 74.7469 55.9701 72.3268C55.9442 73.0694 56.0827 73.8087 56.3757 74.4916C56.6687 75.1745 57.109 75.7842 57.6651 76.2772C58.2213 76.7701 58.8794 77.134 59.5926 77.3429C60.3057 77.5519 61.0563 77.6006 61.7904 77.4857C62.5246 77.3707 63.2244 77.095 63.8396 76.6781C64.4548 76.2613 64.9702 75.7136 65.3491 75.0743C65.728 74.435 65.9609 73.7199 66.0313 72.9801C66.1016 72.2403 66.0075 71.4941 65.7559 70.7949C66.1134 72.1348 64.495 75.0178 61.7625 75.7141Z" fill="#3A72EC"/>
<path d="M72.3651 74.043C73.0463 74.7713 73.4965 75.6851 73.6588 76.669C73.8212 77.653 73.6885 78.6629 73.2774 79.5715C72.8663 80.48 72.1952 81.2464 71.349 81.7739C70.5027 82.3015 69.5191 82.5665 68.5224 82.5355C67.5256 82.5046 66.5604 82.1791 65.7485 81.6C64.9366 81.021 64.3144 80.2145 63.9604 79.2822C63.6065 78.3498 63.5367 77.3336 63.7598 76.3616C63.9829 75.3897 64.4889 74.5056 65.214 73.821C65.6974 73.3646 66.2661 73.0082 66.8877 72.7722C67.5092 72.5362 68.1712 72.4254 68.8357 72.446C69.5002 72.4667 70.154 72.6184 70.7597 72.8924C71.3654 73.1665 71.911 73.5575 72.3651 74.043Z" fill="#3A72EC"/>
<path opacity="0.15" d="M72.3651 74.043C73.0463 74.7713 73.4965 75.6851 73.6588 76.669C73.8212 77.653 73.6885 78.6629 73.2774 79.5715C72.8663 80.48 72.1952 81.2464 71.349 81.7739C70.5027 82.3015 69.5191 82.5665 68.5224 82.5355C67.5256 82.5046 66.5604 82.1791 65.7485 81.6C64.9366 81.021 64.3144 80.2145 63.9604 79.2822C63.6065 78.3498 63.5367 77.3336 63.7598 76.3616C63.9829 75.3897 64.4889 74.5056 65.214 73.821C65.6974 73.3646 66.2661 73.0082 66.8877 72.7722C67.5092 72.5362 68.1712 72.4254 68.8357 72.446C69.5002 72.4667 70.154 72.6184 70.7597 72.8924C71.3654 73.1665 71.911 73.5575 72.3651 74.043Z" fill="white"/>
<path opacity="0.4" d="M69.4368 80.7613C66.8624 81.4162 64.5026 79.7903 63.6444 77.3739C63.6185 78.1166 63.757 78.8559 64.05 79.5388C64.343 80.2217 64.7833 80.8314 65.3394 81.3243C65.8956 81.8173 66.5537 82.1812 67.2669 82.3901C67.9801 82.599 68.7306 82.6478 69.4648 82.5328C70.1989 82.4179 70.8987 82.1422 71.5139 81.7253C72.1291 81.3084 72.6445 80.7608 73.0234 80.1215C73.4023 79.4822 73.6353 78.7671 73.7056 78.0273C73.7759 77.2875 73.6818 76.5413 73.4302 75.8421C73.7877 77.182 72.1806 80.065 69.4368 80.7613Z" fill="#3A72EC"/>
<path d="M80.8748 69.9556C81.5587 70.683 82.0114 71.5968 82.1758 72.5816C82.3403 73.5663 82.2089 74.5777 81.7985 75.4877C81.388 76.3978 80.7169 77.1657 79.87 77.6944C79.0231 78.223 78.0384 78.4886 77.0405 78.4575C76.0426 78.4264 75.0764 78.1001 74.264 77.5198C73.4516 76.9395 72.8295 76.1314 72.4765 75.1975C72.1234 74.2636 72.0553 73.2461 72.2807 72.2735C72.506 71.3009 73.0147 70.417 73.7425 69.7335C74.2253 69.2795 74.7928 68.9251 75.4126 68.6905C76.0324 68.456 76.6923 68.3458 77.3547 68.3665C78.0171 68.3871 78.6689 68.538 79.2729 68.8107C79.8769 69.0834 80.4212 69.4724 80.8748 69.9556Z" fill="#3A72EC"/>
<path opacity="0.2" d="M77.9466 76.6738C75.376 77.3287 73.0123 75.7028 72.1542 73.2677C72.1288 74.0102 72.2677 74.7492 72.5611 75.4319C72.8545 76.1145 73.2951 76.7238 73.8513 77.2164C74.4076 77.7089 75.0659 78.0725 75.779 78.281C76.4921 78.4896 77.2425 78.538 77.9765 78.4228C78.7105 78.3076 79.41 78.0317 80.025 77.6147C80.64 77.1978 81.1552 76.6501 81.5339 76.0108C81.9126 75.3716 82.1453 74.6565 82.2155 73.9169C82.2857 73.1772 82.1916 72.4311 81.9399 71.7321C82.3013 73.0945 80.6829 75.9776 77.9466 76.6738Z" fill="black"/>
<path d="M81.0781 60.9941C81.7619 61.7215 82.2147 62.6354 82.3791 63.6201C82.5435 64.6048 82.4122 65.6162 82.0017 66.5263C81.5913 67.4364 80.9202 68.2043 80.0732 68.7329C79.2263 69.2615 78.2416 69.5271 77.2438 69.496C76.2459 69.465 75.2796 69.1387 74.4672 68.5584C73.6548 67.9781 73.0328 67.1699 72.6797 66.236C72.3267 65.3022 72.2585 64.2846 72.4839 63.312C72.7093 62.3394 73.218 61.4555 73.9458 60.7721C74.9212 59.8561 76.2204 59.3649 77.5579 59.4066C78.8953 59.4482 80.1615 60.0192 81.0781 60.9941Z" fill="#3A72EC"/>
<path opacity="0.45" d="M81.0781 60.9941C81.7619 61.7215 82.2147 62.6354 82.3791 63.6201C82.5435 64.6048 82.4122 65.6162 82.0017 66.5263C81.5913 67.4364 80.9202 68.2043 80.0732 68.7329C79.2263 69.2615 78.2416 69.5271 77.2438 69.496C76.2459 69.465 75.2796 69.1387 74.4672 68.5584C73.6548 67.9781 73.0328 67.1699 72.6797 66.236C72.3267 65.3022 72.2585 64.2846 72.4839 63.312C72.7093 62.3394 73.218 61.4555 73.9458 60.7721C74.9212 59.8561 76.2204 59.3649 77.5579 59.4066C78.8953 59.4482 80.1615 60.0192 81.0781 60.9941Z" fill="white"/>
<path opacity="0.2" d="M78.1499 67.7124C75.5792 68.3673 73.2156 66.7413 72.3574 64.3062C72.3315 65.0489 72.47 65.7881 72.763 66.471C73.056 67.1539 73.4963 67.7637 74.0525 68.2566C74.6086 68.7495 75.2668 69.1135 75.9799 69.3224C76.6931 69.5313 77.4436 69.58 78.1778 69.4651C78.912 69.3502 79.6117 69.0744 80.2269 68.6576C80.8421 68.2407 81.3576 67.693 81.7365 67.0538C82.1153 66.4145 82.3483 65.6993 82.4186 64.9596C82.4889 64.2198 82.3949 63.4736 82.1432 62.7744C82.5007 64.1331 80.8823 67.0161 78.1499 67.7124Z" fill="#3A72EC"/>
<path d="M79.2263 65.3751C79.7681 65.9526 80.1265 66.6777 80.2562 67.4588C80.386 68.2399 80.2813 69.0419 79.9554 69.7635C79.6294 70.4852 79.0969 71.0939 78.425 71.513C77.7532 71.932 76.9722 72.1425 76.1808 72.1177C75.3893 72.093 74.623 71.8342 73.9786 71.3741C73.3342 70.914 72.8407 70.2731 72.5604 69.5326C72.2801 68.7921 72.2257 67.985 72.4039 67.2136C72.5822 66.4421 72.9851 65.7407 73.5619 65.1982C74.3366 64.4708 75.3685 64.0808 76.4307 64.114C77.4929 64.1471 78.4985 64.6008 79.2263 65.3751Z" fill="#3A72EC"/>
<path opacity="0.3" d="M79.2263 65.3751C79.7681 65.9526 80.1265 66.6777 80.2562 67.4588C80.386 68.2399 80.2813 69.0419 79.9554 69.7635C79.6294 70.4852 79.0969 71.0939 78.425 71.513C77.7532 71.932 76.9722 72.1425 76.1808 72.1177C75.3893 72.093 74.623 71.8342 73.9786 71.3741C73.3342 70.914 72.8407 70.2731 72.5604 69.5326C72.2801 68.7921 72.2257 67.985 72.4039 67.2136C72.5822 66.4421 72.9851 65.7407 73.5619 65.1982C74.3366 64.4708 75.3685 64.0808 76.4307 64.114C77.4929 64.1471 78.4985 64.6008 79.2263 65.3751Z" fill="white"/>
<path opacity="0.5" d="M76.904 70.7083C74.8603 71.2277 72.9859 69.9368 72.3009 68.0022C72.2824 68.5913 72.3939 69.1772 72.6276 69.7182C72.8613 70.2592 73.2115 70.7421 73.6531 71.1323C74.0948 71.5226 74.617 71.8106 75.1827 71.976C75.7484 72.1413 76.3436 72.1799 76.9259 72.089C77.5082 71.998 78.0633 71.7798 78.5516 71.4498C79.0399 71.1198 79.4495 70.6862 79.7511 70.1799C80.0527 69.6735 80.2389 69.1069 80.2965 68.5204C80.3541 67.9339 80.2817 67.3418 80.0844 66.7865C80.3591 67.8667 79.0757 70.155 76.904 70.7083Z" fill="#3A72EC"/>
<path d="M76.437 60.238C76.4464 56.8913 73.741 54.1708 70.3943 54.1614C67.0477 54.1521 64.3272 56.8575 64.3178 60.2041C64.3085 63.5508 67.0139 66.2713 70.3605 66.2807C73.7071 66.29 76.4277 63.5846 76.437 60.238Z" fill="#3A72EC"/>
<path opacity="0.15" d="M76.437 60.238C76.4464 56.8913 73.741 54.1708 70.3943 54.1614C67.0477 54.1521 64.3272 56.8575 64.3178 60.2041C64.3085 63.5508 67.0139 66.2713 70.3605 66.2807C73.7071 66.29 76.4277 63.5846 76.437 60.238Z" fill="white"/>
<path opacity="0.4" d="M71.2811 64.1406C68.1948 64.9272 65.3569 62.9776 64.3257 60.0532C64.3005 60.9417 64.4713 61.8248 64.8259 62.6399C65.1804 63.4549 65.71 64.182 66.3771 64.7693C67.0442 65.3567 67.8325 65.7901 68.6859 66.0386C69.5392 66.2871 70.4369 66.3447 71.315 66.2074C72.1932 66.07 73.0304 65.741 73.7671 65.2437C74.5038 64.7465 75.122 64.0931 75.5779 63.3301C76.0337 62.567 76.316 61.713 76.4047 60.8286C76.4934 59.9442 76.3864 59.0511 76.0911 58.2127C76.5051 59.8424 74.563 63.3051 71.2811 64.1406Z" fill="#3A72EC"/>
<path d="M69.1846 75.3227C72.5313 75.3227 75.2443 72.6097 75.2443 69.2631C75.2443 65.9164 72.5313 63.2034 69.1846 63.2034C65.838 63.2034 63.125 65.9164 63.125 69.2631C63.125 72.6097 65.838 75.3227 69.1846 75.3227Z" fill="#3A72EC"/>
<path opacity="0.2" d="M70.0879 73.1773C66.9978 73.964 64.1637 72.0144 63.1287 69.0899C63.102 69.9798 63.2718 70.8646 63.6258 71.6814C63.9799 72.4982 64.5095 73.2269 65.1772 73.8158C65.8448 74.4047 66.634 74.8393 67.4886 75.0886C68.3432 75.3379 69.2423 75.3959 70.1218 75.2583C71.0014 75.1208 71.8398 74.7911 72.5775 74.2928C73.3152 73.7945 73.9341 73.1397 74.3901 72.3751C74.846 71.6105 75.1279 70.7548 75.2157 69.8689C75.3035 68.983 75.195 68.0887 74.8979 67.2495C75.3119 68.8792 73.3698 72.3418 70.0879 73.1773Z" fill="black"/>
<path d="M66.8577 67.6956C66.9265 65.4829 65.1885 63.6334 62.9758 63.5646C60.7631 63.4958 58.9136 65.2338 58.8448 67.4466C58.7761 69.6593 60.5141 71.5087 62.7268 71.5775C64.9395 71.6463 66.789 69.9083 66.8577 67.6956Z" fill="#3A72EC"/>
<path opacity="0.3" d="M66.8577 67.6956C66.9265 65.4829 65.1885 63.6334 62.9758 63.5646C60.7631 63.4958 58.9136 65.2338 58.8448 67.4466C58.7761 69.6593 60.5141 71.5087 62.7268 71.5775C64.9395 71.6463 66.789 69.9083 66.8577 67.6956Z" fill="white"/>
<path opacity="0.5" d="M63.4487 70.1626C61.4049 70.682 59.5306 69.4099 58.8494 67.4602C58.8328 68.0478 58.9459 68.6319 59.1805 69.1709C59.415 69.7099 59.7654 70.1906 60.2067 70.579C60.6479 70.9673 61.1693 71.2538 61.7337 71.418C62.2982 71.5822 62.8918 71.6201 63.4726 71.5291C64.0533 71.4381 64.6069 71.2203 65.094 70.8913C65.5811 70.5622 65.9898 70.13 66.2911 69.6252C66.5923 69.1205 66.7788 68.5556 66.8372 67.9707C66.8956 67.3858 66.8245 66.7951 66.629 66.2408C66.9113 67.321 65.6203 69.6093 63.4487 70.1626Z" fill="#3A72EC"/>
<path d="M109.566 101.405C109.265 101.405 108.96 101.405 108.651 101.387C108.607 101.385 108.564 101.375 108.524 101.357C108.484 101.339 108.448 101.313 108.418 101.281C108.388 101.248 108.364 101.211 108.349 101.169C108.333 101.128 108.326 101.084 108.328 101.04C108.329 100.996 108.339 100.953 108.357 100.913C108.376 100.873 108.402 100.837 108.434 100.807C108.466 100.777 108.504 100.753 108.545 100.738C108.586 100.722 108.63 100.715 108.674 100.717C109.778 100.759 110.884 100.719 111.982 100.596C112.026 100.591 112.07 100.594 112.113 100.606C112.155 100.617 112.195 100.637 112.23 100.665C112.265 100.692 112.294 100.725 112.315 100.764C112.337 100.802 112.351 100.844 112.357 100.888C112.362 100.932 112.359 100.976 112.347 101.019C112.335 101.061 112.315 101.101 112.288 101.136C112.261 101.17 112.228 101.199 112.189 101.221C112.151 101.243 112.109 101.257 112.065 101.262C111.236 101.36 110.401 101.408 109.566 101.405ZM105.302 101.108H105.256C104.199 100.969 103.073 100.784 101.914 100.559C101.833 100.535 101.764 100.482 101.719 100.41C101.675 100.338 101.66 100.252 101.676 100.169C101.692 100.086 101.738 100.012 101.806 99.9616C101.874 99.9111 101.958 99.8878 102.042 99.8962C103.171 100.122 104.3 100.306 105.343 100.438C105.427 100.451 105.503 100.494 105.556 100.56C105.61 100.626 105.637 100.709 105.631 100.794C105.626 100.879 105.589 100.958 105.528 101.017C105.467 101.076 105.386 101.11 105.302 101.112V101.108ZM115.264 100.431C115.199 100.431 115.136 100.412 115.082 100.377C115.028 100.341 114.985 100.291 114.959 100.231C114.941 100.191 114.931 100.147 114.93 100.103C114.928 100.059 114.936 100.015 114.952 99.9739C114.967 99.9326 114.991 99.8948 115.021 99.8628C115.052 99.8307 115.088 99.805 115.129 99.7871C115.444 99.6491 115.747 99.4854 116.036 99.2978C116.306 99.1316 116.559 98.9373 116.788 98.7182C117.079 98.4471 117.333 98.1382 117.541 97.7998C117.56 97.7539 117.589 97.7128 117.626 97.6794C117.663 97.646 117.707 97.6211 117.755 97.6066C117.802 97.592 117.852 97.5881 117.902 97.5951C117.951 97.6021 117.998 97.6199 118.039 97.6471C118.081 97.6744 118.116 97.7105 118.142 97.7529C118.168 97.7952 118.185 97.8428 118.19 97.8922C118.196 97.9416 118.191 97.9917 118.175 98.0388C118.159 98.0859 118.133 98.129 118.098 98.1649C117.857 98.5526 117.566 98.907 117.233 99.2187C116.976 99.4676 116.693 99.6884 116.39 99.8774C116.074 100.082 115.743 100.262 115.4 100.416C115.358 100.426 115.314 100.428 115.272 100.423L115.264 100.431ZM98.7037 99.8247C98.6762 99.8284 98.6484 99.8284 98.6209 99.8247C97.5633 99.5612 96.4643 99.2639 95.3577 98.9402C95.2727 98.914 95.2012 98.8558 95.1583 98.7778C95.1155 98.6999 95.1046 98.6083 95.1281 98.5224C95.1402 98.4798 95.1607 98.4399 95.1883 98.4053C95.216 98.3706 95.2502 98.3417 95.2891 98.3203C95.3279 98.299 95.3706 98.2856 95.4147 98.2808C95.4588 98.2761 95.5034 98.2802 95.5459 98.2929C96.6449 98.6128 97.7326 98.9101 98.7827 99.1736C98.8259 99.1837 98.8665 99.2023 98.9024 99.2283C98.9383 99.2543 98.9687 99.2871 98.9918 99.325C99.0149 99.3628 99.0303 99.4048 99.037 99.4486C99.0438 99.4924 99.0418 99.537 99.0311 99.5801C99.0105 99.6516 98.9668 99.7143 98.907 99.7585C98.8471 99.8027 98.7743 99.826 98.6999 99.8247H98.7037ZM92.2376 97.9428C92.2027 97.9483 92.1671 97.9483 92.1322 97.9428C91.0896 97.6003 90.017 97.2277 88.9405 96.8363C88.8572 96.8057 88.7892 96.7436 88.7512 96.6633C88.7132 96.5831 88.7082 96.4911 88.7373 96.4072C88.752 96.3652 88.775 96.3265 88.8048 96.2935C88.8346 96.2604 88.8708 96.2337 88.9111 96.2148C88.9514 96.1958 88.995 96.1851 89.0395 96.1833C89.084 96.1814 89.1284 96.1885 89.1701 96.204C90.239 96.5804 91.3079 96.9567 92.343 97.303C92.4275 97.3314 92.4975 97.3919 92.5376 97.4716C92.5778 97.5512 92.5849 97.6434 92.5575 97.7283C92.5324 97.7929 92.4876 97.8479 92.4296 97.8857C92.3715 97.9236 92.303 97.9422 92.2338 97.9391L92.2376 97.9428ZM85.9032 95.6545C85.8616 95.6548 85.8204 95.6458 85.7828 95.6281C84.7553 95.2292 83.7014 94.8001 82.6551 94.3597C82.6143 94.3427 82.5773 94.3178 82.5461 94.2864C82.515 94.255 82.4903 94.2179 82.4736 94.177C82.4568 94.1361 82.4482 94.0923 82.4484 94.0481C82.4485 94.0039 82.4574 93.9602 82.4744 93.9194C82.4915 93.8786 82.5164 93.8416 82.5478 93.8104C82.5791 93.7793 82.6163 93.7546 82.6572 93.7378C82.6981 93.7211 82.7419 93.7125 82.7861 93.7127C82.8303 93.7128 82.874 93.7217 82.9148 93.7387C83.9573 94.1791 85.0074 94.6006 86.0274 95.0033C86.1105 95.0361 86.1773 95.1004 86.2132 95.1821C86.2492 95.2639 86.2514 95.3566 86.2194 95.4399C86.1931 95.503 86.1486 95.5567 86.0916 95.5942C86.0346 95.6318 85.9677 95.6515 85.8994 95.6507L85.9032 95.6545ZM118.531 95.1953C118.444 95.1954 118.361 95.1623 118.298 95.1028C118.235 95.0433 118.197 94.9619 118.192 94.8754C118.109 93.7913 117.849 92.7283 117.421 91.7289C117.404 91.6879 117.396 91.644 117.397 91.5998C117.397 91.5556 117.407 91.512 117.424 91.4714C117.441 91.4308 117.467 91.3941 117.499 91.3634C117.53 91.3326 117.568 91.3085 117.609 91.2923C117.65 91.2752 117.693 91.2664 117.738 91.2664C117.782 91.2665 117.825 91.2754 117.866 91.2925C117.907 91.3097 117.944 91.3349 117.974 91.3665C118.005 91.3981 118.029 91.4356 118.046 91.4767C118.503 92.5452 118.78 93.6823 118.866 94.8415C118.869 94.8858 118.862 94.9302 118.848 94.972C118.833 95.0139 118.81 95.0524 118.78 95.0853C118.75 95.1182 118.714 95.1449 118.674 95.1638C118.634 95.1827 118.59 95.1934 118.546 95.1953H118.531ZM79.7081 93.0462C79.6604 93.0463 79.6132 93.0374 79.5688 93.0198C78.5601 92.5682 77.5289 92.0977 76.5014 91.616C76.4205 91.578 76.358 91.5095 76.3277 91.4255C76.2973 91.3416 76.3016 91.2489 76.3395 91.1681C76.3775 91.0872 76.446 91.0248 76.5299 90.9944C76.6139 90.9641 76.7066 90.9683 76.7874 91.0062C77.8112 91.4842 78.8387 91.9547 79.8436 92.4026C79.9152 92.4328 79.9742 92.487 80.0102 92.5559C80.0463 92.6248 80.0573 92.7042 80.0412 92.7803C80.0252 92.8564 79.9832 92.9245 79.9224 92.9731C79.8616 93.0216 79.7858 93.0474 79.7081 93.0462ZM73.6108 90.1857C73.5587 90.1858 73.5073 90.1742 73.4603 90.1519C72.8405 89.8458 72.2132 89.5346 71.5784 89.2185C71.202 89.0265 70.8256 88.8421 70.4493 88.6276C70.3704 88.5856 70.3114 88.5141 70.2853 88.4287C70.2592 88.3433 70.2681 88.251 70.31 88.1721C70.3519 88.0933 70.4235 88.0343 70.5089 88.0082C70.5943 87.9821 70.6866 87.991 70.7654 88.0329C71.1418 88.2324 71.5182 88.4093 71.8945 88.6163C72.5193 88.9324 73.1403 89.2436 73.7576 89.5497C73.7975 89.5686 73.8332 89.5952 73.8626 89.6281C73.8921 89.661 73.9146 89.6994 73.929 89.7411C73.9434 89.7829 73.9493 89.827 73.9463 89.8711C73.9434 89.9151 73.9317 89.9581 73.9119 89.9976C73.8831 90.057 73.8373 90.1065 73.7804 90.14C73.7235 90.1735 73.6579 90.1894 73.592 90.1857H73.6108ZM116.209 88.9475C116.151 88.9466 116.095 88.9314 116.045 88.9031C115.995 88.8748 115.953 88.8344 115.923 88.7856C115.385 87.9087 114.749 86.9866 114.041 86.0419C114.014 86.0068 113.995 85.9668 113.983 85.9242C113.972 85.8815 113.969 85.8371 113.975 85.7933C113.981 85.7496 113.996 85.7075 114.018 85.6694C114.04 85.6313 114.07 85.598 114.105 85.5714C114.176 85.5171 114.266 85.4933 114.355 85.5053C114.444 85.5173 114.525 85.5641 114.579 85.6354C115.309 86.5951 115.96 87.5173 116.51 88.4318C116.556 88.5083 116.57 88.5998 116.549 88.6865C116.528 88.7732 116.473 88.848 116.397 88.8948C116.336 88.9345 116.263 88.953 116.19 88.9475H116.209ZM67.634 87.0844C67.5773 87.0854 67.5214 87.0711 67.4721 87.043C66.4685 86.4985 65.4824 85.9603 64.5138 85.4284C64.4753 85.4069 64.4414 85.378 64.414 85.3434C64.3866 85.3088 64.3663 85.2691 64.3542 85.2266C64.3422 85.1842 64.3386 85.1397 64.3437 85.0959C64.3488 85.052 64.3625 85.0096 64.384 84.9711C64.4055 84.9325 64.4344 84.8986 64.469 84.8712C64.5036 84.8438 64.5433 84.8235 64.5857 84.8114C64.6282 84.7994 64.6726 84.7958 64.7165 84.8009C64.7603 84.806 64.8027 84.8197 64.8413 84.8412C65.7948 85.3682 66.7784 85.9051 67.7921 86.4521C67.8313 86.4727 67.866 86.5008 67.8943 86.5349C67.9226 86.569 67.9438 86.6084 67.9567 86.6508C67.9697 86.6931 67.9741 86.7376 67.9697 86.7817C67.9654 86.8258 67.9523 86.8685 67.9313 86.9075C67.9008 86.9639 67.8548 87.0105 67.7989 87.0418C67.7429 87.0731 67.6792 87.0879 67.6152 87.0844H67.634ZM61.7513 83.8062C61.6919 83.8059 61.6335 83.7904 61.5819 83.761C60.6146 83.1927 59.6398 82.6093 58.6876 82.0259C58.6117 81.9795 58.5574 81.9049 58.5366 81.8184C58.5157 81.732 58.5301 81.6408 58.5765 81.5649C58.623 81.489 58.6976 81.4347 58.7841 81.4139C58.8705 81.3931 58.9617 81.4074 59.0376 81.4539C59.9861 82.0335 60.9571 82.6131 61.9206 83.1777C61.9979 83.2232 62.054 83.2975 62.0765 83.3842C62.0991 83.471 62.0863 83.5632 62.0411 83.6406C62.0099 83.694 61.9646 83.7377 61.9101 83.7669C61.8556 83.7962 61.7942 83.8098 61.7324 83.8062H61.7513ZM112.163 83.5728C112.115 83.5719 112.068 83.561 112.025 83.5409C111.981 83.5208 111.942 83.492 111.911 83.4562C111.448 82.9292 110.955 82.3835 110.439 81.8378C110.179 81.5592 109.912 81.277 109.637 80.9947C109.575 80.9308 109.542 80.8449 109.543 80.756C109.544 80.6671 109.581 80.5823 109.645 80.5204C109.709 80.4586 109.795 80.4246 109.884 80.426C109.973 80.4274 110.057 80.4641 110.119 80.528C110.398 80.8103 110.665 81.0925 110.932 81.3748C111.448 81.9281 111.948 82.4776 112.419 83.0121C112.46 83.0616 112.486 83.1217 112.494 83.1855C112.503 83.2493 112.493 83.3141 112.467 83.3726C112.44 83.4312 112.397 83.481 112.343 83.5164C112.29 83.5518 112.227 83.5714 112.163 83.5728ZM55.9965 80.2946C55.9326 80.2941 55.87 80.2758 55.8158 80.2419C54.8711 79.6435 53.934 79.0225 52.9855 78.4052C52.9487 78.3805 52.9171 78.3488 52.8925 78.3119C52.868 78.2749 52.8509 78.2335 52.8423 78.19C52.8338 78.1465 52.8339 78.1017 52.8426 78.0583C52.8514 78.0148 52.8686 77.9735 52.8933 77.9366C52.918 77.8998 52.9497 77.8682 52.9866 77.8437C53.0236 77.8191 53.065 77.802 53.1085 77.7935C53.152 77.7849 53.1968 77.785 53.2402 77.7938C53.2837 77.8025 53.325 77.8197 53.3619 77.8444C54.2953 78.4617 55.2437 79.0752 56.1847 79.6736C56.2449 79.7135 56.2907 79.7716 56.3156 79.8394C56.3404 79.9072 56.343 79.9812 56.3228 80.0506C56.3026 80.1199 56.2608 80.181 56.2035 80.2249C56.1461 80.2688 56.0762 80.2932 56.004 80.2946H55.9965ZM107.473 78.7327C107.431 78.7331 107.388 78.7249 107.349 78.7088C107.31 78.6926 107.274 78.6688 107.244 78.6386C106.457 77.8858 105.625 77.1331 104.767 76.3803C104.71 76.3187 104.677 76.2377 104.676 76.1534C104.675 76.069 104.705 75.9873 104.761 75.9243C104.817 75.8612 104.895 75.8213 104.979 75.8123C105.063 75.8034 105.147 75.8261 105.215 75.876C106.077 76.6287 106.916 77.4078 107.707 78.1606C107.738 78.1917 107.762 78.2287 107.779 78.2693C107.796 78.31 107.805 78.3536 107.805 78.3977C107.805 78.4417 107.796 78.4854 107.779 78.5261C107.762 78.5667 107.738 78.6037 107.707 78.6348C107.675 78.6674 107.637 78.6929 107.595 78.7098C107.553 78.7266 107.507 78.7344 107.462 78.7327H107.473ZM50.381 76.5723C50.3122 76.5731 50.245 76.552 50.189 76.5121C49.2594 75.8722 48.3335 75.2173 47.4302 74.5662C47.3891 74.5425 47.3534 74.5105 47.3255 74.4721C47.2975 74.4337 47.278 74.3899 47.268 74.3435C47.2581 74.2971 47.2581 74.2492 47.2679 74.2027C47.2777 74.1563 47.2971 74.1124 47.3249 74.074C47.3528 74.0356 47.3884 74.0034 47.4294 73.9796C47.4705 73.9558 47.5161 73.9409 47.5633 73.9359C47.6104 73.9308 47.6582 73.9357 47.7033 73.9503C47.7485 73.9649 47.7901 73.9888 47.8254 74.0205C48.7212 74.6678 49.6471 75.319 50.5692 75.9588C50.6429 76.0098 50.6935 76.0879 50.7097 76.1761C50.7259 76.2643 50.7065 76.3554 50.6557 76.4293C50.624 76.4753 50.5811 76.5126 50.5311 76.5376C50.4811 76.5626 50.4256 76.5745 50.3697 76.5723H50.381ZM44.916 72.6316C44.841 72.6355 44.7669 72.6143 44.7053 72.5714C43.7982 71.8864 42.9024 71.1901 42.033 70.5051C41.9938 70.4791 41.9605 70.4453 41.9351 70.4057C41.9097 70.3661 41.8929 70.3217 41.8856 70.2752C41.8783 70.2287 41.8808 70.1813 41.8929 70.1358C41.905 70.0904 41.9264 70.048 41.9557 70.0112C41.9851 69.9745 42.0218 69.9443 42.0635 69.9226C42.1052 69.9008 42.1509 69.888 42.1979 69.8849C42.2448 69.8818 42.2918 69.8884 42.336 69.9045C42.3802 69.9206 42.4206 69.9457 42.4545 69.9782C43.3164 70.6594 44.2084 71.352 45.1117 72.0332C45.1694 72.0751 45.2123 72.1343 45.234 72.2022C45.2557 72.2701 45.2552 72.3432 45.2325 72.4108C45.2098 72.4784 45.1662 72.537 45.1079 72.578C45.0496 72.6191 44.9798 72.6405 44.9085 72.6392L44.916 72.6316ZM39.628 68.4313C39.5482 68.4315 39.4709 68.4035 39.4097 68.3523C38.5327 67.5995 37.6708 66.8769 36.8503 66.1505C36.783 66.0911 36.742 66.0073 36.7363 65.9177C36.7307 65.8281 36.7608 65.7399 36.8202 65.6725C36.8496 65.6395 36.8851 65.6127 36.9249 65.5935C36.9646 65.5743 37.0078 65.5632 37.0519 65.5607C37.0959 65.5583 37.14 65.5646 37.1817 65.5792C37.2233 65.5939 37.2616 65.6166 37.2944 65.6461C38.1112 66.3688 38.9693 67.1065 39.8425 67.8366C39.8963 67.8805 39.9352 67.9399 39.9537 68.0068C39.9723 68.0737 39.9696 68.1447 39.946 68.21C39.9225 68.2753 39.8792 68.3317 39.8222 68.3713C39.7653 68.411 39.6974 68.4319 39.628 68.4313ZM34.5883 63.975C34.5016 63.9733 34.4186 63.9398 34.355 63.8809C33.5156 63.083 32.7064 62.2851 31.9499 61.506C31.8867 61.4425 31.8512 61.3566 31.8512 61.267C31.8512 61.1774 31.8867 61.0915 31.9499 61.028C32.0139 60.9657 32.0996 60.9308 32.1889 60.9308C32.2782 60.9308 32.364 60.9657 32.4279 61.028C33.1807 61.7996 33.9824 62.5937 34.8179 63.3841C34.8802 63.4481 34.9151 63.5338 34.9151 63.6231C34.9151 63.7124 34.8802 63.7982 34.8179 63.8621C34.7586 63.9277 34.6765 63.9681 34.5883 63.975ZM29.9025 59.1349C29.8547 59.1355 29.8074 59.1258 29.7639 59.1063C29.7203 59.0868 29.6815 59.058 29.6503 59.0219C28.8674 58.1299 28.1448 57.2492 27.4937 56.3873C27.4683 56.3174 27.4667 56.2412 27.489 56.1703C27.5113 56.0993 27.5563 56.0377 27.6171 55.9949C27.6779 55.9521 27.751 55.9305 27.8253 55.9334C27.8996 55.9363 27.9708 55.9635 28.0281 56.0109C28.6679 56.8465 29.3831 57.7159 30.1546 58.5966C30.1975 58.645 30.2254 58.7048 30.2351 58.7687C30.2447 58.8326 30.2357 58.898 30.209 58.9569C30.1823 59.0157 30.1392 59.0657 30.0848 59.1006C30.0304 59.1355 29.9671 59.1539 29.9025 59.1537V59.1349ZM25.8451 53.7527C25.7879 53.7533 25.7314 53.7391 25.6813 53.7114C25.6311 53.6837 25.589 53.6435 25.5591 53.5946C24.9513 52.6283 24.4238 51.6137 23.9821 50.561C23.9481 50.4787 23.9483 50.3862 23.9825 50.304C24.0168 50.2218 24.0823 50.1565 24.1646 50.1226C24.247 50.0886 24.3394 50.0888 24.4217 50.123C24.5039 50.1573 24.5692 50.2228 24.6031 50.3051C25.0324 51.3233 25.5434 52.3051 26.1312 53.2408C26.1546 53.2783 26.1703 53.3201 26.1775 53.3637C26.1847 53.4074 26.1832 53.452 26.173 53.495C26.1629 53.5381 26.1443 53.5787 26.1184 53.6145C26.0925 53.6503 26.0597 53.6807 26.022 53.7038C25.9687 53.736 25.9075 53.753 25.8451 53.7527ZM23.474 47.5237C23.3877 47.5238 23.3047 47.4906 23.2423 47.431C23.1799 47.3714 23.1429 47.29 23.139 47.2038V47.1624C23.139 47.0231 23.139 46.8839 23.139 46.7521C23.1173 45.7054 23.394 44.674 23.9369 43.7788C23.9868 43.7029 24.0648 43.65 24.1538 43.6316C24.2427 43.6133 24.3353 43.631 24.4112 43.6809C24.487 43.7308 24.5399 43.8088 24.5583 43.8978C24.5766 43.9867 24.5589 44.0793 24.509 44.1552C24.0314 44.9411 23.7897 45.8478 23.8127 46.7672C23.8127 46.8876 23.8127 47.0118 23.8127 47.1436V47.1963C23.8147 47.2406 23.8079 47.2848 23.7927 47.3265C23.7775 47.3681 23.7541 47.4064 23.724 47.4389C23.6939 47.4715 23.6576 47.4977 23.6173 47.5162C23.577 47.5346 23.5334 47.5448 23.489 47.5463L23.474 47.5237ZM49.8202 44.7385C49.7853 44.744 49.7497 44.744 49.7148 44.7385C48.6271 44.3622 47.5507 44.0422 46.5119 43.7374C46.4696 43.725 46.4302 43.7045 46.3959 43.6769C46.3616 43.6493 46.333 43.6152 46.3119 43.5766C46.2907 43.538 46.2774 43.4956 46.2726 43.4518C46.2679 43.408 46.2718 43.3637 46.2841 43.3215C46.2965 43.2792 46.3171 43.2398 46.3447 43.2055C46.3722 43.1712 46.4063 43.1426 46.4449 43.1215C46.4836 43.1003 46.526 43.087 46.5697 43.0823C46.6135 43.0775 46.6578 43.0814 46.7 43.0938C47.7464 43.3986 48.8341 43.7374 49.9256 44.0987C49.9677 44.1123 50.0068 44.1342 50.0404 44.163C50.0741 44.1918 50.1017 44.227 50.1216 44.2666C50.1416 44.3061 50.1535 44.3492 50.1566 44.3934C50.1598 44.4376 50.1542 44.482 50.1401 44.524C50.1188 44.5902 50.0771 44.6481 50.021 44.6893C49.9649 44.7305 49.8973 44.753 49.8277 44.7536L49.8202 44.7385ZM43.3578 42.8567H43.275C42.1459 42.5744 41.0544 42.326 40.0043 42.1039C39.9207 42.0866 39.8469 42.038 39.7979 41.968C39.749 41.898 39.7285 41.812 39.7409 41.7275C39.759 41.6444 39.8078 41.5711 39.8776 41.5222C39.9473 41.4734 40.0329 41.4527 40.1173 41.4641C41.1749 41.6711 42.2852 41.9233 43.4181 42.2168C43.4997 42.2343 43.5719 42.2816 43.6205 42.3496C43.6691 42.4175 43.6905 42.5011 43.6806 42.5841C43.6707 42.667 43.6302 42.7432 43.567 42.7978C43.5038 42.8525 43.4225 42.8815 43.339 42.8792L43.3578 42.8567ZM26.7974 42.2131C26.7323 42.2126 26.6687 42.1935 26.614 42.1582C26.5594 42.1229 26.5159 42.0727 26.4887 42.0136C26.4533 41.9317 26.4515 41.8391 26.484 41.7559C26.5164 41.6728 26.5803 41.6057 26.6619 41.5695C27.7314 41.1267 28.8599 40.8426 30.0116 40.7264C30.056 40.7201 30.1012 40.7229 30.1445 40.7345C30.1878 40.7462 30.2283 40.7666 30.2635 40.7944C30.2987 40.8222 30.3279 40.8569 30.3493 40.8963C30.3707 40.9357 30.3838 40.9791 30.388 41.0237C30.3938 41.0678 30.3907 41.1125 30.3791 41.1554C30.3674 41.1982 30.3473 41.2383 30.32 41.2734C30.2927 41.3084 30.2586 41.3376 30.2199 41.3594C30.1812 41.3811 30.1385 41.395 30.0944 41.4001C29.0089 41.5083 27.9451 41.7745 26.9366 42.1905C26.8896 42.2129 26.8382 42.2245 26.7861 42.2244L26.7974 42.2131ZM36.7675 41.5695H36.7224C35.5518 41.4151 34.434 41.3211 33.4027 41.2834C33.3555 41.2866 33.3081 41.2798 33.2637 41.2635C33.2192 41.2472 33.1787 41.2218 33.1447 41.1889C33.1107 41.156 33.0839 41.1163 33.0662 41.0724C33.0484 41.0285 33.0401 40.9814 33.0417 40.9341C33.0433 40.8868 33.0547 40.8403 33.0754 40.7977C33.096 40.7551 33.1254 40.7173 33.1615 40.6868C33.1977 40.6562 33.2398 40.6335 33.2852 40.6203C33.3307 40.607 33.3784 40.6034 33.4253 40.6097C34.4792 40.6473 35.6158 40.7452 36.8127 40.8995C36.9014 40.9108 36.982 40.9567 37.037 41.0272C37.092 41.0977 37.1169 41.1871 37.1063 41.2759C37.0986 41.3621 37.0579 41.4419 36.9926 41.4988C36.9274 41.5556 36.8427 41.585 36.7562 41.5808L36.7675 41.5695Z" fill="white"/>
<path d="M56.7719 123.273C56.1804 123.274 55.5932 123.173 55.0368 122.972C54.953 122.941 54.8846 122.879 54.8469 122.798C54.8091 122.717 54.805 122.625 54.8354 122.541C54.8659 122.457 54.9284 122.389 55.0092 122.351C55.09 122.313 55.1825 122.309 55.2664 122.339C55.7491 122.513 56.2587 122.601 56.7719 122.599C57.3086 122.595 57.842 122.515 58.3564 122.362L58.458 122.682L58.5296 123.013C57.9584 123.18 57.367 123.268 56.7719 123.273ZM61.4502 121.504C61.3962 121.504 61.343 121.491 61.2951 121.466C61.2472 121.441 61.2061 121.405 61.1755 121.361C61.1239 121.288 61.1033 121.197 61.1181 121.109C61.1329 121.021 61.182 120.942 61.2545 120.89C61.9868 120.368 62.6811 119.795 63.3321 119.174C63.4789 119.039 63.6257 118.896 63.7762 118.749C63.8401 118.686 63.9262 118.652 64.0154 118.653C64.1047 118.654 64.1899 118.691 64.2523 118.754C64.3147 118.818 64.3492 118.904 64.3481 118.994C64.3471 119.083 64.3106 119.168 64.2467 119.231L63.795 119.667C63.1197 120.309 62.4003 120.902 61.6422 121.444C61.5858 121.482 61.5186 121.502 61.4502 121.5V121.504ZM52.5527 120.936C52.5 120.936 52.4478 120.925 52.4006 120.901C52.3534 120.877 52.3127 120.843 52.2817 120.8C51.6199 119.858 51.0964 118.827 50.7273 117.736C50.697 117.652 50.7014 117.559 50.7395 117.478C50.7776 117.397 50.8463 117.334 50.9306 117.304C50.9723 117.289 51.0166 117.282 51.0608 117.285C51.1051 117.287 51.1484 117.298 51.1883 117.317C51.2282 117.337 51.2639 117.364 51.2933 117.397C51.3227 117.43 51.3453 117.469 51.3596 117.511C51.7086 118.544 52.2028 119.522 52.8275 120.416C52.8539 120.452 52.873 120.492 52.8837 120.535C52.8944 120.578 52.8964 120.623 52.8898 120.666C52.8831 120.71 52.8679 120.752 52.8449 120.79C52.822 120.828 52.7917 120.861 52.756 120.887C52.6953 120.924 52.624 120.942 52.5527 120.936ZM66.2753 116.841C66.2117 116.839 66.1498 116.82 66.0965 116.786C66.0432 116.751 66.0008 116.702 65.9741 116.644C65.9474 116.586 65.9375 116.522 65.9455 116.459C65.9535 116.396 65.9791 116.337 66.0194 116.287C66.6894 115.482 67.3744 114.59 68.0594 113.653C68.1141 113.594 68.1883 113.556 68.2683 113.548C68.3483 113.539 68.4287 113.559 68.495 113.605C68.5612 113.651 68.6088 113.719 68.629 113.796C68.6493 113.874 68.6408 113.957 68.6051 114.029C67.9126 114.993 67.2163 115.911 66.535 116.716C66.5037 116.755 66.4641 116.786 66.4192 116.808C66.3743 116.829 66.3251 116.84 66.2753 116.841ZM50.1816 114.695C50.1031 114.695 50.0271 114.667 49.9667 114.617C49.9063 114.567 49.8652 114.498 49.8504 114.42C49.6509 113.385 49.474 112.256 49.3761 111.056C49.3719 111.012 49.3764 110.967 49.3894 110.925C49.4023 110.883 49.4235 110.844 49.4516 110.809C49.4798 110.775 49.5143 110.747 49.5534 110.726C49.5924 110.706 49.6351 110.693 49.6791 110.689C49.7231 110.685 49.7675 110.689 49.8097 110.702C49.852 110.715 49.8913 110.736 49.9253 110.764C49.9594 110.792 49.9876 110.827 50.0083 110.866C50.0291 110.905 50.0419 110.948 50.0461 110.992C50.159 112.17 50.3171 113.28 50.5128 114.293C50.5241 114.377 50.5028 114.463 50.4532 114.533C50.4036 114.603 50.3294 114.652 50.2456 114.669L50.1816 114.695ZM70.2273 111.391C70.1619 111.392 70.0977 111.374 70.0429 111.338C69.9683 111.289 69.9162 111.212 69.8979 111.125C69.8796 111.037 69.8965 110.946 69.945 110.871C70.5284 109.968 71.1193 109.008 71.7027 108.018C71.7248 107.98 71.7543 107.947 71.7894 107.92C71.8245 107.893 71.8646 107.874 71.9072 107.863C71.9499 107.852 71.9944 107.849 72.038 107.855C72.0817 107.861 72.1238 107.876 72.1618 107.898C72.2391 107.943 72.2952 108.018 72.3177 108.104C72.3403 108.191 72.3276 108.283 72.2823 108.361C71.6951 109.358 71.0967 110.326 70.5096 111.236C70.4795 111.284 70.4378 111.323 70.3884 111.35C70.339 111.377 70.2836 111.391 70.2273 111.391ZM49.5003 108.003C49.4128 108.003 49.3287 107.969 49.2661 107.908C49.2035 107.847 49.1673 107.763 49.1654 107.676C49.1654 107.025 49.1353 106.347 49.1353 105.655C49.1353 105.207 49.1353 104.755 49.1353 104.296C49.1382 104.207 49.1756 104.123 49.2395 104.061C49.3034 103.999 49.3888 103.965 49.4778 103.965C49.5221 103.965 49.5658 103.975 49.6065 103.992C49.6472 104.01 49.6841 104.035 49.7149 104.067C49.7457 104.099 49.7699 104.136 49.786 104.178C49.8022 104.219 49.81 104.263 49.809 104.307C49.809 104.763 49.809 105.211 49.809 105.655C49.809 106.34 49.809 107.013 49.8391 107.657C49.8406 107.701 49.8333 107.746 49.8176 107.787C49.8019 107.828 49.7781 107.866 49.7477 107.899C49.7172 107.931 49.6807 107.957 49.6402 107.975C49.5996 107.993 49.5559 108.002 49.5116 108.003H49.5003ZM73.6485 105.594C73.593 105.596 73.5383 105.581 73.4904 105.553C73.4512 105.533 73.4164 105.504 73.3883 105.47C73.3601 105.436 73.3391 105.396 73.3264 105.354C73.3138 105.312 73.3098 105.267 73.3147 105.223C73.3196 105.179 73.3333 105.136 73.3549 105.098C73.8743 104.138 74.4013 103.141 74.9131 102.124C74.9578 102.052 75.0279 102 75.1095 101.977C75.1912 101.954 75.2784 101.962 75.3541 102.001C75.4298 102.039 75.4883 102.104 75.5182 102.183C75.548 102.263 75.547 102.351 75.5153 102.429C74.9959 103.449 74.469 104.454 73.9459 105.418C73.9171 105.471 73.8742 105.516 73.8218 105.547C73.7694 105.579 73.7095 105.595 73.6485 105.594ZM49.617 101.274H49.5982C49.509 101.268 49.4257 101.227 49.3665 101.16C49.3072 101.093 49.2769 101.005 49.282 100.916C49.346 99.8284 49.4326 98.6956 49.538 97.5514C49.5475 97.461 49.5924 97.3782 49.663 97.321C49.7336 97.2638 49.824 97.237 49.9143 97.2465C49.9593 97.2507 50.0029 97.2639 50.0427 97.2852C50.0824 97.3065 50.1176 97.3355 50.146 97.3706C50.1744 97.4056 50.1955 97.446 50.208 97.4893C50.2206 97.5327 50.2244 97.5781 50.2192 97.6229C50.1138 98.752 50.0273 99.8811 49.9633 100.969C49.9556 101.054 49.9154 101.134 49.851 101.19C49.7866 101.247 49.7028 101.277 49.617 101.274ZM76.716 99.5913C76.6652 99.5909 76.615 99.5794 76.5692 99.5575C76.4894 99.5184 76.4281 99.4496 76.3985 99.3659C76.3689 99.2821 76.3735 99.19 76.4111 99.1096C76.8816 98.1159 77.3558 97.0884 77.815 96.0572C77.833 96.0169 77.8588 95.9806 77.8909 95.9502C77.923 95.9199 77.9607 95.8962 78.002 95.8805C78.0432 95.8648 78.0871 95.8573 78.1313 95.8586C78.1754 95.8598 78.2188 95.8698 78.2591 95.8878C78.2994 95.9058 78.3357 95.9316 78.366 95.9637C78.3963 95.9958 78.42 96.0335 78.4358 96.0748C78.4515 96.116 78.459 96.16 78.4577 96.2041C78.4564 96.2482 78.4465 96.2916 78.4285 96.3319C77.9693 97.367 77.4913 98.3982 77.0208 99.3994C76.9915 99.4595 76.9452 99.5097 76.8877 99.5438C76.8302 99.5779 76.764 99.5944 76.6972 99.5913H76.716ZM79.4597 93.4414C79.4145 93.4418 79.3696 93.4328 79.328 93.415C79.246 93.3801 79.1811 93.3143 79.1473 93.2319C79.1135 93.1495 79.1135 93.0571 79.1474 92.9747C79.5764 91.9547 80.0055 90.9084 80.4195 89.8658C80.4523 89.7827 80.5165 89.7159 80.5983 89.68C80.6801 89.644 80.7727 89.6418 80.8561 89.6739C80.9388 89.7081 81.0048 89.7734 81.0399 89.8557C81.0751 89.938 81.0767 90.0308 81.0443 90.1142C80.6303 91.1605 80.2012 92.2106 79.7684 93.2344C79.7429 93.2992 79.6974 93.3542 79.6385 93.3915C79.5797 93.4287 79.5104 93.4462 79.4409 93.4414H79.4597ZM81.94 87.1823C81.9013 87.1877 81.8621 87.1877 81.8234 87.1823C81.7395 87.1502 81.6717 87.0864 81.6344 87.0048C81.5971 86.9231 81.5933 86.8301 81.6239 86.7457C82.0003 85.7031 82.403 84.6417 82.7718 83.5879C82.807 83.5107 82.8698 83.4495 82.9478 83.4164C83.0259 83.3833 83.1136 83.3806 83.1935 83.409C83.2734 83.4374 83.3398 83.4947 83.3795 83.5696C83.4192 83.6446 83.4293 83.7317 83.4079 83.8137C83.0315 84.8676 82.6552 85.9365 82.2562 86.9828C82.2282 87.0468 82.1808 87.1005 82.1207 87.1363C82.0607 87.172 81.9909 87.1881 81.9212 87.1823H81.94ZM84.1983 80.8328C84.1448 80.834 84.0918 80.8222 84.0439 80.7984C83.996 80.7747 83.9545 80.7396 83.9231 80.6964C83.8917 80.6531 83.8712 80.6028 83.8634 80.5499C83.8556 80.497 83.8607 80.443 83.8784 80.3925C84.2284 79.3386 84.5784 78.2622 84.9096 77.1933C84.9229 77.1507 84.9445 77.1112 84.9731 77.077C85.0016 77.0428 85.0367 77.0146 85.0762 76.994C85.1157 76.9734 85.1589 76.9607 85.2033 76.9568C85.2477 76.9529 85.2924 76.9578 85.3349 76.9712C85.377 76.9845 85.416 77.0059 85.4498 77.0343C85.4836 77.0627 85.5114 77.0975 85.5317 77.1366C85.5519 77.1758 85.5643 77.2186 85.568 77.2626C85.5717 77.3065 85.5667 77.3508 85.5532 77.3928C85.2183 78.4692 84.8682 79.5494 84.5182 80.6032C84.498 80.6805 84.4509 80.7479 84.3853 80.7935C84.3197 80.839 84.2401 80.8596 84.1607 80.8516L84.1983 80.8328ZM86.2081 74.4081C86.177 74.4135 86.1452 74.4135 86.114 74.4081C86.0285 74.3828 85.9563 74.3247 85.9133 74.2465C85.8703 74.1682 85.86 74.0762 85.8845 73.9903C86.2006 72.9139 86.5092 71.8262 86.8028 70.761C86.8141 70.7181 86.8339 70.6779 86.8609 70.6427C86.8879 70.6074 86.9217 70.5779 86.9602 70.5559C86.9987 70.5338 87.0413 70.5196 87.0853 70.5141C87.1294 70.5087 87.1741 70.512 87.2168 70.5239C87.3023 70.5485 87.3746 70.6057 87.4183 70.6832C87.4619 70.7606 87.4734 70.8521 87.4502 70.9379C87.1566 72.0106 86.848 73.0983 86.5318 74.1785C86.5072 74.2525 86.4579 74.3158 86.392 74.3576C86.3262 74.3995 86.248 74.4173 86.1705 74.4081H86.2081ZM87.9846 67.9194H87.9018C87.8591 67.9089 87.8189 67.89 87.7836 67.8637C87.7483 67.8375 87.7186 67.8045 87.6962 67.7667C87.6737 67.7288 87.6591 67.6869 87.653 67.6434C87.647 67.5998 87.6497 67.5555 87.6609 67.5129C87.7739 67.0688 87.883 66.6285 87.9922 66.1843C88.154 65.537 88.3083 64.8896 88.4626 64.2498C88.4728 64.2068 88.4913 64.1662 88.5171 64.1303C88.5429 64.0945 88.5755 64.0641 88.6131 64.0408C88.6507 64.0176 88.6924 64.002 88.736 63.9949C88.7796 63.9878 88.8242 63.9893 88.8672 63.9995C88.9102 64.0096 88.9508 64.0281 88.9867 64.0539C89.0225 64.0797 89.0529 64.1124 89.0762 64.1499C89.0994 64.1875 89.115 64.2293 89.1221 64.2729C89.1292 64.3165 89.1276 64.3611 89.1175 64.4041C88.9632 65.0477 88.8089 65.695 88.647 66.3462C88.5379 66.7903 88.425 67.2344 88.3121 67.6785C88.2895 67.7554 88.2405 67.8217 88.1736 67.8658C88.1068 67.9099 88.0265 67.9289 87.947 67.9194H87.9846ZM89.5315 61.3705H89.46C89.3729 61.3507 89.297 61.2973 89.2491 61.2219C89.2012 61.1464 89.185 61.0551 89.2041 60.9678C89.4412 59.8612 89.6708 58.7547 89.8816 57.6783C89.89 57.635 89.9068 57.5939 89.9311 57.5571C89.9554 57.5204 89.9867 57.4888 90.0233 57.4641C90.0598 57.4395 90.1008 57.4223 90.144 57.4135C90.1871 57.4047 90.2316 57.4045 90.2749 57.4129C90.3181 57.4213 90.3593 57.4382 90.396 57.4625C90.4328 57.4868 90.4644 57.5181 90.489 57.5546C90.5136 57.5911 90.5308 57.6322 90.5396 57.6753C90.5484 57.7185 90.5486 57.763 90.5402 57.8062C90.3294 58.8902 90.0998 60.0005 89.8627 61.1108C89.8439 61.1918 89.7959 61.2631 89.7278 61.311C89.6598 61.3589 89.5765 61.3801 89.4939 61.3705H89.5315ZM90.8187 54.7614H90.7623C90.677 54.7457 90.601 54.6979 90.5499 54.6279C90.4988 54.5579 90.4765 54.471 90.4875 54.385C90.6795 53.2785 90.8639 52.1606 91.022 51.0729C91.035 50.9856 91.0817 50.9068 91.152 50.8534C91.2223 50.7999 91.3107 50.7761 91.3983 50.7869C91.4846 50.8017 91.5618 50.8489 91.6143 50.9189C91.6668 50.9889 91.6905 51.0763 91.6806 51.1632C91.5188 52.2585 91.3381 53.3801 91.1462 54.4941C91.129 54.5759 91.0822 54.6483 91.0148 54.6976C90.9474 54.747 90.8642 54.7697 90.7811 54.7614H90.8187ZM91.771 48.1071H91.7296C91.6408 48.0958 91.5602 48.0499 91.5052 47.9794C91.4502 47.9089 91.4253 47.8195 91.436 47.7307C91.5752 46.6016 91.6957 45.4725 91.8124 44.3923C91.8246 44.306 91.8696 44.2278 91.938 44.1739C92.0065 44.12 92.093 44.0945 92.1797 44.1027C92.2665 44.1109 92.3467 44.1523 92.4037 44.2181C92.4608 44.2839 92.4903 44.3692 92.4861 44.4562C92.3844 45.5477 92.2602 46.6768 92.1097 47.8135C92.0995 47.8956 92.0592 47.9711 91.9967 48.0253C91.9341 48.0795 91.8537 48.1086 91.771 48.1071ZM92.3882 41.4038H92.3656C92.3216 41.4014 92.2785 41.3904 92.2388 41.3713C92.1991 41.3522 92.1635 41.3254 92.1341 41.2926C92.1047 41.2597 92.0821 41.2214 92.0676 41.1797C92.0531 41.1381 92.0469 41.0941 92.0495 41.0501C92.1172 39.8983 92.1624 38.7918 92.1812 37.7003C92.1812 37.6559 92.1901 37.6118 92.2074 37.5709C92.2248 37.53 92.2502 37.4929 92.2822 37.462C92.3141 37.4311 92.352 37.407 92.3935 37.391C92.435 37.375 92.4793 37.3676 92.5237 37.3691C92.568 37.3696 92.6118 37.3789 92.6525 37.3964C92.6932 37.4139 92.73 37.4393 92.7608 37.4712C92.7916 37.5031 92.8158 37.5407 92.832 37.582C92.8481 37.6232 92.8559 37.6673 92.8549 37.7116C92.8361 38.7956 92.7909 39.9322 92.7232 41.099C92.7148 41.1818 92.6758 41.2586 92.6139 41.3142C92.5519 41.3699 92.4715 41.4005 92.3882 41.4001V41.4038ZM68.3567 37.0793C68.3003 37.0778 68.245 37.0636 68.1949 37.0379C68.117 36.9949 68.0592 36.9231 68.0339 36.8379C68.0085 36.7527 68.0177 36.661 68.0594 36.5825C68.6126 35.5663 69.1885 34.5802 69.7267 33.643C69.7489 33.6049 69.7785 33.5716 69.8136 33.545C69.8487 33.5183 69.8887 33.4989 69.9313 33.4877C69.974 33.4765 70.0184 33.4738 70.0621 33.4798C70.1058 33.4858 70.1478 33.5003 70.1859 33.5226C70.2239 33.5448 70.2572 33.5743 70.2839 33.6094C70.3105 33.6446 70.33 33.6846 70.3412 33.7272C70.3524 33.7698 70.3551 33.8143 70.3491 33.8579C70.3431 33.9016 70.3286 33.9437 70.3063 33.9817C69.7568 34.9151 69.1998 35.8975 68.6503 36.9024C68.6216 36.9552 68.5792 36.9991 68.5275 37.0296C68.4758 37.0601 68.4167 37.076 68.3567 37.0755V37.0793ZM92.5049 34.6743C92.4173 34.6743 92.3333 34.64 92.2706 34.5788C92.208 34.5176 92.1719 34.4344 92.1699 34.3468C92.1323 33.1801 92.0645 32.0547 91.9629 31.0121C91.9585 30.9682 91.9627 30.9237 91.9754 30.8814C91.9882 30.839 92.0091 30.7996 92.0371 30.7654C92.065 30.7311 92.0995 30.7027 92.1384 30.6818C92.1773 30.6608 92.22 30.6477 92.264 30.6433C92.308 30.6388 92.3524 30.6431 92.3948 30.6558C92.4371 30.6686 92.4765 30.6895 92.5108 30.7175C92.545 30.7454 92.5734 30.7798 92.5944 30.8188C92.6153 30.8577 92.6284 30.9004 92.6328 30.9444C92.7345 32.0058 92.806 33.1424 92.8436 34.3318C92.8447 34.4207 92.8111 34.5066 92.75 34.5712C92.6889 34.6358 92.605 34.6741 92.5162 34.678L92.5049 34.6743ZM71.7855 31.2869C71.7215 31.2863 71.659 31.2681 71.6048 31.2342C71.5672 31.2105 71.5347 31.1795 71.5092 31.1431C71.4837 31.1067 71.4657 31.0656 71.4562 31.0221C71.4467 30.9787 71.446 30.9338 71.4541 30.8901C71.4622 30.8464 71.4789 30.8047 71.5032 30.7675C72.1393 29.7852 72.7791 28.8442 73.4076 27.971C73.4604 27.8993 73.539 27.8509 73.6269 27.8361C73.7147 27.8214 73.8048 27.8414 73.8781 27.892C73.9501 27.9447 73.9984 28.0237 74.0124 28.1118C74.0265 28.1998 74.0053 28.2899 73.9534 28.3625C73.3324 29.2281 72.6963 30.1578 72.0715 31.1326C72.0391 31.1791 71.9957 31.2169 71.9451 31.2425C71.8945 31.2681 71.8384 31.2808 71.7817 31.2794L71.7855 31.2869ZM91.8274 27.9899C91.7494 27.9897 91.6739 27.9627 91.6136 27.9133C91.5533 27.8639 91.5118 27.7953 91.4962 27.7189C91.2951 26.6318 91.0133 25.5611 90.6531 24.5159C90.6382 24.4744 90.6316 24.4304 90.6338 24.3863C90.6359 24.3422 90.6467 24.299 90.6656 24.2592C90.6845 24.2193 90.7111 24.1836 90.7438 24.154C90.7765 24.1244 90.8148 24.1016 90.8564 24.0869C90.9407 24.0566 91.0336 24.061 91.1148 24.0991C91.1959 24.1372 91.2586 24.2059 91.2892 24.2901C91.6595 25.3676 91.9501 26.4708 92.1586 27.5909C92.1699 27.6758 92.1486 27.7618 92.099 27.8317C92.0495 27.9015 91.9753 27.9499 91.8914 27.9673L91.8274 27.9899ZM75.7374 25.837C75.6592 25.838 75.5833 25.8113 75.5229 25.7617C75.4544 25.7045 75.4113 25.6227 75.4028 25.5339C75.3944 25.4451 75.4213 25.3566 75.4777 25.2875C76.2493 24.3578 77.0208 23.511 77.7698 22.7733C77.8352 22.7114 77.9225 22.678 78.0125 22.6805C78.1025 22.683 78.1878 22.7211 78.2497 22.7865C78.3116 22.8519 78.345 22.9392 78.3425 23.0292C78.34 23.1191 78.3019 23.2045 78.2365 23.2664C77.5064 23.9852 76.731 24.817 75.9783 25.7278C75.9464 25.7604 75.9083 25.7861 75.8663 25.8036C75.8243 25.821 75.7792 25.8298 75.7336 25.8295L75.7374 25.837ZM89.4562 21.7383C89.4033 21.7381 89.3511 21.7255 89.304 21.7012C89.2569 21.677 89.2162 21.642 89.1853 21.599C88.9591 21.2899 88.7073 21.0003 88.4325 20.7334C87.9484 20.2614 87.3717 19.8949 86.7388 19.6569C86.6973 19.6419 86.6592 19.6187 86.6266 19.5889C86.594 19.5591 86.5676 19.5232 86.5489 19.4832C86.5302 19.4431 86.5196 19.3998 86.5176 19.3557C86.5156 19.3116 86.5224 19.2675 86.5375 19.226C86.5525 19.1845 86.5756 19.1463 86.6055 19.1137C86.6353 19.0811 86.6712 19.0547 86.7112 19.036C86.7513 19.0174 86.7946 19.0067 86.8387 19.0048C86.8828 19.0028 86.9269 19.0095 86.9684 19.0246C87.6924 19.2948 88.3515 19.7141 88.903 20.2554C89.2064 20.5481 89.4823 20.8681 89.7272 21.2114C89.7541 21.2467 89.7736 21.287 89.7846 21.3301C89.7956 21.3731 89.7978 21.4179 89.7911 21.4617C89.7845 21.5056 89.7691 21.5477 89.7458 21.5855C89.7225 21.6233 89.6919 21.6561 89.6557 21.6818C89.5965 21.7204 89.5269 21.74 89.4562 21.7383ZM80.5663 21.17C80.4946 21.1708 80.4246 21.1487 80.3665 21.1069C80.3083 21.065 80.2651 21.0056 80.2432 20.9374C80.2213 20.8692 80.2219 20.7957 80.2448 20.7278C80.2677 20.66 80.3118 20.6012 80.3706 20.5602C81.3111 19.873 82.3591 19.3465 83.4719 19.002C83.5572 18.9761 83.6494 18.9851 83.7281 19.0271C83.8068 19.0691 83.8656 19.1406 83.8916 19.226C83.9175 19.3113 83.9085 19.4035 83.8665 19.4822C83.8245 19.5609 83.753 19.6197 83.6676 19.6456C82.6317 19.9706 81.6563 20.4639 80.7808 21.106C80.7186 21.151 80.643 21.1736 80.5663 21.17Z" fill="white"/>
<path d="M38.9918 91.3336C37.8175 91.3336 36.6884 91.311 35.6045 91.2659C35.521 91.2541 35.445 91.2117 35.3912 91.1468C35.3374 91.082 35.3096 90.9995 35.3134 90.9153C35.3172 90.8312 35.3521 90.7514 35.4115 90.6917C35.4709 90.6319 35.5504 90.5965 35.6346 90.5922C36.7035 90.6373 37.8251 90.6637 38.973 90.6637C39.0626 90.6637 39.1486 90.6987 39.2126 90.7613C39.2766 90.8239 39.3135 90.9091 39.3155 90.9986C39.3165 91.0859 39.2831 91.1699 39.2225 91.2326C39.1619 91.2954 39.079 91.3316 38.9918 91.3336ZM42.3566 91.2734C42.2734 91.2646 42.1964 91.2253 42.1405 91.1631C42.0845 91.1009 42.0535 91.0202 42.0535 90.9365C42.0535 90.8529 42.0845 90.7722 42.1405 90.71C42.1964 90.6478 42.2734 90.6085 42.3566 90.5997C43.4443 90.5621 44.5697 90.5018 45.7101 90.4266C45.7558 90.4214 45.8021 90.4255 45.8461 90.4388C45.8901 90.4521 45.931 90.4742 45.9662 90.5038C46.0015 90.5333 46.0303 90.5698 46.0509 90.6109C46.0716 90.6519 46.0837 90.6968 46.0865 90.7427C46.0896 90.7867 46.0839 90.8309 46.0698 90.8727C46.0558 90.9145 46.0336 90.9532 46.0046 90.9864C45.9756 91.0196 45.9402 91.0468 45.9007 91.0663C45.8611 91.0859 45.8181 91.0974 45.7741 91.1003C44.6262 91.1755 43.4933 91.2358 42.3867 91.2734H42.3566ZM32.2848 91.0363H32.251C31.0691 90.9234 29.9363 90.7728 28.8899 90.5922C28.8021 90.5772 28.7238 90.5279 28.6723 90.4552C28.6207 90.3825 28.6002 90.2923 28.6152 90.2045C28.6302 90.1167 28.6794 90.0384 28.7521 89.9868C28.8248 89.9353 28.915 89.9148 29.0029 89.9297C30.0341 90.1066 31.1519 90.2534 32.3149 90.3663C32.3599 90.3705 32.4035 90.3837 32.4433 90.405C32.483 90.4263 32.5182 90.4553 32.5466 90.4904C32.575 90.5254 32.5961 90.5658 32.6086 90.6092C32.6212 90.6525 32.625 90.6979 32.6198 90.7427C32.6081 90.8235 32.568 90.8976 32.5066 90.9514C32.4451 91.0052 32.3665 91.0353 32.2848 91.0363ZM49.0975 90.833C49.0131 90.8295 48.9332 90.7945 48.8733 90.7351C48.8134 90.6756 48.7778 90.5959 48.7736 90.5116C48.7693 90.4273 48.7967 90.3445 48.8504 90.2793C48.904 90.2141 48.9801 90.1714 49.0636 90.1593C50.1664 90.0577 51.288 89.9373 52.4058 89.8055C52.4501 89.8003 52.4949 89.8038 52.5378 89.8159C52.5807 89.828 52.6207 89.8485 52.6557 89.8761C52.6907 89.9037 52.7198 89.938 52.7415 89.9769C52.7632 90.0158 52.777 90.0586 52.7822 90.1029C52.788 90.1469 52.7849 90.1917 52.7733 90.2345C52.7616 90.2774 52.7415 90.3175 52.7142 90.3525C52.6869 90.3875 52.6529 90.4168 52.6141 90.4385C52.5754 90.4603 52.5327 90.4741 52.4886 90.4793C51.3595 90.611 50.2304 90.7314 49.1314 90.833H49.0975ZM55.7857 90.0464C55.7417 90.0496 55.6975 90.0442 55.6556 90.0303C55.6137 90.0164 55.575 89.9944 55.5416 89.9656C55.5083 89.9368 55.4809 89.9016 55.4611 89.8622C55.4413 89.8228 55.4294 89.7799 55.4262 89.7359C55.423 89.6919 55.4285 89.6477 55.4424 89.6059C55.4562 89.564 55.4782 89.5253 55.507 89.4919C55.5359 89.4585 55.571 89.4311 55.6104 89.4113C55.6498 89.3915 55.6927 89.3797 55.7367 89.3765C56.8244 89.2222 57.9423 89.0566 59.0601 88.8759C59.148 88.8614 59.2379 88.8824 59.3103 88.9343C59.3826 88.9862 59.4314 89.0647 59.4459 89.1525C59.4604 89.2404 59.4394 89.3304 59.3875 89.4027C59.3356 89.4751 59.2571 89.5238 59.1693 89.5383C58.0401 89.719 56.911 89.8883 55.8308 90.0427L55.7857 90.0464ZM25.6757 89.8582H25.5854C24.4837 89.5522 23.4118 89.1479 22.3824 88.6501C22.3429 88.6305 22.3076 88.6034 22.2785 88.5703C22.2495 88.5371 22.2272 88.4985 22.2131 88.4568C22.1989 88.415 22.1931 88.3709 22.196 88.3268C22.1989 88.2828 22.2105 88.2398 22.23 88.2003C22.2495 88.1608 22.2766 88.1255 22.3098 88.0964C22.343 88.0673 22.3815 88.0451 22.4233 88.0309C22.4651 88.0168 22.5092 88.011 22.5532 88.0139C22.5972 88.0168 22.6402 88.0283 22.6798 88.0479C23.6734 88.5261 24.7075 88.9152 25.7698 89.2109C25.8491 89.2319 25.9179 89.2813 25.9632 89.3497C26.0085 89.4181 26.0271 89.5008 26.0155 89.582C26.0039 89.6633 25.9629 89.7374 25.9003 89.7904C25.8376 89.8434 25.7577 89.8715 25.6757 89.8695V89.8582ZM62.4475 88.9738C62.3619 88.9767 62.2785 88.9467 62.2143 88.8901C62.1502 88.8335 62.1101 88.7544 62.1024 88.6691C62.0947 88.5839 62.1199 88.4989 62.1729 88.4317C62.2259 88.3644 62.3026 88.32 62.3873 88.3076C63.3884 88.1231 64.4159 87.9312 65.4397 87.7242L65.6881 87.6753C65.7754 87.6573 65.8663 87.6748 65.9408 87.7238C66.0152 87.7729 66.0672 87.8495 66.0851 87.9368C66.1031 88.0242 66.0856 88.1151 66.0366 88.1896C65.9875 88.264 65.9109 88.316 65.8236 88.3339L65.5751 88.3866C64.5439 88.5899 63.5126 88.7856 62.5077 88.97L62.4475 88.9738ZM69.0566 87.6753C68.9698 87.6814 68.884 87.6534 68.8174 87.5974C68.7509 87.5413 68.7087 87.4616 68.6999 87.375C68.6911 87.2884 68.7163 87.2018 68.7703 87.1335C68.8242 87.0652 68.9026 87.0206 68.9889 87.0091C70.118 86.7795 71.2132 86.5386 72.2671 86.2864C72.3544 86.2661 72.4463 86.2812 72.5224 86.3285C72.5986 86.3758 72.653 86.4513 72.6736 86.5386C72.6836 86.5816 72.685 86.6262 72.6778 86.6697C72.6705 86.7133 72.6547 86.755 72.6313 86.7924C72.6078 86.8299 72.5772 86.8623 72.5412 86.8878C72.5052 86.9134 72.4645 86.9316 72.4214 86.9413C71.3638 87.1935 70.2535 87.4381 69.1244 87.6677L69.0566 87.6753ZM19.7892 86.7117C19.7419 86.7117 19.6952 86.702 19.6518 86.6833C19.6085 86.6645 19.5694 86.637 19.537 86.6026L19.4956 86.5537C18.6943 85.6766 18.2128 84.5546 18.1294 83.3695C18.1315 83.2848 18.1653 83.2038 18.2241 83.1428C18.283 83.0817 18.3626 83.0449 18.4473 83.0397C18.5319 83.0345 18.6154 83.0613 18.6813 83.1147C18.7472 83.1681 18.7907 83.2442 18.8031 83.3281C18.874 84.3685 19.2975 85.3536 20.0037 86.1208L20.0376 86.1585C20.0968 86.2247 20.1275 86.3115 20.1233 86.4002C20.1191 86.4889 20.0802 86.5724 20.015 86.6327C19.9522 86.6863 19.8717 86.7145 19.7892 86.7117ZM75.5679 86.1208C75.4876 86.1187 75.4107 86.088 75.3509 86.0344C75.291 85.9807 75.2522 85.9076 75.2414 85.828C75.2305 85.7484 75.2483 85.6675 75.2916 85.5998C75.3348 85.5321 75.4008 85.482 75.4776 85.4584C75.8539 85.3606 76.2077 85.2552 76.5653 85.1498C77.2954 84.9578 78.0106 84.7734 78.7257 84.5702C78.8115 84.5467 78.9032 84.5583 78.9805 84.6024C79.0577 84.6465 79.1143 84.7196 79.1378 84.8054C79.1613 84.8913 79.1497 84.9829 79.1055 85.0602C79.0614 85.1375 78.9884 85.1941 78.9026 85.2175C78.1875 85.417 77.4686 85.5939 76.7459 85.8009L75.6545 86.1095C75.6263 86.1172 75.5971 86.121 75.5679 86.1208ZM82.0528 84.3067C81.9722 84.3054 81.8947 84.2753 81.8343 84.222C81.7738 84.1686 81.7344 84.0955 81.7231 84.0157C81.7117 83.9358 81.7292 83.8546 81.7724 83.7865C81.8156 83.7185 81.8817 83.668 81.9587 83.6443C83.0352 83.3281 84.1154 82.9969 85.173 82.662C85.2557 82.6435 85.3423 82.6568 85.4158 82.6991C85.4892 82.7414 85.5441 82.8098 85.5696 82.8906C85.5951 82.9714 85.5894 83.0589 85.5536 83.1357C85.5178 83.2125 85.4545 83.2731 85.3762 83.3056C84.3148 83.6405 83.2309 83.9717 82.1469 84.2917C82.1188 84.3 82.0896 84.3038 82.0603 84.3029L82.0528 84.3067ZM88.4738 82.278C88.4037 82.2777 88.3355 82.2553 88.2788 82.2141C88.222 82.1729 88.1797 82.115 88.1576 82.0485C88.1409 82.0058 88.1331 81.9602 88.1346 81.9144C88.136 81.8686 88.1468 81.8236 88.1661 81.7821C88.1855 81.7406 88.213 81.7034 88.2472 81.6729C88.2813 81.6423 88.3212 81.619 88.3646 81.6043C89.426 81.2468 90.4949 80.8779 91.5375 80.5016C91.5792 80.4861 91.6236 80.479 91.6681 80.4809C91.7126 80.4827 91.7562 80.4934 91.7965 80.5123C91.8368 80.5313 91.8729 80.558 91.9028 80.5911C91.9326 80.6241 91.9556 80.6628 91.9703 80.7048C91.9994 80.7887 91.9944 80.8807 91.9564 80.9609C91.9184 81.0412 91.8504 81.1033 91.767 81.1339C90.717 81.5102 89.6443 81.8866 88.5792 82.2442C88.5482 82.259 88.5152 82.2691 88.4813 82.2743L88.4738 82.278ZM19.2209 80.4526C19.1684 80.4526 19.1167 80.4397 19.0703 80.415C19.0306 80.3955 18.9952 80.3681 18.9662 80.3347C18.9372 80.3012 18.9152 80.2623 18.9015 80.2202C18.8879 80.1781 18.8828 80.1336 18.8865 80.0895C18.8903 80.0454 18.9029 80.0025 18.9235 79.9633C19.4606 78.9455 20.126 78.0006 20.9033 77.1518C20.9324 77.1186 20.9677 77.0914 21.0073 77.0719C21.047 77.0524 21.0901 77.0409 21.1341 77.0381C21.1782 77.0353 21.2224 77.0413 21.2642 77.0556C21.3059 77.07 21.3445 77.0924 21.3775 77.1217C21.4443 77.1816 21.4846 77.2656 21.4896 77.3553C21.4945 77.4449 21.4637 77.5328 21.4039 77.5997C20.6659 78.4058 20.0336 79.3025 19.522 80.2682C19.494 80.3213 19.4524 80.366 19.4015 80.3977C19.3506 80.4295 19.2922 80.4471 19.2322 80.4489L19.2209 80.4526ZM94.8081 79.9972C94.7308 79.9949 94.6565 79.9661 94.5978 79.9158C94.539 79.8654 94.4993 79.7964 94.4852 79.7203C94.4712 79.6441 94.4836 79.5655 94.5204 79.4974C94.5573 79.4293 94.6163 79.3759 94.6877 79.3461C95.7416 78.9396 96.7954 78.5256 97.8116 78.1078C97.8524 78.091 97.8961 78.0824 97.9402 78.0825C97.9843 78.0826 98.0279 78.0913 98.0687 78.1083C98.1094 78.1252 98.1464 78.15 98.1775 78.1813C98.2086 78.2125 98.2333 78.2496 98.2501 78.2904C98.2669 78.3311 98.2755 78.3748 98.2754 78.4189C98.2753 78.463 98.2666 78.5067 98.2496 78.5474C98.2327 78.5881 98.2079 78.6251 98.1766 78.6562C98.1454 78.6874 98.1083 78.712 98.0676 78.7288C97.0438 79.1504 95.99 79.5682 94.9286 79.9746C94.8935 79.9871 94.8566 79.9934 94.8194 79.9935L94.8081 79.9972ZM101.041 77.4379C100.976 77.4374 100.912 77.4184 100.858 77.383C100.803 77.3477 100.759 77.2975 100.732 77.2384C100.714 77.1979 100.704 77.1542 100.703 77.1099C100.702 77.0656 100.71 77.0215 100.726 76.9802C100.742 76.9388 100.766 76.9011 100.797 76.8692C100.828 76.8373 100.865 76.8118 100.905 76.7943C101.944 76.3351 102.975 75.8646 103.962 75.3979C104.002 75.3791 104.045 75.3684 104.089 75.3664C104.133 75.3644 104.177 75.3711 104.219 75.3861C104.261 75.4011 104.299 75.4242 104.332 75.454C104.364 75.4838 104.391 75.5197 104.409 75.5598C104.428 75.5998 104.439 75.6431 104.441 75.6873C104.443 75.7315 104.436 75.7756 104.421 75.8172C104.406 75.8588 104.383 75.897 104.353 75.9297C104.324 75.9624 104.288 75.9889 104.248 76.0077C103.258 76.4781 102.223 76.9486 101.176 77.4078C101.137 77.424 101.095 77.4329 101.052 77.4341L101.041 77.4379ZM23.5831 75.3678C23.5143 75.3671 23.4474 75.3455 23.3913 75.3058C23.3351 75.2662 23.2923 75.2104 23.2687 75.1458C23.245 75.0813 23.2415 75.0111 23.2586 74.9445C23.2758 74.8779 23.3128 74.8182 23.3648 74.7731C24.1627 74.0881 25.066 73.3881 26.0445 72.688C26.0798 72.6553 26.1216 72.6306 26.1673 72.6155C26.2129 72.6004 26.2613 72.5953 26.309 72.6005C26.3568 72.6057 26.4029 72.6212 26.4442 72.6459C26.4855 72.6705 26.521 72.7037 26.5483 72.7433C26.5756 72.7829 26.594 72.8279 26.6024 72.8752C26.6107 72.9225 26.6088 72.9711 26.5967 73.0177C26.5846 73.0642 26.5627 73.1076 26.5324 73.1449C26.502 73.1822 26.464 73.2125 26.4209 73.2338C25.4574 73.9225 24.5729 74.6113 23.7863 75.285C23.7292 75.3337 23.6579 75.3627 23.5831 75.3678ZM107.138 74.5436C107.077 74.544 107.016 74.5273 106.964 74.4954C106.911 74.4635 106.869 74.4176 106.841 74.3629C106.8 74.2835 106.792 74.191 106.819 74.1057C106.845 74.0204 106.905 73.9491 106.984 73.9075C108.008 73.3843 109.001 72.8499 109.942 72.3192C110.02 72.2758 110.112 72.2651 110.198 72.2894C110.283 72.3138 110.356 72.3712 110.399 72.449C110.443 72.5269 110.454 72.6188 110.429 72.7046C110.405 72.7903 110.347 72.8629 110.27 72.9063C109.325 73.4408 108.324 73.979 107.292 74.5097C107.243 74.5323 107.189 74.5439 107.134 74.5436H107.138ZM29.0405 71.4422C28.9672 71.4428 28.8958 71.4193 28.8371 71.3754C28.7784 71.3315 28.7358 71.2695 28.7157 71.199C28.6957 71.1286 28.6992 71.0534 28.726 70.9852C28.7527 70.9169 28.801 70.8593 28.8636 70.8212C29.7782 70.2491 30.7455 69.6657 31.773 69.0974C31.8114 69.0754 31.8539 69.0612 31.8979 69.0557C31.9419 69.0503 31.9866 69.0536 32.0293 69.0655C32.072 69.0774 32.1119 69.0976 32.1468 69.1251C32.1816 69.1525 32.2106 69.1866 32.2321 69.2254C32.2756 69.3033 32.2866 69.3953 32.2626 69.4813C32.2386 69.5673 32.1817 69.6403 32.1042 69.6846C31.0955 70.2491 30.1282 70.8137 29.2211 71.3933C29.1664 71.4255 29.104 71.4424 29.0405 71.4422ZM112.998 71.2465C112.925 71.2479 112.853 71.2251 112.793 71.1814C112.734 71.1378 112.691 71.0759 112.67 71.0052C112.65 70.9345 112.653 70.859 112.68 70.7904C112.706 70.7217 112.755 70.6638 112.818 70.6255C113.804 70.0045 114.741 69.3797 115.599 68.7624C115.635 68.7364 115.676 68.7178 115.719 68.7077C115.762 68.6976 115.807 68.6962 115.851 68.7036C115.895 68.7109 115.936 68.7269 115.974 68.7506C116.012 68.7742 116.044 68.8051 116.07 68.8415C116.095 68.8772 116.114 68.9176 116.124 68.9606C116.134 69.0035 116.135 69.048 116.128 69.0915C116.121 69.1349 116.105 69.1765 116.081 69.2137C116.058 69.2509 116.027 69.283 115.991 69.3082C115.121 69.933 114.176 70.569 113.175 71.1901C113.121 71.2199 113.06 71.2342 112.998 71.2315V71.2465ZM34.9195 68.1188C34.8431 68.1206 34.7683 68.0962 34.7077 68.0496C34.6471 68.0031 34.6042 67.9372 34.5862 67.8629C34.5682 67.7887 34.5761 67.7105 34.6087 67.6413C34.6412 67.5722 34.6964 67.5162 34.7651 67.4828C35.7362 66.9822 36.7562 66.4816 37.7761 65.9773C37.8572 65.9395 37.9498 65.9348 38.0341 65.9644C38.1185 65.9939 38.188 66.0553 38.2278 66.1354C38.2468 66.1753 38.2577 66.2187 38.2599 66.263C38.262 66.3072 38.2554 66.3514 38.2403 66.3931C38.2253 66.4347 38.2021 66.473 38.1722 66.5056C38.1422 66.5383 38.1061 66.5646 38.0659 66.5832C37.0309 67.0763 36.0185 67.5731 35.055 68.0699C35.0134 68.0948 34.9674 68.1114 34.9195 68.1188ZM118.475 67.2871C118.426 67.2871 118.378 67.2763 118.335 67.2555C118.291 67.2346 118.253 67.2043 118.222 67.1666C118.193 67.1333 118.171 67.0946 118.157 67.0527C118.143 67.0108 118.137 66.9665 118.141 66.9225C118.144 66.8784 118.156 66.8353 118.175 66.7959C118.195 66.7564 118.223 66.7212 118.256 66.6924C118.595 66.4063 118.915 66.1165 119.216 65.8343C119.735 65.345 120.213 64.8557 120.635 64.3777C120.663 64.3397 120.698 64.3079 120.739 64.2844C120.78 64.2608 120.825 64.2461 120.872 64.2411C120.919 64.2361 120.967 64.241 121.012 64.2554C121.056 64.2698 121.098 64.2934 121.133 64.3247C121.168 64.356 121.197 64.3943 121.216 64.4372C121.236 64.4801 121.246 64.5266 121.247 64.5737C121.247 64.6209 121.238 64.6677 121.22 64.711C121.201 64.7544 121.174 64.7934 121.139 64.8256C120.703 65.3149 120.213 65.8192 119.679 66.3311C119.37 66.6209 119.039 66.9182 118.697 67.2118C118.629 67.2729 118.54 67.3052 118.448 67.3021L118.475 67.2871ZM122.807 62.1834C122.755 62.1835 122.703 62.1719 122.656 62.1495C122.577 62.1092 122.516 62.0392 122.488 61.9546C122.46 61.8701 122.466 61.7778 122.506 61.6979C122.659 61.3868 122.792 61.0662 122.905 60.7381C123.114 60.1547 123.225 59.5403 123.232 58.9203C123.232 58.8224 123.232 58.7245 123.232 58.6267C123.233 58.5416 123.266 58.4602 123.325 58.3985C123.383 58.3368 123.463 58.2993 123.548 58.2937C123.633 58.288 123.717 58.3144 123.783 58.3677C123.849 58.4211 123.893 58.4974 123.906 58.5815C123.906 58.6944 123.906 58.8073 123.906 58.9203C123.894 59.6152 123.767 60.3033 123.529 60.9564C123.409 61.3122 123.264 61.6592 123.096 61.9952C123.068 62.054 123.023 62.1032 122.967 62.1366C122.91 62.1701 122.846 62.1863 122.78 62.1834H122.807ZM122.261 56.0109C122.213 56.0106 122.166 56.0004 122.123 55.981C122.08 55.9615 122.041 55.9333 122.009 55.898C121.274 55.1044 120.393 54.4592 119.416 53.9973C119.336 53.9573 119.275 53.8873 119.247 53.8026C119.218 53.7179 119.225 53.6255 119.265 53.5456C119.305 53.4658 119.375 53.405 119.46 53.3768C119.544 53.3486 119.637 53.3552 119.717 53.3951C120.773 53.8965 121.723 54.5953 122.517 55.4538C122.575 55.5215 122.603 55.6092 122.597 55.6979C122.591 55.7866 122.55 55.8693 122.483 55.9281C122.422 55.9821 122.343 56.0116 122.261 56.0109ZM116.423 52.838C116.392 52.8417 116.36 52.8417 116.329 52.838C115.261 52.5348 114.176 52.291 113.081 52.1079C112.997 52.088 112.924 52.0368 112.876 51.9646C112.829 51.8925 112.81 51.8049 112.825 51.7198C112.84 51.6346 112.887 51.5584 112.956 51.5067C113.026 51.455 113.112 51.4318 113.198 51.4417C114.317 51.6332 115.425 51.8844 116.517 52.1944C116.594 52.2182 116.661 52.2686 116.704 52.3367C116.747 52.4047 116.764 52.486 116.753 52.5658C116.742 52.6456 116.702 52.7188 116.642 52.7721C116.581 52.8255 116.504 52.8555 116.423 52.8569V52.838ZM109.818 51.6412H109.784C108.726 51.5358 107.601 51.4568 106.446 51.4078C106.401 51.4064 106.358 51.3961 106.317 51.3777C106.277 51.3593 106.241 51.333 106.211 51.3005C106.181 51.2679 106.157 51.2297 106.142 51.188C106.127 51.1464 106.12 51.1021 106.122 51.0578C106.128 50.9693 106.167 50.8863 106.232 50.8261C106.298 50.7659 106.383 50.733 106.472 50.7341C107.643 50.7868 108.779 50.8658 109.859 50.9712C109.948 50.9757 110.032 51.0153 110.091 51.0813C110.151 51.1473 110.182 51.2343 110.177 51.3231C110.173 51.412 110.133 51.4954 110.067 51.555C110.001 51.6147 109.914 51.6457 109.825 51.6412H109.818ZM99.7274 51.3965C99.6442 51.3877 99.5672 51.3484 99.5112 51.2862C99.4552 51.224 99.4243 51.1433 99.4243 51.0597C99.4243 50.976 99.4552 50.8953 99.5112 50.8331C99.5672 50.7709 99.6442 50.7316 99.7274 50.7228C100.856 50.6814 101.986 50.6626 103.055 50.6626H103.107C103.19 50.6714 103.267 50.7107 103.323 50.7729C103.379 50.8351 103.41 50.9158 103.41 50.9995C103.41 51.0831 103.379 51.1638 103.323 51.226C103.267 51.2882 103.19 51.3275 103.107 51.3363H103.043C101.978 51.3363 100.868 51.3363 99.7424 51.3965H99.7274Z" fill="white"/>
<path d="M22.1604 72.1611C22.9084 72.0034 23.6864 72.0711 24.396 72.3555C25.1056 72.6399 25.7149 73.1284 26.1469 73.7591C26.5789 74.3898 26.8141 75.1344 26.8229 75.8988C26.8317 76.6632 26.6137 77.4131 26.1963 78.0536C25.779 78.6941 25.1811 79.1964 24.4783 79.4971C23.7754 79.7978 22.9992 79.8834 22.2478 79.743C21.4963 79.6025 20.8034 79.2424 20.2566 78.7082C19.7098 78.174 19.3337 77.4896 19.1758 76.7416C18.9651 75.7385 19.161 74.6928 19.7206 73.834C20.2802 72.9752 21.1577 72.3736 22.1604 72.1611Z" fill="#3A72EC"/>
<path opacity="0.2" d="M22.1604 72.1611C22.9084 72.0034 23.6864 72.0711 24.396 72.3555C25.1056 72.6399 25.7149 73.1284 26.1469 73.7591C26.5789 74.3898 26.8141 75.1344 26.8229 75.8988C26.8317 76.6632 26.6137 77.4131 26.1963 78.0536C25.779 78.6941 25.1811 79.1964 24.4783 79.4971C23.7754 79.7978 22.9992 79.8834 22.2478 79.743C21.4963 79.6025 20.8034 79.2424 20.2566 78.7082C19.7098 78.174 19.3337 77.4896 19.1758 76.7416C18.9651 75.7385 19.161 74.6928 19.7206 73.834C20.2802 72.9752 21.1577 72.3736 22.1604 72.1611Z" fill="white"/>
<path opacity="0.15" d="M25.3898 76.7491C24.7951 78.695 22.7928 79.5945 20.8733 79.188C21.3495 79.4964 21.8878 79.6961 22.4499 79.773C23.012 79.85 23.5841 79.8022 24.1256 79.6332C24.6672 79.4642 25.1649 79.178 25.5835 78.795C26.002 78.412 26.3311 77.9416 26.5474 77.4171C26.7637 76.8927 26.8619 76.327 26.8351 75.7603C26.8082 75.1936 26.6569 74.6398 26.392 74.1381C26.127 73.6365 25.7549 73.1993 25.302 72.8576C24.8491 72.5159 24.3265 72.2782 23.7714 72.1611C24.7801 72.4773 26.0221 74.6828 25.3898 76.7491Z" fill="white"/>
<path d="M96.1023 36.7369C96.9193 34.7646 95.9827 32.5035 94.0104 31.6866C92.0381 30.8696 89.777 31.8062 88.96 33.7785C88.1431 35.7508 89.0797 38.0119 91.052 38.8288C93.0242 39.6458 95.2854 38.7092 96.1023 36.7369Z" fill="#3A72EC"/>
<path opacity="0.5" d="M96.1023 36.7369C96.9193 34.7646 95.9827 32.5035 94.0104 31.6866C92.0381 30.8696 89.777 31.8062 88.96 33.7785C88.1431 35.7508 89.0797 38.0119 91.052 38.8288C93.0242 39.6458 95.2854 38.7092 96.1023 36.7369Z" fill="white"/>
<path opacity="0.35" d="M91.2401 37.4707C89.4599 36.4883 88.9819 34.343 89.7911 32.5327C89.3907 32.935 89.0838 33.4205 88.8923 33.9549C88.7007 34.4892 88.6292 35.0591 88.6828 35.6242C88.7364 36.1893 88.9138 36.7356 89.2023 37.2244C89.4909 37.7132 89.8836 38.1324 90.3524 38.4523C90.8213 38.7722 91.3549 38.9849 91.9153 39.0753C92.4756 39.1657 93.049 39.1316 93.5947 38.9754C94.1404 38.8192 94.645 38.5447 95.0726 38.1714C95.5003 37.7982 95.8405 37.3354 96.069 36.8158C95.5459 37.7567 93.1295 38.517 91.2401 37.4707Z" fill="white"/>
<path d="M116.514 89.5083C115.95 90.0245 115.245 90.3619 114.49 90.4779C113.734 90.5938 112.961 90.4831 112.268 90.1597C111.576 89.8363 110.994 89.3148 110.598 88.661C110.202 88.0073 110.008 87.2507 110.042 86.4869C110.076 85.7232 110.335 84.9865 110.787 84.3702C111.24 83.7539 111.865 83.2856 112.583 83.0244C113.302 82.7632 114.081 82.721 114.824 82.903C115.566 83.0851 116.238 83.4832 116.755 84.0471C117.097 84.4215 117.363 84.8597 117.536 85.3368C117.71 85.8139 117.788 86.3204 117.765 86.8276C117.743 87.3347 117.621 87.8324 117.406 88.2924C117.191 88.7523 116.888 89.1655 116.514 89.5083Z" fill="#3A72EC"/>
<path opacity="0.5" d="M116.514 89.5083C115.95 90.0245 115.245 90.3619 114.49 90.4779C113.734 90.5938 112.961 90.4831 112.268 90.1597C111.576 89.8363 110.994 89.3148 110.598 88.661C110.202 88.0073 110.008 87.2507 110.042 86.4869C110.076 85.7232 110.335 84.9865 110.787 84.3702C111.24 83.7539 111.865 83.2856 112.583 83.0244C113.302 82.7632 114.081 82.721 114.824 82.903C115.566 83.0851 116.238 83.4832 116.755 84.0471C117.097 84.4215 117.363 84.8597 117.536 85.3368C117.71 85.8139 117.788 86.3204 117.765 86.8276C117.743 87.3347 117.621 87.8324 117.406 88.2924C117.191 88.7523 116.888 89.1655 116.514 89.5083Z" fill="white"/>
<path opacity="0.35" d="M111.399 87.1935C110.921 85.2176 112.189 83.4298 114.064 82.79C113.497 82.7677 112.933 82.8703 112.411 83.0903C111.889 83.3103 111.422 83.6424 111.042 84.0632C110.662 84.4839 110.38 84.9829 110.215 85.5249C110.049 86.0669 110.005 86.6386 110.086 87.1995C110.166 87.7605 110.368 88.2969 110.679 88.7708C110.989 89.2448 111.4 89.6447 111.883 89.9422C112.365 90.2396 112.907 90.4275 113.47 90.4923C114.032 90.5572 114.603 90.4975 115.14 90.3175C114.097 90.5621 111.903 89.2937 111.399 87.1935Z" fill="white"/>
</svg>
