<svg width="500" height="500" viewBox="0 0 500 500" fill="none" xmlns="http://www.w3.org/2000/svg">
<path d="M442.383 290.977C441.846 296.348 436.914 299.033 432.715 301.475C428.809 303.721 424.902 306.016 421.045 308.262C414.795 311.875 408.594 315.488 402.344 319.102C394.531 323.643 386.768 328.184 378.955 332.676C370.361 337.656 361.768 342.686 353.125 347.666C344.482 352.695 335.84 357.725 327.148 362.754C319.189 367.393 311.279 371.982 303.32 376.621C296.826 380.381 290.381 384.141 283.887 387.9C279.639 390.342 275.391 392.832 271.143 395.273C267.92 397.129 264.893 398.984 261.23 400.059C251.709 402.793 241.162 401.865 232.568 396.885C229.492 395.078 226.367 393.32 223.291 391.514C217.627 388.242 212.012 385.02 206.348 381.748C198.926 377.451 191.504 373.154 184.082 368.906C175.635 364.023 167.139 359.141 158.691 354.258C149.951 349.229 141.211 344.15 132.471 339.121C124.219 334.336 115.967 329.6 107.666 324.814L86.5722 312.656C81.5429 309.727 76.4648 306.846 71.4355 303.916C69.1406 302.598 66.8456 301.279 64.5507 299.912C60.9374 297.812 57.373 294.492 57.373 290C57.373 294.102 57.373 298.203 57.3242 302.354C57.3242 303.818 57.2265 305.332 57.3242 306.846C57.6171 310.801 60.7421 313.877 64.0136 315.83C66.0156 317.051 68.0664 318.174 70.1171 319.346C75.3906 322.373 80.664 325.449 85.9374 328.477C93.5546 332.871 101.123 337.266 108.74 341.66C117.773 346.885 126.855 352.109 135.889 357.334C145.312 362.803 154.736 368.223 164.209 373.691C173.193 378.867 182.129 384.043 191.113 389.219C198.584 393.516 206.006 397.812 213.477 402.109C218.506 405.039 223.584 407.92 228.613 410.85C231.543 412.51 234.424 414.414 237.598 415.586C247.51 419.199 259.131 418.418 268.262 413.096C271.728 411.094 275.195 409.043 278.662 407.041C285.059 403.33 291.455 399.619 297.803 395.908C306.152 391.074 314.453 386.24 322.803 381.357C332.129 375.937 341.455 370.518 350.732 365.098L378.711 348.838C387.061 343.955 395.41 339.121 403.809 334.238C410.303 330.479 416.797 326.719 423.291 322.91C426.855 320.811 430.469 318.76 434.033 316.66C435.107 316.025 436.23 315.391 437.256 314.658C439.99 312.607 442.139 309.775 442.187 306.211C442.236 304.404 442.187 302.646 442.187 300.84C442.187 297.275 442.187 293.662 442.236 290.098C442.432 290.439 442.432 290.732 442.383 290.977C442.432 290.879 442.383 291.074 442.383 290.977Z" fill="#111212"/>
<path d="M287.207 145.02C287.305 145.02 287.354 144.971 287.402 144.971H287.598C287.646 144.971 287.744 145.02 287.793 145.02L279.98 140.479C279.98 140.479 279.932 140.479 279.932 140.43C279.932 140.43 279.883 140.43 279.883 140.381H279.639H279.59H279.541C279.492 140.381 279.443 140.381 279.443 140.43H279.395H279.346H279.297C279.248 140.479 279.15 140.479 279.102 140.527L143.115 219.092L150.928 223.633L286.914 145.117C287.012 145.068 287.109 145.068 287.207 145.02ZM149.805 303.711L149.561 225.928L141.748 221.387L141.992 299.17C141.992 301.514 142.822 303.125 144.141 303.906L151.953 308.447C150.635 307.666 149.805 306.055 149.805 303.711ZM149.707 225.293C149.756 225.049 149.854 224.854 150 224.658C150.098 224.463 150.244 224.268 150.391 224.121C150.537 223.975 150.732 223.828 150.879 223.73L143.066 219.189C142.92 219.287 142.773 219.385 142.627 219.531L142.578 219.58L142.529 219.629C142.48 219.678 142.432 219.727 142.432 219.775C142.383 219.824 142.383 219.873 142.334 219.873C142.285 219.922 142.285 219.971 142.236 219.971C142.236 220.02 142.188 220.068 142.188 220.068C142.188 220.117 142.139 220.117 142.139 220.166C142.139 220.215 142.09 220.264 142.09 220.264C142.09 220.312 142.041 220.361 142.041 220.361C142.041 220.41 141.992 220.459 141.992 220.459C141.992 220.508 141.943 220.557 141.943 220.605V220.703C141.943 220.752 141.895 220.801 141.895 220.85C141.895 220.898 141.895 220.996 141.846 221.045V221.289L149.658 225.83C149.609 225.732 149.609 225.537 149.707 225.293Z" fill="#535354"/>
<path d="M286.914 145.117C287.646 144.678 288.232 145.02 288.232 145.898L288.477 223.682C288.477 228.369 285.156 234.082 281.104 236.475L157.227 307.959C153.174 310.303 149.805 308.399 149.805 303.711L149.561 225.928C149.561 225.098 150.146 224.072 150.879 223.633L286.914 145.117Z" fill="#111212"/>
<path d="M281.982 107.422C282.178 107.373 282.324 107.275 282.52 107.227C282.617 107.178 282.764 107.178 282.861 107.129C282.959 107.08 283.057 107.08 283.154 107.08C283.301 107.031 283.398 107.031 283.545 107.031H284.375C284.57 107.031 284.766 107.08 284.912 107.08C284.961 107.08 285.01 107.08 285.059 107.129C285.205 107.178 285.352 107.178 285.449 107.227C285.498 107.227 285.547 107.275 285.596 107.275C285.742 107.324 285.938 107.422 286.084 107.52L278.272 102.979H278.223C278.125 102.93 277.979 102.832 277.832 102.783C277.832 102.783 277.783 102.783 277.783 102.734C277.734 102.734 277.686 102.686 277.637 102.686C277.588 102.686 277.49 102.637 277.441 102.637C277.393 102.637 277.295 102.588 277.246 102.588C277.197 102.588 277.148 102.588 277.1 102.539H277.002C276.855 102.49 276.709 102.49 276.563 102.49H275.488C275.439 102.49 275.391 102.539 275.293 102.539C275.195 102.539 275.098 102.588 275 102.588C274.951 102.588 274.902 102.588 274.854 102.637C274.805 102.637 274.756 102.686 274.707 102.686C274.512 102.734 274.365 102.783 274.17 102.881C274.121 102.881 274.023 102.93 273.975 102.93C273.926 102.93 273.926 102.979 273.877 102.979C273.584 103.125 273.291 103.271 272.949 103.418L254.053 114.307L261.865 118.848L280.762 107.959C281.055 107.764 281.397 107.617 281.689 107.52C281.787 107.471 281.885 107.422 281.982 107.422Z" fill="#535354"/>
<path d="M251.758 101.074C251.611 100.977 251.465 100.928 251.318 100.879C251.318 100.879 251.27 100.879 251.221 100.83C251.172 100.83 251.123 100.781 251.074 100.781C251.025 100.781 250.928 100.732 250.879 100.732C250.83 100.732 250.732 100.684 250.684 100.684C250.635 100.684 250.586 100.684 250.537 100.635H250.439C250.293 100.586 250.146 100.586 249.951 100.586H248.877C248.828 100.586 248.73 100.635 248.682 100.635C248.584 100.635 248.486 100.684 248.389 100.684C248.34 100.684 248.291 100.684 248.193 100.732C248.145 100.732 248.096 100.781 248.047 100.781C247.852 100.83 247.705 100.879 247.51 100.977C247.461 101.025 247.363 101.025 247.314 101.025C247.266 101.025 247.266 101.074 247.217 101.074C246.924 101.221 246.582 101.367 246.24 101.562L245.508 102.002C245.41 102.051 245.361 102.1 245.264 102.148C245.117 102.246 244.922 102.393 244.775 102.49C244.678 102.539 244.58 102.637 244.531 102.686C244.385 102.832 244.238 102.93 244.092 103.076C243.994 103.174 243.896 103.223 243.848 103.32L243.701 103.467C243.652 103.516 243.604 103.564 243.555 103.662L243.018 104.199L242.871 104.346L242.725 104.492C242.627 104.59 242.529 104.736 242.432 104.883C242.383 104.98 242.285 105.029 242.236 105.127C242.187 105.176 242.139 105.273 242.09 105.322C241.992 105.42 241.943 105.518 241.895 105.615C241.846 105.664 241.797 105.762 241.748 105.811C241.65 105.908 241.602 106.055 241.504 106.152C241.455 106.25 241.406 106.299 241.357 106.396C241.357 106.445 241.309 106.445 241.309 106.494C241.162 106.689 241.016 106.934 240.918 107.129V107.178C240.869 107.227 240.869 107.275 240.82 107.324C240.723 107.471 240.625 107.617 240.576 107.813C240.527 107.861 240.479 107.959 240.479 108.008C240.43 108.105 240.381 108.154 240.381 108.252C240.332 108.301 240.332 108.398 240.283 108.447C240.186 108.643 240.137 108.789 240.039 108.984C240.039 109.033 239.99 109.082 239.99 109.082V109.131C239.893 109.375 239.795 109.57 239.697 109.814C239.697 109.863 239.648 109.912 239.648 109.912C239.6 110.01 239.6 110.059 239.551 110.156C239.502 110.254 239.453 110.4 239.404 110.498C239.355 110.596 239.355 110.693 239.307 110.742C239.258 110.84 239.258 110.937 239.209 111.084C239.209 111.133 239.16 111.23 239.16 111.279C239.111 111.377 239.111 111.523 239.062 111.621C239.014 111.768 239.014 111.865 238.965 112.012C238.965 112.061 238.916 112.109 238.916 112.158C238.916 112.256 238.867 112.354 238.867 112.451C238.818 112.646 238.77 112.842 238.77 113.037C238.77 113.086 238.77 113.135 238.721 113.232V113.379C238.672 113.818 238.623 114.258 238.623 114.697V122.998L246.436 127.539V119.238C246.436 118.799 246.484 118.359 246.533 117.92C246.533 117.822 246.533 117.676 246.582 117.578C246.631 117.383 246.631 117.188 246.68 116.992C246.729 116.846 246.729 116.699 246.777 116.553C246.826 116.406 246.826 116.309 246.875 116.162C246.924 115.967 246.973 115.82 247.021 115.625C247.07 115.527 247.07 115.43 247.119 115.283C247.168 115.088 247.266 114.893 247.314 114.648C247.363 114.551 247.363 114.502 247.412 114.404C247.51 114.111 247.656 113.818 247.754 113.574C247.754 113.525 247.803 113.477 247.803 113.477C247.9 113.232 248.047 112.988 248.145 112.744C248.193 112.646 248.242 112.598 248.242 112.5C248.34 112.256 248.486 112.061 248.633 111.816C248.682 111.768 248.682 111.719 248.73 111.67C248.877 111.426 249.072 111.133 249.219 110.889C249.268 110.791 249.316 110.742 249.365 110.693C249.512 110.498 249.609 110.303 249.756 110.156C249.805 110.059 249.902 109.961 249.951 109.863C250.049 109.717 250.195 109.57 250.293 109.424C250.391 109.277 250.488 109.18 250.586 109.033C250.684 108.936 250.781 108.789 250.879 108.691C251.025 108.496 251.221 108.301 251.367 108.154L251.709 107.813C251.807 107.715 251.904 107.666 251.953 107.568C252.1 107.422 252.246 107.324 252.393 107.178C252.49 107.129 252.588 107.031 252.637 106.982C252.783 106.836 252.979 106.738 253.125 106.641C253.223 106.592 253.271 106.543 253.369 106.494C253.613 106.348 253.857 106.152 254.102 106.006C254.443 105.811 254.736 105.664 255.078 105.518C255.176 105.469 255.273 105.42 255.371 105.42C255.566 105.371 255.713 105.273 255.908 105.225C256.006 105.176 256.152 105.176 256.25 105.127C256.348 105.078 256.445 105.078 256.543 105.078C256.689 105.029 256.836 105.029 256.934 105.029H257.764C257.959 105.029 258.154 105.078 258.35 105.078C258.398 105.078 258.447 105.078 258.496 105.127L258.936 105.273C258.984 105.273 259.033 105.322 259.082 105.322C259.277 105.371 259.424 105.469 259.57 105.566L251.758 101.074ZM191.162 159.668L183.35 155.127L238.623 123.242L246.436 127.783L191.162 159.668Z" fill="#535354"/>
<path d="M175.879 158.594C175.928 158.398 175.928 158.203 175.977 158.008C176.025 157.861 176.025 157.715 176.074 157.568C176.123 157.422 176.123 157.324 176.172 157.178C176.221 156.982 176.27 156.836 176.318 156.641C176.367 156.543 176.367 156.445 176.416 156.299C176.465 156.104 176.563 155.908 176.611 155.664C176.66 155.566 176.66 155.518 176.709 155.42C176.807 155.127 176.953 154.834 177.051 154.59C177.051 154.541 177.1 154.541 177.1 154.492C177.197 154.248 177.344 154.004 177.441 153.76C177.49 153.662 177.539 153.613 177.539 153.516C177.637 153.271 177.783 153.076 177.93 152.832C177.979 152.783 177.979 152.734 178.027 152.686C178.174 152.441 178.369 152.148 178.516 151.904C178.564 151.807 178.613 151.758 178.662 151.709C178.809 151.514 178.906 151.318 179.053 151.172C179.102 151.074 179.199 150.977 179.248 150.879C179.346 150.732 179.492 150.586 179.59 150.439C179.688 150.293 179.785 150.195 179.883 150.049C179.98 149.951 180.078 149.805 180.176 149.707C180.322 149.512 180.518 149.316 180.664 149.17L181.006 148.828C181.104 148.73 181.201 148.682 181.25 148.584C181.396 148.437 181.543 148.34 181.689 148.193C181.787 148.145 181.885 148.047 181.934 147.998C182.08 147.852 182.275 147.754 182.422 147.656C182.52 147.607 182.568 147.559 182.666 147.51C182.91 147.363 183.154 147.168 183.398 147.021C183.74 146.826 184.033 146.68 184.375 146.533C184.473 146.484 184.57 146.436 184.668 146.436C184.863 146.387 185.01 146.289 185.205 146.24C185.303 146.191 185.449 146.191 185.547 146.143C185.645 146.094 185.742 146.094 185.84 146.094C185.986 146.045 186.133 146.045 186.23 146.045H187.061C187.256 146.045 187.451 146.094 187.646 146.094C187.695 146.094 187.744 146.094 187.793 146.143L188.232 146.289C188.281 146.289 188.33 146.338 188.379 146.338C188.574 146.387 188.721 146.484 188.867 146.582L181.055 142.041H181.006C180.859 141.992 180.762 141.895 180.615 141.846C180.615 141.846 180.566 141.846 180.518 141.797C180.469 141.797 180.42 141.748 180.371 141.748C180.322 141.748 180.225 141.699 180.176 141.699C180.127 141.699 180.029 141.65 179.98 141.65C179.932 141.65 179.883 141.65 179.834 141.602H179.736C179.59 141.553 179.443 141.553 179.248 141.553H178.125C178.076 141.553 177.979 141.602 177.93 141.602C177.832 141.602 177.734 141.65 177.637 141.65C177.588 141.65 177.539 141.65 177.441 141.699C177.393 141.699 177.344 141.748 177.295 141.748C177.1 141.797 176.953 141.846 176.758 141.943C176.709 141.992 176.611 141.992 176.563 141.992C176.514 141.992 176.514 142.041 176.465 142.041C176.172 142.187 175.83 142.334 175.488 142.529C175.244 142.676 175 142.822 174.756 143.018C174.658 143.066 174.609 143.115 174.512 143.164C174.365 143.262 174.17 143.408 174.023 143.506C173.926 143.555 173.828 143.652 173.779 143.701C173.633 143.848 173.486 143.945 173.34 144.092C173.242 144.189 173.145 144.238 173.096 144.336L172.949 144.482C172.9 144.531 172.852 144.58 172.803 144.678C172.607 144.873 172.461 145.02 172.314 145.215C172.266 145.264 172.217 145.312 172.168 145.41L172.021 145.557C171.924 145.654 171.826 145.801 171.729 145.947C171.68 146.045 171.582 146.094 171.533 146.191C171.484 146.24 171.436 146.338 171.387 146.387C171.289 146.484 171.24 146.582 171.191 146.68C171.143 146.729 171.094 146.826 171.045 146.875C170.947 146.973 170.898 147.119 170.801 147.217C170.752 147.314 170.703 147.363 170.654 147.461C170.654 147.51 170.605 147.51 170.605 147.559C170.459 147.754 170.313 147.998 170.215 148.193C170.215 148.193 170.215 148.242 170.166 148.242C170.117 148.291 170.117 148.34 170.068 148.389C169.971 148.535 169.873 148.682 169.824 148.877C169.775 148.926 169.775 149.023 169.727 149.072C169.678 149.17 169.629 149.219 169.629 149.316C169.58 149.365 169.58 149.463 169.531 149.512C169.434 149.707 169.385 149.854 169.287 150.049C169.287 150.098 169.238 150.146 169.238 150.146V150.195C169.141 150.439 169.043 150.635 168.945 150.879C168.945 150.928 168.896 150.977 168.896 150.977C168.848 151.074 168.848 151.123 168.799 151.221C168.75 151.318 168.701 151.465 168.652 151.562C168.604 151.66 168.604 151.758 168.555 151.807C168.506 151.904 168.506 152.002 168.457 152.148C168.457 152.197 168.408 152.295 168.408 152.344C168.359 152.441 168.359 152.588 168.311 152.686C168.262 152.832 168.262 152.93 168.213 153.076C168.213 153.125 168.164 153.174 168.164 153.223C168.164 153.32 168.115 153.418 168.115 153.516C168.066 153.711 168.018 153.906 168.018 154.102C168.018 154.15 168.018 154.199 167.969 154.297V154.443C167.92 154.883 167.871 155.322 167.871 155.762V164.063L175.684 168.604V160.303C175.684 159.863 175.732 159.424 175.781 158.984C175.83 158.838 175.879 158.74 175.879 158.594Z" fill="#535354"/>
<path d="M254.102 106.152C258.35 103.711 261.816 105.713 261.816 110.547V118.848L280.713 107.959C284.766 105.615 288.135 107.52 288.135 112.158L288.184 136.914L149.512 216.992L149.463 192.236C149.463 187.549 152.783 181.836 156.836 179.492L175.732 168.604V160.303C175.732 155.42 179.199 149.463 183.398 147.022C187.646 144.58 191.113 146.533 191.113 151.416V159.717L246.387 127.783V119.482C246.436 114.6 249.854 108.594 254.102 106.152Z" fill="#111212"/>
<path d="M167.969 164.062L149.072 174.951C148.682 175.195 148.291 175.439 147.949 175.732C147.9 175.781 147.803 175.83 147.754 175.879C147.412 176.172 147.07 176.465 146.729 176.807L146.631 176.904L146.484 177.051C146.338 177.197 146.143 177.393 145.996 177.588L145.85 177.734L145.703 177.881C145.605 177.979 145.508 178.125 145.41 178.223C145.361 178.32 145.264 178.369 145.215 178.467C145.166 178.516 145.117 178.613 145.068 178.662C145.02 178.76 144.922 178.857 144.873 178.955C144.824 179.004 144.775 179.102 144.727 179.15C144.629 179.248 144.58 179.395 144.482 179.492C144.434 179.541 144.385 179.639 144.336 179.688C144.336 179.736 144.287 179.736 144.287 179.785C144.141 179.98 144.043 180.225 143.896 180.42V180.469C143.896 180.518 143.848 180.566 143.848 180.615C143.75 180.762 143.652 180.908 143.604 181.104C143.555 181.152 143.555 181.25 143.506 181.299C143.457 181.396 143.408 181.445 143.408 181.543C143.359 181.592 143.359 181.689 143.311 181.738C143.213 181.885 143.164 182.08 143.066 182.227C143.066 182.275 143.018 182.324 143.018 182.324V182.373C142.92 182.617 142.822 182.812 142.725 183.057C142.725 183.105 142.676 183.154 142.676 183.154C142.627 183.252 142.627 183.301 142.578 183.398C142.529 183.496 142.48 183.643 142.432 183.74C142.383 183.838 142.383 183.887 142.334 183.984C142.285 184.082 142.285 184.18 142.236 184.277C142.236 184.326 142.188 184.424 142.188 184.473C142.139 184.57 142.139 184.668 142.09 184.814C142.041 184.961 142.041 185.059 141.992 185.205C141.992 185.254 141.943 185.303 141.943 185.352C141.943 185.449 141.895 185.547 141.895 185.645C141.846 185.84 141.846 186.035 141.797 186.23C141.797 186.279 141.797 186.328 141.748 186.377V186.523C141.699 186.963 141.65 187.402 141.65 187.793L141.699 212.549L149.512 217.09L149.463 192.334C149.463 191.895 149.512 191.504 149.561 191.064C149.561 190.967 149.561 190.869 149.609 190.723C149.658 190.527 149.658 190.332 149.707 190.137C149.756 189.99 149.756 189.844 149.805 189.746C149.854 189.6 149.854 189.502 149.902 189.355C149.951 189.16 150 189.014 150.049 188.818C150.098 188.721 150.098 188.623 150.146 188.525C150.195 188.33 150.293 188.135 150.342 187.939C150.391 187.842 150.391 187.793 150.439 187.695C150.537 187.402 150.635 187.158 150.781 186.865C150.781 186.816 150.83 186.768 150.83 186.768C150.928 186.523 151.025 186.279 151.172 186.084C151.221 185.986 151.27 185.938 151.27 185.84C151.367 185.596 151.514 185.4 151.611 185.156C151.611 185.107 151.66 185.059 151.66 185.01C151.807 184.766 151.953 184.521 152.148 184.229C152.197 184.18 152.246 184.082 152.295 184.033C152.393 183.838 152.539 183.691 152.686 183.496C152.734 183.398 152.832 183.301 152.881 183.203C152.979 183.057 153.125 182.91 153.223 182.764C153.32 182.666 153.418 182.52 153.516 182.422C153.613 182.324 153.711 182.227 153.809 182.08C153.955 181.885 154.15 181.738 154.297 181.543L154.541 181.299C154.883 180.957 155.225 180.664 155.566 180.371C155.615 180.322 155.713 180.273 155.762 180.225C156.152 179.932 156.494 179.688 156.885 179.443L175.781 168.555L167.969 164.062Z" fill="#535354"/>
<path d="M188.037 248.975C190.332 247.656 192.236 248.73 192.236 251.367V259.521C192.236 262.158 190.381 265.43 188.037 266.748L172.168 275.879C169.873 277.197 167.969 276.123 167.969 273.486V265.332C167.969 262.695 169.824 259.424 172.168 258.105L188.037 248.975ZM187.939 218.945C190.234 217.627 192.139 218.701 192.139 221.338V229.492C192.139 232.129 190.283 235.4 187.939 236.719L172.07 245.85C169.775 247.168 167.871 246.094 167.871 243.457V235.303C167.871 232.666 169.727 229.394 172.07 228.076L187.939 218.945ZM224.512 227.93C226.807 226.611 228.711 227.686 228.711 230.322V238.477C228.711 241.113 226.855 244.385 224.512 245.703L208.691 254.883C206.396 256.201 204.492 255.127 204.492 252.49V244.336C204.492 241.699 206.348 238.428 208.643 237.109L224.512 227.93ZM224.414 197.9C226.709 196.582 228.613 197.656 228.613 200.293V208.447C228.613 211.084 226.758 214.355 224.414 215.674L208.545 224.805C206.25 226.123 204.346 225.049 204.346 222.412V214.258C204.346 211.621 206.201 208.35 208.496 207.031L224.414 197.9ZM260.938 206.885C263.232 205.566 265.137 206.641 265.137 209.277V217.432C265.137 220.068 263.281 223.34 260.938 224.658L245.068 233.789C242.773 235.107 240.869 234.033 240.869 231.396V223.242C240.869 220.605 242.725 217.334 245.068 216.016L260.938 206.885ZM260.889 176.855C263.184 175.537 265.088 176.611 265.088 179.248V187.402C265.088 190.039 263.232 193.311 260.889 194.629L245.02 203.76C242.725 205.078 240.82 204.004 240.82 201.367V193.213C240.82 190.576 242.676 187.305 245.02 185.986L260.889 176.855Z" fill="#1C2222"/>
<path d="M193.115 252.49C193.018 252.441 192.969 252.393 192.871 252.393C192.822 252.344 192.725 252.344 192.627 252.295C192.578 252.295 192.529 252.295 192.48 252.246H192.432H192.383C192.285 252.246 192.236 252.246 192.139 252.197H191.748H191.553C191.455 252.197 191.309 252.246 191.162 252.295C191.113 252.295 191.064 252.344 191.016 252.344C190.967 252.344 190.918 252.393 190.869 252.393C190.82 252.393 190.723 252.441 190.674 252.441L190.088 252.734L174.219 261.865C173.975 262.012 173.682 262.207 173.438 262.402C173.34 262.451 173.291 262.549 173.193 262.598C173.096 262.695 172.949 262.793 172.852 262.939C172.803 262.988 172.754 263.037 172.705 263.135L172.559 263.281L172.412 263.428C172.314 263.574 172.168 263.721 172.07 263.867C172.021 263.916 171.973 263.965 171.973 264.014C171.973 264.063 171.924 264.063 171.924 264.111C171.875 264.16 171.875 264.209 171.826 264.258C171.729 264.355 171.68 264.502 171.582 264.6C171.484 264.697 171.436 264.844 171.387 264.941V265.039L171.24 265.332C171.191 265.43 171.094 265.576 171.045 265.674L170.898 265.967V266.016C170.85 266.162 170.801 266.26 170.752 266.406C170.703 266.553 170.654 266.65 170.605 266.797C170.605 266.846 170.557 266.943 170.557 266.992C170.557 267.041 170.557 267.041 170.508 267.09C170.508 267.139 170.459 267.187 170.459 267.236C170.41 267.383 170.361 267.578 170.361 267.725C170.361 267.822 170.312 267.92 170.312 268.018C170.312 268.066 170.313 268.115 170.264 268.164C170.264 268.213 170.264 268.262 170.215 268.311C170.166 268.604 170.166 268.848 170.166 269.141V277.295C170.166 278.613 170.654 279.541 171.387 279.98L177.1 283.301C176.367 282.861 175.879 281.934 175.879 280.615V272.461C175.879 272.168 175.928 271.826 175.977 271.484C175.977 271.436 175.977 271.387 176.025 271.338C176.074 271.045 176.123 270.752 176.221 270.41C176.221 270.361 176.221 270.361 176.27 270.312C176.367 269.971 176.514 269.629 176.611 269.336V269.287C176.758 268.945 176.904 268.652 177.1 268.311V268.262L177.686 267.383C177.686 267.334 177.734 267.334 177.734 267.285C177.93 267.041 178.125 266.797 178.369 266.553L178.516 266.406C178.662 266.211 178.857 266.064 179.053 265.918C179.15 265.869 179.199 265.771 179.297 265.723C179.541 265.527 179.834 265.332 180.078 265.186L195.947 256.055C196.191 255.908 196.484 255.811 196.729 255.713C196.777 255.713 196.826 255.664 196.875 255.664C197.119 255.566 197.363 255.518 197.559 255.518H197.607C197.852 255.518 198.047 255.518 198.291 255.566H198.34C198.535 255.615 198.779 255.664 198.926 255.811L193.115 252.49Z" fill="#535354"/>
<path d="M195.85 256.055C198.145 254.736 200.049 255.811 200.049 258.447V266.602C200.049 269.238 198.193 272.51 195.85 273.828L179.98 282.959C177.686 284.277 175.781 283.203 175.781 280.566V272.412C175.781 269.775 177.637 266.504 179.98 265.186L195.85 256.055Z" fill="white"/>
<path d="M171.289 249.951L177.002 253.271C176.27 252.832 175.781 251.904 175.781 250.586V242.432L170.068 239.111V247.266C170.068 248.584 170.508 249.512 171.289 249.951Z" fill="#535354"/>
<path d="M193.018 222.461C193.018 222.412 193.018 222.412 193.018 222.461C192.92 222.412 192.871 222.363 192.773 222.363C192.725 222.314 192.627 222.314 192.529 222.266C192.48 222.266 192.432 222.266 192.383 222.217H192.334H192.285C192.188 222.217 192.139 222.217 192.041 222.168H191.65H191.455C191.357 222.168 191.211 222.217 191.064 222.266C191.016 222.266 190.967 222.314 190.918 222.314C190.869 222.314 190.82 222.363 190.771 222.363C190.723 222.363 190.625 222.412 190.576 222.412L189.99 222.705L174.121 231.836C173.877 231.982 173.584 232.178 173.34 232.373C173.242 232.422 173.193 232.52 173.096 232.568C172.949 232.666 172.852 232.764 172.754 232.91C172.705 232.959 172.656 233.008 172.607 233.105L172.461 233.252L172.314 233.398C172.217 233.545 172.07 233.691 171.973 233.838C171.924 233.887 171.875 233.936 171.875 233.984C171.875 234.033 171.826 234.033 171.826 234.082C171.777 234.131 171.777 234.18 171.729 234.229C171.631 234.326 171.582 234.473 171.484 234.57C171.387 234.668 171.338 234.814 171.289 234.912V235.01L171.143 235.303C171.094 235.4 170.996 235.547 170.947 235.645C170.898 235.742 170.85 235.84 170.801 235.986V236.035C170.752 236.182 170.703 236.279 170.654 236.426C170.605 236.572 170.557 236.67 170.508 236.816C170.508 236.865 170.459 236.963 170.459 237.012C170.459 237.061 170.459 237.061 170.41 237.109C170.41 237.158 170.361 237.207 170.361 237.256C170.313 237.402 170.264 237.598 170.264 237.744C170.264 237.842 170.215 237.939 170.215 238.037C170.215 238.086 170.215 238.135 170.166 238.184C170.166 238.232 170.166 238.281 170.117 238.33C170.068 238.623 170.068 238.867 170.068 239.16L175.781 242.48C175.781 242.188 175.83 241.846 175.879 241.504C175.879 241.455 175.879 241.406 175.928 241.357C175.977 241.064 176.025 240.771 176.123 240.43C176.123 240.381 176.123 240.381 176.172 240.332C176.27 239.99 176.416 239.648 176.514 239.355C176.66 239.014 176.807 238.672 177.002 238.379V238.33L177.588 237.451C177.588 237.402 177.637 237.402 177.637 237.354C177.832 237.109 178.027 236.865 178.271 236.621L178.418 236.475C178.564 236.279 178.76 236.133 178.955 235.986C179.053 235.937 179.102 235.84 179.199 235.791C179.443 235.596 179.736 235.4 179.98 235.254L195.85 226.123C196.094 225.977 196.387 225.879 196.631 225.781C196.68 225.781 196.729 225.732 196.777 225.732C197.021 225.635 197.266 225.586 197.461 225.586H197.51C197.754 225.586 197.949 225.586 198.193 225.635H198.242C198.438 225.684 198.682 225.732 198.828 225.879L193.018 222.461Z" fill="#535354"/>
<path d="M195.752 226.025C198.047 224.707 199.951 225.781 199.951 228.418V236.572C199.951 239.209 198.096 242.48 195.752 243.799L179.883 252.93C177.588 254.248 175.684 253.174 175.684 250.537V242.383C175.684 239.746 177.539 236.475 179.883 235.156L195.752 226.025Z" fill="white"/>
<path d="M212.305 259.57L206.592 256.25C206.592 257.568 207.08 258.496 207.812 258.936L213.525 262.256C212.744 261.816 212.305 260.889 212.305 259.57ZM229.59 231.445C229.541 231.396 229.541 231.396 229.59 231.445C229.492 231.396 229.443 231.348 229.346 231.348C229.297 231.299 229.199 231.299 229.102 231.25C229.053 231.25 229.004 231.25 228.955 231.201H228.906H228.857C228.76 231.201 228.711 231.201 228.613 231.152H228.223H228.027C227.93 231.152 227.783 231.201 227.637 231.25C227.588 231.25 227.539 231.299 227.49 231.299C227.441 231.299 227.393 231.348 227.344 231.348C227.295 231.348 227.197 231.396 227.148 231.396L226.562 231.689L210.693 240.82C210.449 240.967 210.156 241.162 209.912 241.357C209.814 241.406 209.766 241.504 209.668 241.553C209.57 241.65 209.424 241.748 209.326 241.895C209.277 241.943 209.229 241.992 209.18 242.09L209.033 242.236L208.887 242.383C208.789 242.529 208.643 242.676 208.545 242.773C208.496 242.822 208.447 242.871 208.447 242.92C208.447 242.969 208.398 242.969 208.398 243.018C208.35 243.066 208.35 243.115 208.301 243.164C208.203 243.262 208.154 243.408 208.057 243.506C207.959 243.604 207.91 243.75 207.861 243.848V243.945L207.715 244.238C207.666 244.336 207.568 244.482 207.52 244.58C207.471 244.678 207.422 244.775 207.373 244.922C207.324 245.068 207.275 245.166 207.227 245.312C207.178 245.459 207.129 245.557 207.08 245.703C207.08 245.752 207.031 245.85 207.031 245.898C207.031 245.947 207.031 245.947 206.982 245.996C206.982 246.045 206.934 246.094 206.934 246.143C206.885 246.289 206.836 246.484 206.836 246.631C206.836 246.729 206.787 246.826 206.787 246.924C206.787 246.973 206.787 247.021 206.738 247.07C206.738 247.119 206.738 247.168 206.689 247.217C206.641 247.51 206.641 247.754 206.641 248.047V256.201L212.354 259.521V251.367C212.354 251.074 212.402 250.732 212.451 250.391C212.451 250.342 212.451 250.293 212.5 250.244C212.549 249.951 212.598 249.658 212.695 249.316C212.695 249.268 212.695 249.268 212.744 249.219C212.842 248.877 212.988 248.535 213.086 248.242C213.232 247.9 213.379 247.559 213.574 247.266V247.217L214.16 246.338C214.16 246.289 214.209 246.289 214.209 246.24C214.404 245.996 214.6 245.752 214.844 245.508L214.99 245.361C215.137 245.166 215.332 245.02 215.527 244.873C215.625 244.824 215.674 244.727 215.771 244.678C216.016 244.482 216.309 244.287 216.553 244.141L232.422 235.01C232.666 234.863 232.959 234.766 233.203 234.668C233.252 234.668 233.301 234.619 233.35 234.619C233.594 234.521 233.838 234.473 234.033 234.473H234.082C234.326 234.473 234.521 234.473 234.766 234.521H234.814C235.01 234.57 235.254 234.619 235.4 234.766L229.59 231.445Z" fill="#535354"/>
<path d="M232.275 235.01C234.57 233.691 236.475 234.766 236.475 237.402V245.557C236.475 248.193 234.619 251.465 232.275 252.783L216.406 261.914C214.111 263.232 212.207 262.158 212.207 259.521V251.367C212.207 248.73 214.063 245.459 216.357 244.141L232.275 235.01Z" fill="white"/>
<path d="M212.207 229.541L206.494 226.221C206.494 226.562 206.543 226.855 206.592 227.148C206.738 227.979 207.178 228.613 207.715 228.906L213.428 232.227C212.695 231.738 212.207 230.811 212.207 229.541ZM229.492 201.367C229.395 201.318 229.346 201.27 229.248 201.27C229.199 201.221 229.102 201.221 229.004 201.172C228.955 201.172 228.906 201.172 228.857 201.123H228.809H228.76C228.662 201.123 228.613 201.123 228.516 201.074H228.125H227.93C227.832 201.074 227.686 201.123 227.539 201.172C227.49 201.172 227.441 201.221 227.393 201.221C227.344 201.221 227.295 201.27 227.246 201.27C227.197 201.27 227.1 201.318 227.051 201.318L226.465 201.611L210.596 210.742C210.352 210.889 210.059 211.084 209.814 211.279C209.717 211.328 209.668 211.426 209.57 211.475C209.473 211.572 209.326 211.67 209.229 211.816C209.18 211.865 209.131 211.914 209.082 212.012L208.936 212.158L208.789 212.305C208.691 212.451 208.545 212.598 208.447 212.695C208.398 212.744 208.35 212.793 208.35 212.842C208.35 212.891 208.301 212.891 208.301 212.939C208.252 212.988 208.252 213.037 208.203 213.086C208.105 213.184 208.057 213.33 207.959 213.428C207.861 213.525 207.813 213.672 207.764 213.77V213.867L207.617 214.16C207.568 214.258 207.471 214.404 207.422 214.502C207.373 214.6 207.324 214.697 207.275 214.844C207.227 214.99 207.178 215.088 207.129 215.234C207.08 215.381 207.031 215.479 206.982 215.625C206.982 215.674 206.934 215.771 206.934 215.82C206.934 215.869 206.934 215.869 206.885 215.918C206.885 215.967 206.836 216.016 206.836 216.064C206.787 216.211 206.738 216.406 206.738 216.553C206.738 216.65 206.689 216.748 206.689 216.846C206.689 216.895 206.689 216.943 206.641 216.992V217.139C206.592 217.432 206.592 217.676 206.592 217.969V226.123L212.305 229.443V221.289C212.305 220.996 212.354 220.654 212.402 220.313C212.402 220.264 212.402 220.215 212.451 220.166C212.5 219.873 212.549 219.58 212.646 219.238C212.646 219.189 212.646 219.189 212.695 219.141C212.793 218.799 212.939 218.457 213.037 218.164C213.184 217.822 213.33 217.529 213.525 217.188V217.139L214.111 216.26C214.111 216.211 214.16 216.211 214.16 216.162C214.355 215.918 214.551 215.674 214.795 215.43L214.941 215.283C215.088 215.088 215.283 214.941 215.479 214.795C215.576 214.746 215.625 214.648 215.723 214.6C215.967 214.404 216.26 214.209 216.504 214.063L232.373 204.932C232.617 204.785 232.91 204.688 233.154 204.59C233.203 204.59 233.252 204.541 233.301 204.541C233.545 204.443 233.789 204.395 233.984 204.395H234.033C234.277 204.395 234.473 204.395 234.717 204.443H234.766C234.961 204.492 235.205 204.541 235.352 204.688L229.492 201.367Z" fill="#535354"/>
<path d="M232.178 204.98C234.473 203.662 236.377 204.736 236.377 207.373V215.527C236.377 218.164 234.521 221.436 232.178 222.754L216.406 231.934C214.111 233.252 212.207 232.178 212.207 229.541V221.387C212.207 218.75 214.063 215.478 216.357 214.16L232.178 204.98Z" fill="white"/>
<path d="M266.016 210.352C265.918 210.303 265.869 210.254 265.771 210.254C265.723 210.205 265.625 210.205 265.527 210.156C265.479 210.156 265.43 210.156 265.381 210.107H265.332H265.283C265.186 210.107 265.137 210.107 265.039 210.059H264.648H264.453C264.355 210.059 264.209 210.107 264.062 210.156C264.014 210.156 263.965 210.205 263.916 210.205C263.867 210.205 263.818 210.254 263.77 210.254C263.721 210.254 263.623 210.303 263.574 210.303L262.988 210.596L247.119 219.727C246.826 219.873 246.582 220.068 246.338 220.264C246.24 220.312 246.191 220.41 246.094 220.459C245.947 220.557 245.85 220.654 245.752 220.801C245.703 220.85 245.654 220.898 245.605 220.996L245.459 221.143L245.312 221.289C245.215 221.436 245.068 221.582 244.971 221.729C244.922 221.777 244.873 221.826 244.873 221.875C244.873 221.924 244.824 221.924 244.824 221.973C244.775 222.021 244.775 222.07 244.727 222.119C244.629 222.217 244.58 222.363 244.482 222.461C244.385 222.559 244.336 222.705 244.287 222.803V222.9L244.141 223.193C244.092 223.291 243.994 223.437 243.945 223.535C243.896 223.633 243.848 223.73 243.799 223.877C243.75 224.023 243.701 224.121 243.652 224.268C243.604 224.414 243.555 224.512 243.506 224.658C243.506 224.707 243.457 224.805 243.457 224.854C243.457 224.902 243.457 224.902 243.408 224.951C243.408 225 243.359 225.049 243.359 225.098C243.311 225.244 243.262 225.439 243.262 225.586C243.262 225.684 243.213 225.781 243.213 225.879C243.213 225.928 243.213 225.977 243.164 226.025V226.172C243.115 226.465 243.115 226.709 243.115 227.002V235.156C243.115 236.133 243.359 236.914 243.848 237.402C243.994 237.549 244.189 237.695 244.336 237.842L250.049 241.162C249.316 240.723 248.828 239.795 248.828 238.477V230.322C248.828 230.029 248.877 229.687 248.926 229.346C248.926 229.297 248.926 229.248 248.975 229.199C249.023 228.906 249.072 228.613 249.17 228.271C249.17 228.223 249.17 228.223 249.219 228.174C249.316 227.832 249.463 227.49 249.561 227.197C249.707 226.855 249.854 226.514 250.049 226.221V226.172L250.635 225.293C250.635 225.244 250.684 225.244 250.684 225.195C250.879 224.951 251.074 224.707 251.318 224.463L251.465 224.316C251.611 224.121 251.807 223.975 252.002 223.828C252.1 223.779 252.148 223.682 252.246 223.633C252.49 223.437 252.783 223.242 253.027 223.096L268.896 213.965C269.141 213.818 269.434 213.721 269.678 213.623C269.727 213.623 269.775 213.574 269.824 213.574C270.068 213.477 270.313 213.428 270.508 213.428H270.557C270.801 213.428 270.996 213.428 271.24 213.477H271.289C271.484 213.525 271.729 213.574 271.875 213.721L266.016 210.352Z" fill="#535354"/>
<path d="M268.75 213.965C271.045 212.646 272.949 213.721 272.949 216.357V224.512C272.949 227.148 271.094 230.42 268.75 231.738L252.93 240.918C250.635 242.236 248.73 241.162 248.73 238.525V230.371C248.73 227.734 250.586 224.463 252.93 223.144L268.75 213.965Z" fill="white"/>
<path d="M244.189 207.861L249.902 211.182C249.17 210.742 248.682 209.814 248.682 208.496L242.969 205.176C242.969 206.494 243.457 207.422 244.189 207.861ZM265.967 180.322C265.918 180.322 265.918 180.322 265.967 180.322C265.869 180.273 265.82 180.225 265.723 180.225C265.674 180.176 265.576 180.176 265.479 180.127C265.43 180.127 265.381 180.127 265.332 180.078H265.283H265.234C265.137 180.078 265.088 180.078 264.99 180.029H264.6H264.404C264.307 180.029 264.16 180.078 264.014 180.127C263.965 180.127 263.916 180.176 263.867 180.176C263.818 180.176 263.77 180.225 263.721 180.225C263.672 180.225 263.574 180.273 263.525 180.273L262.939 180.566L247.07 189.697C246.777 189.844 246.533 190.039 246.289 190.234C246.191 190.283 246.143 190.381 246.045 190.43C245.898 190.527 245.801 190.625 245.654 190.771C245.605 190.82 245.557 190.869 245.508 190.967L245.361 191.113L245.215 191.26C245.117 191.406 244.971 191.553 244.873 191.65C244.824 191.699 244.775 191.748 244.775 191.797C244.775 191.846 244.727 191.846 244.727 191.895C244.678 191.943 244.678 191.992 244.629 192.041C244.531 192.139 244.482 192.285 244.385 192.383C244.287 192.48 244.238 192.627 244.189 192.725V192.822L244.043 193.115C243.994 193.213 243.896 193.359 243.848 193.457C243.799 193.555 243.75 193.652 243.701 193.799C243.652 193.945 243.604 194.043 243.555 194.189C243.506 194.336 243.457 194.434 243.408 194.58C243.408 194.629 243.359 194.727 243.359 194.775C243.359 194.824 243.359 194.824 243.311 194.873C243.311 194.922 243.262 194.971 243.262 195.02C243.213 195.166 243.164 195.361 243.164 195.508C243.164 195.605 243.115 195.703 243.115 195.801C243.115 195.85 243.115 195.898 243.066 195.947C243.066 195.996 243.066 196.045 243.018 196.094C242.969 196.387 242.969 196.631 242.969 196.924V205.078L248.682 208.398V200.244C248.682 199.951 248.73 199.609 248.779 199.268C248.779 199.219 248.779 199.17 248.828 199.121C248.877 198.828 248.926 198.535 249.023 198.193C249.023 198.145 249.023 198.145 249.072 198.096C249.17 197.754 249.316 197.412 249.414 197.119C249.561 196.777 249.707 196.436 249.902 196.143V196.094L250.488 195.215C250.488 195.166 250.537 195.166 250.537 195.117C250.732 194.873 250.928 194.629 251.172 194.385L251.318 194.238C251.465 194.043 251.66 193.896 251.855 193.75C251.953 193.701 252.002 193.604 252.1 193.555C252.344 193.359 252.637 193.164 252.881 193.018L268.75 183.887C268.994 183.74 269.287 183.643 269.531 183.545C269.58 183.545 269.629 183.496 269.678 183.496C269.922 183.398 270.166 183.35 270.361 183.35H270.41C270.654 183.35 270.85 183.35 271.094 183.398H271.143C271.338 183.447 271.582 183.496 271.729 183.643L265.967 180.322Z" fill="#535354"/>
<path d="M268.652 183.936C270.947 182.617 272.852 183.691 272.852 186.328V194.482C272.852 197.119 270.996 200.391 268.652 201.709L252.783 210.84C250.488 212.158 248.584 211.084 248.584 208.447V200.293C248.584 197.656 250.439 194.385 252.783 193.066L268.652 183.936Z" fill="white"/>
<path d="M348.535 195.361C348.437 195.313 348.389 195.264 348.291 195.215L347.119 194.629L346.826 194.482C346.582 194.385 346.387 194.287 346.143 194.189C345.996 194.141 345.85 194.092 345.703 193.994C345.557 193.945 345.459 193.896 345.312 193.848C344.873 193.701 344.385 193.506 343.896 193.359H343.799C343.359 193.213 342.871 193.115 342.383 193.018C342.236 192.969 342.09 192.969 341.943 192.92C341.797 192.871 341.65 192.871 341.504 192.822C341.26 192.773 340.967 192.725 340.674 192.725C340.576 192.725 340.479 192.676 340.332 192.676C339.893 192.627 339.404 192.578 338.916 192.529H336.133C335.889 192.529 335.596 192.578 335.352 192.578C335.156 192.578 334.961 192.578 334.814 192.627C334.229 192.676 333.691 192.725 333.105 192.822H333.057C332.422 192.92 331.787 193.018 331.152 193.164L330.566 193.311L329.395 193.604C329.346 193.604 329.297 193.652 329.297 193.652C328.564 193.848 327.783 194.092 327.051 194.336L326.611 194.482C325.977 194.678 325.391 194.922 324.756 195.166C324.658 195.215 324.609 195.215 324.512 195.264C324.023 195.459 323.486 195.703 322.998 195.947C322.949 195.996 322.852 195.996 322.803 196.045C322.217 196.289 321.68 196.582 321.094 196.875C320.947 196.973 320.752 197.07 320.605 197.119C319.971 197.461 319.336 197.803 318.652 198.193C317.969 198.584 317.285 198.975 316.65 199.414C316.455 199.561 316.211 199.707 316.016 199.854C315.576 200.146 315.137 200.439 314.648 200.732C314.404 200.928 314.16 201.074 313.916 201.27C313.525 201.563 313.086 201.855 312.695 202.148L311.963 202.734C311.572 203.027 311.133 203.369 310.742 203.711C310.498 203.906 310.254 204.102 310.059 204.297C309.619 204.688 309.131 205.078 308.691 205.469C308.545 205.615 308.35 205.762 308.154 205.908C307.52 206.445 306.934 207.031 306.299 207.568C306.152 207.666 306.055 207.813 305.908 207.959C305.518 208.35 305.078 208.74 304.687 209.131L304.492 209.326C303.76 210.059 303.076 210.791 302.344 211.523C302.295 211.572 302.295 211.621 302.246 211.621C301.562 212.354 300.928 213.086 300.293 213.818L300.098 214.014L299.365 214.893C299.121 215.186 298.828 215.527 298.584 215.82C298.242 216.211 297.949 216.602 297.607 217.041C297.363 217.334 297.119 217.676 296.875 217.969C296.826 218.018 296.777 218.066 296.729 218.164C296.631 218.262 296.582 218.359 296.484 218.457C295.703 219.482 294.922 220.557 294.141 221.631C294.043 221.729 293.994 221.826 293.896 221.973C293.848 222.021 293.848 222.07 293.799 222.119C293.066 223.145 292.383 224.219 291.65 225.293C291.602 225.391 291.504 225.488 291.455 225.586C291.357 225.732 291.26 225.879 291.162 226.074C290.625 226.953 290.088 227.832 289.551 228.76C289.453 228.906 289.355 229.053 289.307 229.199C289.258 229.248 289.258 229.297 289.209 229.346C288.623 230.371 288.037 231.396 287.451 232.471C287.402 232.568 287.354 232.617 287.305 232.715C287.207 232.91 287.109 233.057 287.061 233.252C286.621 234.082 286.182 234.912 285.791 235.791C285.693 235.986 285.596 236.133 285.547 236.328C285.498 236.426 285.449 236.523 285.4 236.67C284.912 237.744 284.375 238.818 283.936 239.893C283.936 239.941 283.887 239.941 283.887 239.99C283.838 240.088 283.789 240.234 283.74 240.332C283.301 241.309 282.91 242.285 282.52 243.262C282.471 243.408 282.373 243.555 282.324 243.75C282.275 243.896 282.227 243.994 282.178 244.141C281.738 245.313 281.299 246.484 280.908 247.656V247.705C280.664 248.486 280.42 249.268 280.176 250C280.127 250.195 280.029 250.439 279.98 250.635C279.834 251.074 279.736 251.514 279.59 251.953C279.541 252.1 279.541 252.246 279.492 252.393C279.395 252.734 279.297 253.125 279.199 253.467C279.053 253.955 278.955 254.443 278.857 254.932C278.76 255.322 278.711 255.664 278.613 256.055C278.564 256.299 278.516 256.543 278.418 256.836C278.369 257.031 278.369 257.178 278.32 257.373C278.223 257.91 278.125 258.496 278.027 259.033C277.979 259.424 277.881 259.814 277.832 260.156C277.734 260.742 277.637 261.279 277.588 261.865C277.539 262.109 277.49 262.402 277.49 262.647C277.49 262.744 277.441 262.891 277.441 262.988C277.393 263.232 277.393 263.525 277.344 263.77L277.197 265.381C277.148 265.674 277.148 265.918 277.148 266.211C277.1 266.748 277.1 267.285 277.051 267.822C277.051 268.066 277.002 268.311 277.002 268.555C276.953 269.336 276.953 270.117 276.953 270.85C277.002 284.082 281.689 293.408 289.209 297.803L296.436 302.002C288.867 297.607 284.229 288.281 284.18 275.049C284.18 274.268 284.18 273.535 284.228 272.754C284.228 272.51 284.229 272.266 284.277 272.021C284.326 271.484 284.326 270.947 284.375 270.41C284.375 270.117 284.424 269.873 284.424 269.58L284.57 267.969C284.619 267.725 284.619 267.432 284.668 267.188C284.717 266.797 284.766 266.406 284.814 266.064C284.912 265.479 284.961 264.941 285.059 264.355C285.107 263.965 285.205 263.574 285.254 263.232C285.352 262.695 285.449 262.158 285.547 261.572L285.84 260.254C285.938 259.863 285.986 259.521 286.084 259.131C286.182 258.643 286.328 258.154 286.426 257.666C286.523 257.324 286.621 256.934 286.719 256.592C286.865 256.006 287.061 255.42 287.207 254.834C287.256 254.639 287.353 254.395 287.402 254.199C287.646 253.418 287.891 252.588 288.184 251.807C288.574 250.635 289.014 249.463 289.453 248.291C289.551 247.998 289.697 247.705 289.795 247.412C290.186 246.436 290.576 245.459 291.016 244.482C291.064 244.336 291.113 244.189 291.211 244.043L292.676 240.82C292.822 240.527 292.969 240.283 293.066 239.99C293.457 239.16 293.896 238.281 294.336 237.451C294.482 237.207 294.58 236.914 294.727 236.67C295.312 235.596 295.85 234.57 296.484 233.545C296.582 233.35 296.729 233.154 296.826 232.959C297.363 232.08 297.9 231.152 298.438 230.273C298.584 230.029 298.779 229.736 298.926 229.492C299.609 228.418 300.342 227.344 301.074 226.318C301.172 226.172 301.318 226.025 301.416 225.83C302.197 224.756 302.978 223.682 303.76 222.656C303.857 222.51 304.004 222.314 304.102 222.168C304.346 221.826 304.59 221.533 304.883 221.191C305.225 220.801 305.518 220.41 305.859 220.02C306.104 219.678 306.396 219.385 306.641 219.092C306.934 218.701 307.275 218.359 307.568 218.018C308.203 217.285 308.887 216.553 309.57 215.82C309.619 215.771 309.619 215.723 309.668 215.723C310.352 214.99 311.084 214.258 311.816 213.525C312.256 213.086 312.744 212.646 313.184 212.158C313.33 212.061 313.428 211.914 313.574 211.768C314.209 211.182 314.795 210.645 315.43 210.107C315.576 209.961 315.771 209.814 315.918 209.668C316.357 209.277 316.846 208.887 317.285 208.496C317.529 208.301 317.773 208.105 317.969 207.91C318.359 207.568 318.799 207.275 319.189 206.934L319.922 206.348C320.313 206.055 320.752 205.762 321.143 205.469C321.387 205.273 321.631 205.127 321.875 204.932C322.314 204.639 322.754 204.346 323.242 204.053C323.437 203.906 323.682 203.76 323.877 203.613C324.561 203.174 325.195 202.783 325.879 202.393C326.514 202.002 327.197 201.66 327.832 201.318C327.979 201.221 328.174 201.123 328.32 201.074C328.906 200.781 329.443 200.488 330.029 200.244C330.078 200.195 330.176 200.195 330.225 200.146C330.811 199.854 331.396 199.609 331.982 199.365C332.617 199.121 333.203 198.877 333.838 198.633L334.277 198.486C335.059 198.242 335.791 197.998 336.523 197.803C336.963 197.705 337.402 197.559 337.842 197.461C338.037 197.412 338.232 197.363 338.477 197.314C339.111 197.168 339.746 197.07 340.381 196.973H340.43C341.016 196.875 341.553 196.826 342.139 196.777C342.334 196.777 342.529 196.729 342.676 196.729C343.066 196.68 343.506 196.68 343.896 196.68H346.094C346.631 196.729 347.168 196.777 347.656 196.826C347.754 196.826 347.852 196.875 347.998 196.875C348.437 196.924 348.828 197.021 349.268 197.07C349.414 197.119 349.561 197.119 349.707 197.168C350.195 197.266 350.635 197.363 351.123 197.51H351.221C351.709 197.656 352.197 197.803 352.637 197.998C352.783 198.047 352.881 198.096 353.027 198.145C353.418 198.291 353.76 198.437 354.15 198.633L354.443 198.779C354.932 199.023 355.371 199.268 355.811 199.512L348.535 195.361Z" fill="#535354"/>
<path d="M325.879 202.49C349.072 189.111 367.969 199.854 368.066 226.514C368.164 253.174 349.365 285.693 326.172 299.072C302.978 312.451 284.082 301.709 284.033 275.049C283.984 248.389 302.637 215.918 325.879 202.49Z" fill="#111212"/>
<path d="M341.943 224.316L342.871 226.27C333.057 242.676 325 262.451 322.51 271.631L307.666 262.354L311.426 256.592L320.02 259.57C323.438 252.637 331.201 238.33 341.943 224.316Z" fill="#454646"/>
<path d="M326.953 262.402C327.002 262.305 327.051 262.256 327.1 262.158C327.344 261.67 327.588 261.23 327.881 260.693C328.027 260.4 328.223 260.059 328.369 259.766C328.516 259.473 328.711 259.18 328.857 258.838C329.053 258.496 329.248 258.154 329.395 257.812C329.59 257.471 329.736 257.178 329.932 256.836C330.127 256.494 330.322 256.152 330.518 255.762L331.104 254.736C331.299 254.395 331.543 254.004 331.738 253.613C331.934 253.271 332.129 252.881 332.373 252.539C332.52 252.295 332.617 252.1 332.764 251.855L333.643 250.391C333.789 250.098 333.984 249.854 334.131 249.561C334.424 249.121 334.668 248.633 334.961 248.193C335.156 247.9 335.352 247.607 335.547 247.266C335.84 246.826 336.133 246.338 336.426 245.898C336.621 245.605 336.816 245.264 337.012 244.971C337.207 244.629 337.402 244.336 337.646 243.994C338.33 242.92 339.014 241.846 339.746 240.771C339.844 240.674 339.893 240.576 339.941 240.43C340.723 239.258 341.504 238.086 342.334 236.914C342.578 236.621 342.773 236.279 343.018 235.986C343.506 235.303 343.994 234.57 344.531 233.887C344.775 233.545 344.971 233.252 345.215 232.91C345.947 231.885 346.68 230.908 347.461 229.883L342.188 226.807C341.406 227.832 340.674 228.809 339.941 229.834C339.697 230.176 339.502 230.469 339.258 230.762C338.721 231.445 338.232 232.178 337.744 232.861C337.598 233.057 337.5 233.203 337.354 233.398L337.061 233.838C336.23 235.01 335.449 236.182 334.668 237.354C334.57 237.451 334.521 237.549 334.473 237.695C333.74 238.77 333.057 239.844 332.373 240.918L332.08 241.357C331.982 241.553 331.836 241.699 331.738 241.895C331.543 242.236 331.348 242.529 331.152 242.822C330.859 243.311 330.566 243.75 330.273 244.189C330.078 244.482 329.883 244.824 329.688 245.117C329.395 245.605 329.102 246.045 328.857 246.484C328.711 246.777 328.516 247.021 328.369 247.314L327.49 248.779C327.344 249.023 327.197 249.219 327.1 249.463C327.051 249.512 327.051 249.561 327.002 249.609C326.807 249.902 326.66 250.244 326.465 250.537C326.221 250.928 326.025 251.318 325.83 251.66L325.244 252.686C325.049 253.027 324.854 253.418 324.658 253.76C324.463 254.102 324.316 254.395 324.121 254.736C323.926 255.078 323.73 255.42 323.584 255.762C323.438 256.055 323.242 256.348 323.096 256.641C322.9 256.982 322.754 257.275 322.607 257.568C322.559 257.617 322.559 257.666 322.51 257.715C322.266 258.154 322.07 258.594 321.826 258.984C321.777 259.082 321.729 259.18 321.68 259.229L321.094 260.4C321.045 260.498 320.996 260.645 320.898 260.742C320.703 261.182 320.459 261.572 320.264 261.963L311.67 258.984L307.91 264.746L313.184 267.822L316.943 262.061L325.537 265.039C325.732 264.648 325.928 264.258 326.172 263.818C326.221 263.721 326.27 263.574 326.367 263.477C326.563 263.232 326.758 262.842 326.953 262.402Z" fill="white"/>
<path d="M328.076 277.246L322.803 274.17L307.959 264.893L313.232 267.969L328.076 277.246Z" fill="#808080"/>
<path d="M347.51 229.932L348.437 231.885C338.623 248.291 330.566 268.066 328.076 277.246L313.232 267.969L316.992 262.207L325.586 265.186C329.053 258.203 336.816 243.896 347.51 229.932Z" fill="#535354"/>
</svg>
