<svg width="500" height="500" viewBox="0 0 500 500" fill="none" xmlns="http://www.w3.org/2000/svg">
<path d="M442.602 298.477C442.065 303.848 437.133 306.533 432.934 308.975C429.028 311.221 425.122 313.516 421.264 315.762C415.014 319.375 408.813 322.988 402.563 326.602C394.75 331.143 386.987 335.684 379.174 340.176C370.581 345.156 361.987 350.186 353.344 355.166C344.702 360.195 336.059 365.225 327.368 370.254C319.409 374.893 311.498 379.482 303.539 384.121C297.045 387.881 290.6 391.641 284.106 395.4C279.858 397.842 275.61 400.332 271.362 402.773C268.139 404.629 265.112 406.484 261.45 407.559C251.928 410.293 241.381 409.365 232.788 404.385C229.711 402.578 226.586 400.82 223.51 399.014C217.846 395.742 212.231 392.52 206.567 389.248C199.145 384.951 191.723 380.654 184.301 376.406C175.854 371.523 167.358 366.641 158.911 361.758C150.17 356.728 141.43 351.65 132.69 346.621C124.438 341.836 116.186 337.1 107.885 332.314L86.7915 320.156C81.7622 317.227 76.684 314.346 71.6547 311.416C69.3598 310.098 67.0649 308.779 64.77 307.412C61.1567 305.312 57.5922 301.992 57.5922 297.5C57.5922 301.602 57.5922 305.703 57.5434 309.854C57.5434 311.318 57.4457 312.832 57.5434 314.346C57.8364 318.301 60.9614 321.377 64.2329 323.33C66.2348 324.551 68.2856 325.674 70.3364 326.846C75.6098 329.873 80.8832 332.949 86.1567 335.977C93.7739 340.371 101.342 344.766 108.959 349.16C117.993 354.385 127.075 359.609 136.108 364.834C145.532 370.303 154.956 375.723 164.428 381.191C173.413 386.367 182.348 391.543 191.332 396.719C198.803 401.016 206.225 405.312 213.696 409.609C218.725 412.539 223.803 415.42 228.832 418.35C231.762 420.01 234.643 421.914 237.817 423.086C247.729 426.699 259.35 425.918 268.481 420.596C271.948 418.594 275.414 416.543 278.881 414.541C285.278 410.83 291.674 407.119 298.022 403.408C306.372 398.574 314.672 393.74 323.022 388.857C332.348 383.437 341.674 378.018 350.952 372.598L378.93 356.338C387.28 351.455 395.629 346.621 404.028 341.738C410.522 337.979 417.016 334.219 423.51 330.41C427.075 328.311 430.688 326.26 434.252 324.16C435.327 323.525 436.45 322.891 437.475 322.158C440.209 320.107 442.358 317.275 442.407 313.711C442.456 311.904 442.407 310.146 442.407 308.34C442.407 304.775 442.407 301.162 442.456 297.598C442.651 297.988 442.602 298.232 442.602 298.477C442.602 298.379 442.553 298.623 442.602 298.477Z" fill="#111212"/>
<path d="M145.313 239.844C145.313 239.697 145.361 239.551 145.361 239.404C145.361 239.307 145.41 239.209 145.41 239.111C145.41 239.014 145.459 238.916 145.459 238.867C145.508 238.721 145.508 238.623 145.557 238.477C145.557 238.428 145.605 238.33 145.605 238.281L145.752 237.842C145.752 237.793 145.801 237.744 145.801 237.646C145.85 237.451 145.947 237.256 146.045 237.061C146.045 237.061 146.045 237.012 146.094 237.012C146.191 236.816 146.24 236.67 146.338 236.523C146.387 236.475 146.387 236.426 146.436 236.377C146.533 236.23 146.582 236.084 146.68 235.889C146.68 235.84 146.729 235.84 146.729 235.791C146.826 235.596 146.924 235.449 147.07 235.254C147.119 235.205 147.119 235.156 147.168 235.107C147.266 234.961 147.314 234.863 147.412 234.717C147.461 234.668 147.51 234.57 147.559 234.521C147.656 234.424 147.705 234.326 147.803 234.229C147.852 234.131 147.949 234.082 147.998 233.984C148.047 233.887 148.145 233.838 148.193 233.74C148.291 233.594 148.438 233.496 148.535 233.35L148.73 233.154C148.975 232.91 149.219 232.715 149.463 232.52C149.512 232.471 149.561 232.471 149.609 232.422C149.854 232.227 150.146 232.031 150.439 231.885C150.635 231.738 150.879 231.641 151.074 231.592C151.123 231.543 151.221 231.543 151.27 231.494C151.416 231.445 151.514 231.396 151.66 231.348C151.758 231.348 151.807 231.299 151.904 231.299C151.953 231.299 152.051 231.25 152.1 231.25C152.197 231.25 152.295 231.201 152.393 231.201H152.979C153.125 231.201 153.223 231.25 153.369 231.25H153.467C153.564 231.25 153.662 231.299 153.76 231.348C153.809 231.348 153.809 231.348 153.857 231.396C153.955 231.445 154.102 231.494 154.199 231.543L146.973 227.344H146.924C146.826 227.295 146.729 227.246 146.68 227.197H146.631C146.582 227.197 146.582 227.197 146.533 227.148C146.484 227.148 146.436 227.1 146.387 227.1C146.338 227.1 146.289 227.1 146.24 227.051H146.094C145.996 227.051 145.898 227.002 145.801 227.002H145.068C145.02 227.002 144.971 227.002 144.922 227.051C144.873 227.051 144.775 227.1 144.727 227.1C144.678 227.1 144.629 227.1 144.629 227.148C144.58 227.148 144.531 227.197 144.531 227.197C144.434 227.246 144.287 227.295 144.141 227.344C144.092 227.344 144.043 227.393 143.994 227.393C143.994 227.393 143.945 227.441 143.896 227.441C143.701 227.539 143.457 227.637 143.262 227.783C142.969 227.93 142.725 228.125 142.48 228.32C142.432 228.369 142.383 228.369 142.334 228.418C142.09 228.613 141.846 228.857 141.602 229.053L141.553 229.102L141.455 229.199C141.357 229.297 141.211 229.443 141.113 229.59L141.016 229.687L140.918 229.785C140.869 229.883 140.771 229.932 140.723 230.029L140.576 230.176C140.527 230.225 140.527 230.273 140.479 230.322C140.43 230.371 140.381 230.469 140.332 230.518C140.283 230.566 140.283 230.615 140.234 230.664C140.186 230.762 140.137 230.811 140.088 230.908C140.039 230.957 140.039 231.006 139.99 231.055L139.941 231.104L139.648 231.543V231.592C139.648 231.641 139.6 231.641 139.6 231.689C139.551 231.787 139.502 231.885 139.404 232.031C139.355 232.08 139.355 232.129 139.307 232.178C139.258 232.227 139.258 232.275 139.209 232.324C139.209 232.373 139.16 232.422 139.16 232.471C139.111 232.617 139.063 232.715 139.014 232.861C139.014 232.861 139.014 232.91 138.965 232.91C138.916 233.057 138.818 233.203 138.77 233.398C138.77 233.447 138.77 233.447 138.721 233.496C138.721 233.545 138.672 233.594 138.672 233.691C138.623 233.789 138.623 233.838 138.574 233.936C138.574 233.984 138.525 234.082 138.525 234.131C138.525 234.18 138.477 234.277 138.477 234.326C138.477 234.375 138.428 234.424 138.428 234.473C138.428 234.57 138.379 234.619 138.379 234.717C138.379 234.814 138.33 234.912 138.33 234.961V235.059C138.33 235.107 138.33 235.205 138.281 235.254C138.232 235.4 138.232 235.547 138.232 235.693V235.889C138.184 236.182 138.184 236.523 138.184 236.816C138.184 238.477 138.77 239.648 139.697 240.186L146.924 244.385C145.996 243.848 145.41 242.676 145.41 241.016C145.41 240.723 145.41 240.43 145.459 240.088C145.264 239.99 145.264 239.893 145.313 239.844Z" fill="#535354"/>
<path d="M161.182 231.25C161.23 231.25 161.328 231.201 161.377 231.201C161.426 231.201 161.475 231.152 161.523 231.152C161.621 231.152 161.67 231.104 161.719 231.104H162.207C162.305 231.104 162.402 231.104 162.5 231.152H162.598C162.695 231.152 162.744 231.201 162.842 231.201C162.842 231.201 162.891 231.201 162.891 231.25L163.184 231.396L155.957 227.197C155.908 227.148 155.811 227.148 155.762 227.1H155.713C155.713 227.1 155.664 227.1 155.664 227.051C155.615 227.051 155.615 227.002 155.566 227.002C155.518 227.002 155.469 227.002 155.469 226.953H155.322C155.225 226.953 155.176 226.953 155.078 226.904H154.443C154.395 226.904 154.346 226.904 154.297 226.953H154.199C154.15 226.953 154.15 226.953 154.102 227.002C154.004 227.051 153.906 227.051 153.809 227.1C153.76 227.1 153.76 227.1 153.711 227.148C153.711 227.148 153.662 227.148 153.662 227.197C153.516 227.246 153.32 227.344 153.174 227.441L148.584 230.078L155.811 234.277L160.4 231.641C160.596 231.543 160.742 231.445 160.889 231.396C160.938 231.396 160.986 231.348 161.035 231.348C160.986 231.299 161.084 231.299 161.182 231.25Z" fill="#535354"/>
<path d="M146.729 244.385L139.502 240.186H139.551L146.729 244.385Z" fill="#535354"/>
<path d="M146.777 244.434L139.551 240.234C139.648 240.283 139.746 240.332 139.795 240.381L147.021 244.58C146.924 244.482 146.826 244.482 146.777 244.434Z" fill="#535354"/>
<path d="M147.021 244.531L139.795 240.332C139.893 240.381 139.99 240.381 140.088 240.43L147.314 244.629C147.217 244.629 147.119 244.58 147.021 244.531Z" fill="#535354"/>
<path d="M147.314 244.629L140.088 240.43C140.186 240.479 140.283 240.479 140.381 240.479L147.607 244.678C147.51 244.678 147.412 244.678 147.314 244.629Z" fill="#535354"/>
<path d="M147.607 244.727L140.381 240.527C140.479 240.527 140.576 240.576 140.674 240.576L147.9 244.775C147.803 244.727 147.705 244.727 147.607 244.727Z" fill="#535354"/>
<path d="M147.9 244.727L140.674 240.527H141.016L148.242 244.727H147.9Z" fill="#535354"/>
<path d="M148.242 244.727L141.016 240.527C141.162 240.527 141.26 240.527 141.406 240.479L148.633 244.678C148.486 244.727 148.389 244.727 148.242 244.727Z" fill="#535354"/>
<path d="M148.633 244.727L141.406 240.527C141.553 240.527 141.699 240.479 141.846 240.43L149.072 244.629C148.926 244.629 148.779 244.678 148.633 244.727Z" fill="#535354"/>
<path d="M149.072 244.629L141.846 240.43C142.041 240.381 142.236 240.283 142.48 240.234L149.707 244.434C149.512 244.482 149.316 244.531 149.072 244.629Z" fill="#3232C7"/>
<path d="M149.707 244.385L142.48 240.186C142.725 240.088 142.969 239.941 143.213 239.844C143.848 239.502 144.434 239.014 144.971 238.477L152.197 242.676C151.66 243.213 151.074 243.652 150.439 244.043C150.195 244.189 149.951 244.287 149.707 244.385Z" fill="#3333CC"/>
<path d="M152.197 242.676L144.971 238.477L145.557 237.891L152.783 242.09L152.197 242.676Z" fill="#3232C7"/>
<path d="M152.783 242.09L145.557 237.891C145.703 237.744 145.85 237.549 145.996 237.354L153.223 241.553C153.027 241.748 152.881 241.895 152.783 242.09Z" fill="#535354"/>
<path d="M153.174 241.553L145.947 237.354C146.045 237.207 146.191 237.061 146.289 236.865L153.516 241.064C153.418 241.26 153.32 241.406 153.174 241.553Z" fill="#535354"/>
<path d="M153.516 241.064L146.289 236.865L146.582 236.426L153.809 240.625C153.76 240.771 153.613 240.918 153.516 241.064Z" fill="#535354"/>
<path d="M153.857 240.625L146.631 236.426L146.924 235.986L154.15 240.186C154.004 240.332 153.906 240.479 153.857 240.625Z" fill="#535354"/>
<path d="M154.102 240.186L146.875 235.986C146.973 235.84 147.021 235.693 147.119 235.547L154.346 239.746C154.248 239.893 154.199 240.039 154.102 240.186Z" fill="#535354"/>
<path d="M154.346 239.746L147.119 235.547C147.217 235.4 147.266 235.254 147.363 235.107L154.59 239.307C154.492 239.453 154.443 239.6 154.346 239.746Z" fill="#535354"/>
<path d="M154.59 239.307L147.363 235.107C147.412 234.961 147.51 234.814 147.559 234.668L154.785 238.867C154.736 239.014 154.639 239.16 154.59 239.307Z" fill="#535354"/>
<path d="M154.785 238.867L147.559 234.668C147.607 234.521 147.705 234.375 147.754 234.18L154.98 238.379C154.932 238.525 154.834 238.672 154.785 238.867Z" fill="#535354"/>
<path d="M154.98 238.379L147.754 234.18C147.803 234.033 147.9 233.838 147.949 233.691L155.176 237.891C155.078 238.037 155.029 238.232 154.98 238.379Z" fill="#262699"/>
<path d="M155.127 237.891L147.9 233.691C147.949 233.496 147.998 233.35 148.047 233.154L155.273 237.354C155.273 237.549 155.225 237.695 155.127 237.891Z" fill="#252594"/>
<path d="M155.322 237.354L148.096 233.154L148.242 232.568L155.469 236.768L155.322 237.354Z" fill="#24248F"/>
<path d="M155.469 236.768L148.242 232.568L148.389 231.836L155.615 236.035L155.469 236.768Z" fill="#23238A"/>
<path d="M155.566 236.035L148.34 231.836C148.389 231.494 148.389 231.152 148.389 230.811C148.389 230.566 148.389 230.371 148.34 230.127L155.566 234.326C155.566 234.57 155.615 234.766 155.615 235.01C155.664 235.352 155.615 235.693 155.566 236.035Z" fill="#212185"/>
<path d="M137.988 236.133L133.398 238.77C133.154 238.916 132.861 239.111 132.617 239.307C132.52 239.355 132.471 239.453 132.373 239.502C132.275 239.6 132.129 239.697 132.031 239.795L131.885 239.941L131.738 240.088L131.592 240.234C131.494 240.381 131.348 240.479 131.25 240.625C131.201 240.674 131.152 240.723 131.152 240.771C131.152 240.82 131.104 240.82 131.104 240.869C131.055 240.918 131.055 240.967 131.006 241.016C130.908 241.113 130.859 241.26 130.762 241.357C130.664 241.455 130.615 241.602 130.566 241.699V241.797L130.42 242.09C130.371 242.187 130.322 242.334 130.225 242.432L130.078 242.725C130.029 242.871 129.98 242.969 129.932 243.115C129.883 243.262 129.834 243.359 129.785 243.506C129.785 243.555 129.736 243.652 129.736 243.701C129.736 243.75 129.736 243.75 129.688 243.799C129.688 243.848 129.639 243.896 129.639 243.945C129.59 244.092 129.541 244.238 129.541 244.434C129.541 244.531 129.492 244.629 129.492 244.727C129.492 244.775 129.492 244.824 129.443 244.873V245.02C129.395 245.312 129.395 245.557 129.395 245.801L129.59 306.592C129.59 307.861 130.078 308.789 130.811 309.229L138.037 313.428C137.305 312.988 136.816 312.109 136.816 310.791L136.621 250C136.621 249.707 136.67 249.365 136.719 249.072C136.719 249.023 136.719 248.975 136.768 248.926C136.816 248.633 136.865 248.34 136.963 248.047C136.963 247.998 136.963 247.998 137.012 247.949C137.109 247.607 137.207 247.314 137.354 246.973C137.5 246.631 137.646 246.338 137.842 245.996V245.947L138.428 245.068C138.428 245.02 138.477 245.02 138.477 244.971L139.062 244.238L139.209 244.092C139.355 243.896 139.551 243.75 139.746 243.604C139.844 243.555 139.893 243.457 139.99 243.408C140.234 243.213 140.479 243.018 140.771 242.871L145.361 240.234L137.988 236.133Z" fill="#535354"/>
<path d="M160.205 231.69C162.451 230.371 164.307 231.445 164.355 234.033L164.551 294.824C164.551 297.412 162.695 300.635 160.449 301.904L140.869 313.184C138.623 314.502 136.768 313.428 136.719 310.84L136.523 250.049C136.523 247.461 138.379 244.238 140.625 242.969L145.215 240.332C145.215 240.576 145.166 240.82 145.166 241.065C145.166 244.385 147.51 245.703 150.391 244.043C153.271 242.383 155.615 238.33 155.615 235.01C155.615 234.766 155.615 234.57 155.566 234.326L160.205 231.69Z" fill="#111212"/>
<path d="M149.707 229.053L154.248 231.641L145.312 240.381L143.359 239.258L147.803 229.053H149.707Z" fill="#535354"/>
<path d="M150.439 231.934C153.32 230.273 155.664 231.592 155.664 234.912C155.664 238.232 153.32 242.285 150.439 243.945C147.559 245.606 145.215 244.287 145.215 240.967C145.215 237.647 147.51 233.643 150.439 231.934Z" fill="white"/>
<path d="M207.324 176.611C207.422 176.563 207.52 176.562 207.617 176.514C207.666 176.514 207.764 176.465 207.813 176.465C207.861 176.465 207.91 176.416 207.959 176.416C208.057 176.416 208.105 176.367 208.154 176.367H208.643C208.74 176.367 208.838 176.367 208.936 176.416H209.033C209.131 176.416 209.18 176.465 209.277 176.465C209.277 176.465 209.326 176.465 209.326 176.514L209.619 176.66L202.393 172.461C202.344 172.412 202.246 172.412 202.197 172.363H202.148C202.148 172.363 202.1 172.363 202.1 172.314C202.051 172.314 202.051 172.266 202.002 172.266C201.953 172.266 201.904 172.266 201.904 172.217H201.758C201.66 172.217 201.611 172.217 201.514 172.168H200.879C200.83 172.168 200.781 172.168 200.732 172.217H200.635C200.586 172.217 200.586 172.217 200.537 172.266C200.439 172.314 200.342 172.314 200.244 172.363C200.195 172.363 200.195 172.363 200.146 172.412C200.146 172.412 200.098 172.412 200.098 172.461C199.951 172.51 199.756 172.607 199.609 172.705L195.068 175.342L202.295 179.541L206.836 176.904C207.031 176.807 207.178 176.709 207.324 176.66C207.227 176.66 207.275 176.611 207.324 176.611Z" fill="#535354"/>
<path d="M193.164 188.965L185.938 184.766H185.986L193.164 188.965C193.213 188.965 193.213 188.965 193.164 188.965Z" fill="#535354"/>
<path d="M193.213 188.965L185.986 184.766C186.084 184.814 186.182 184.863 186.23 184.912L193.457 189.111C193.408 189.062 193.311 189.014 193.213 188.965Z" fill="#535354"/>
<path d="M193.457 189.111L186.23 184.912C186.328 184.961 186.426 184.961 186.523 185.01L193.75 189.209C193.652 189.16 193.555 189.111 193.457 189.111Z" fill="#535354"/>
<path d="M193.75 189.209L186.523 185.01C186.621 185.059 186.719 185.059 186.816 185.059L194.043 189.258C193.945 189.258 193.848 189.209 193.75 189.209Z" fill="#535354"/>
<path d="M194.043 189.258L186.816 185.059C186.914 185.059 187.012 185.107 187.109 185.107L194.336 189.307C194.238 189.307 194.141 189.258 194.043 189.258Z" fill="#535354"/>
<path d="M194.385 189.307L187.158 185.107H187.5L194.727 189.307H194.385Z" fill="#535354"/>
<path d="M194.727 189.307L187.5 185.107C187.646 185.107 187.744 185.107 187.891 185.059L195.117 189.258C194.971 189.258 194.824 189.307 194.727 189.307Z" fill="#535354"/>
<path d="M195.117 189.258L187.891 185.059C188.037 185.059 188.184 185.01 188.33 184.961L195.557 189.16C195.41 189.209 195.264 189.209 195.117 189.258Z" fill="#535354"/>
<path d="M195.557 189.16L188.33 184.961C188.525 184.912 188.721 184.814 188.965 184.766L196.191 188.965C195.947 189.014 195.752 189.111 195.557 189.16Z" fill="#3232C7"/>
<path d="M196.191 188.965L188.965 184.766C189.209 184.668 189.453 184.521 189.697 184.424C190.332 184.082 190.918 183.594 191.455 183.057L198.682 187.256C198.145 187.793 197.559 188.232 196.924 188.623C196.68 188.721 196.436 188.867 196.191 188.965Z" fill="#3333CC"/>
<path d="M198.633 187.207L191.406 183.008L191.992 182.422L199.219 186.621C199.023 186.816 198.828 187.061 198.633 187.207Z" fill="#3232C7"/>
<path d="M199.219 186.621L191.992 182.422C192.139 182.275 192.285 182.08 192.432 181.885L199.658 186.084C199.512 186.279 199.365 186.475 199.219 186.621Z" fill="#535354"/>
<path d="M199.658 186.084L192.432 181.885C192.529 181.738 192.676 181.592 192.773 181.396L200 185.596C199.902 185.791 199.756 185.938 199.658 186.084Z" fill="#535354"/>
<path d="M200 185.645L192.773 181.445L193.066 181.006L200.293 185.205L200 185.645Z" fill="#535354"/>
<path d="M200.293 185.205L193.066 181.006L193.359 180.566L200.586 184.766L200.293 185.205Z" fill="#535354"/>
<path d="M200.586 184.766L193.359 180.566C193.457 180.42 193.506 180.273 193.604 180.127L200.83 184.326C200.732 184.473 200.635 184.619 200.586 184.766Z" fill="#535354"/>
<path d="M200.83 184.326L193.604 180.127C193.701 179.98 193.75 179.834 193.848 179.688L201.074 183.887C200.977 183.984 200.879 184.18 200.83 184.326Z" fill="#535354"/>
<path d="M201.025 183.838L193.799 179.639C193.848 179.492 193.945 179.346 193.994 179.199L201.221 183.398C201.172 183.545 201.123 183.691 201.025 183.838Z" fill="#535354"/>
<path d="M201.221 183.398L193.994 179.199C194.043 179.053 194.141 178.906 194.189 178.711L201.416 182.91C201.367 183.105 201.318 183.252 201.221 183.398Z" fill="#535354"/>
<path d="M201.416 182.91L194.189 178.711C194.238 178.564 194.336 178.369 194.385 178.223L201.611 182.422C201.562 182.617 201.514 182.764 201.416 182.91Z" fill="#262699"/>
<path d="M201.611 182.422L194.385 178.223C194.434 178.027 194.482 177.881 194.531 177.686L201.758 181.885C201.709 182.08 201.66 182.275 201.611 182.422Z" fill="#252594"/>
<path d="M201.758 181.885L194.531 177.686L194.678 177.1L201.904 181.299L201.758 181.885Z" fill="#24248F"/>
<path d="M201.904 181.299L194.678 177.1L194.824 176.367L202.051 180.566L201.904 181.299Z" fill="#23238A"/>
<path d="M202.051 180.566L194.824 176.367C194.873 176.025 194.873 175.684 194.873 175.342L202.1 179.541C202.1 179.883 202.1 180.225 202.051 180.566Z" fill="#212185"/>
<path d="M184.424 181.396L179.883 184.033C179.639 184.18 179.346 184.375 179.102 184.57C179.004 184.619 178.955 184.717 178.857 184.766C178.76 184.863 178.613 184.961 178.516 185.059C178.467 185.107 178.418 185.156 178.369 185.254L178.223 185.4L178.076 185.547C177.979 185.693 177.832 185.791 177.734 185.937C177.686 185.986 177.637 186.035 177.637 186.084C177.637 186.133 177.588 186.133 177.588 186.182C177.539 186.23 177.539 186.279 177.49 186.328C177.393 186.426 177.344 186.572 177.246 186.67C177.148 186.768 177.1 186.914 177.051 187.012V187.109L176.904 187.402C176.855 187.5 176.807 187.646 176.709 187.744L176.562 188.037C176.514 188.184 176.465 188.281 176.416 188.428C176.367 188.574 176.318 188.672 176.27 188.818C176.27 188.867 176.221 188.965 176.221 189.014C176.221 189.063 176.221 189.062 176.172 189.111C176.172 189.16 176.123 189.209 176.123 189.258C176.074 189.404 176.025 189.551 176.025 189.746C176.025 189.844 175.977 189.941 175.977 190.039C175.977 190.088 175.977 190.137 175.928 190.186V190.332C175.879 190.625 175.879 190.869 175.879 191.113L176.172 287.891C176.172 289.16 176.611 290.088 177.393 290.527L184.619 294.727C183.887 294.287 183.398 293.408 183.398 292.09L183.008 195.313C183.008 195.02 183.057 194.678 183.105 194.385C183.105 194.336 183.105 194.287 183.154 194.238C183.203 193.945 183.252 193.652 183.35 193.359C183.35 193.311 183.35 193.311 183.398 193.262C183.496 192.92 183.594 192.627 183.74 192.285C183.887 191.943 184.033 191.65 184.229 191.309V191.26L184.814 190.381C184.814 190.332 184.863 190.332 184.863 190.283L185.449 189.551L185.596 189.404C185.742 189.209 185.938 189.062 186.133 188.916C186.23 188.867 186.279 188.77 186.377 188.721C186.621 188.525 186.865 188.33 187.158 188.184L191.699 185.547L184.424 181.396Z" fill="#535354"/>
<path d="M206.689 176.904C208.936 175.586 210.791 176.66 210.84 179.248L211.133 276.025C211.133 278.613 209.277 281.836 207.031 283.106L187.402 294.434C185.156 295.752 183.301 294.678 183.252 292.09L183.008 195.313C183.008 192.725 184.863 189.502 187.109 188.232L191.65 185.596C191.65 188.916 193.994 190.234 196.875 188.574C199.756 186.914 202.1 182.861 202.1 179.541L206.689 176.904Z" fill="#111212"/>
<path d="M194.629 175.146L199.316 177.783L192.529 186.133L188.672 183.838L194.629 175.146Z" fill="#ACC5EA"/>
<path d="M196.826 176.416C199.707 174.756 202.051 176.074 202.051 179.394C202.051 182.715 199.707 186.768 196.826 188.428C193.945 190.088 191.602 188.769 191.602 185.449C191.65 182.129 193.945 178.076 196.826 176.416Z" fill="white"/>
<path d="M193.311 171.875L193.018 171.729H192.969C192.92 171.729 192.92 171.729 192.871 171.68C192.822 171.68 192.773 171.631 192.725 171.631C192.676 171.631 192.627 171.631 192.578 171.582H192.432C192.334 171.582 192.236 171.533 192.139 171.533H191.406C191.357 171.533 191.309 171.533 191.26 171.582C191.211 171.582 191.113 171.631 191.064 171.631C191.016 171.631 190.967 171.631 190.967 171.68C190.918 171.68 190.869 171.729 190.869 171.729C190.771 171.777 190.625 171.826 190.479 171.875C190.43 171.875 190.381 171.924 190.332 171.924C190.332 171.924 190.283 171.973 190.234 171.973C190.039 172.07 189.795 172.168 189.6 172.314C189.307 172.461 189.063 172.656 188.77 172.852C188.721 172.9 188.672 172.9 188.623 172.949C188.379 173.145 188.135 173.389 187.891 173.584L187.842 173.633L187.744 173.73C187.646 173.828 187.5 173.975 187.402 174.121L187.305 174.219L187.207 174.316C187.158 174.414 187.061 174.463 187.012 174.561L186.865 174.707C186.816 174.756 186.816 174.805 186.768 174.854C186.719 174.902 186.67 175 186.621 175.049C186.572 175.098 186.572 175.146 186.523 175.195C186.475 175.293 186.426 175.342 186.377 175.439C186.328 175.488 186.328 175.537 186.279 175.586L186.23 175.635L185.938 176.074V176.123C185.938 176.172 185.889 176.172 185.889 176.221C185.84 176.318 185.791 176.416 185.693 176.514C185.645 176.563 185.645 176.611 185.596 176.66C185.547 176.709 185.547 176.758 185.498 176.807C185.498 176.855 185.449 176.904 185.449 176.953C185.4 177.1 185.352 177.197 185.303 177.344C185.303 177.344 185.303 177.393 185.254 177.393C185.205 177.539 185.107 177.686 185.059 177.881C185.059 177.93 185.059 177.93 185.01 177.979C185.01 178.027 184.961 178.076 184.961 178.174C184.912 178.271 184.912 178.32 184.863 178.418C184.863 178.467 184.814 178.564 184.814 178.613C184.814 178.662 184.766 178.76 184.766 178.809C184.766 178.857 184.717 178.906 184.717 178.955C184.717 179.053 184.668 179.102 184.668 179.199C184.668 179.297 184.619 179.395 184.619 179.443V179.541C184.619 179.59 184.619 179.688 184.57 179.736C184.521 179.883 184.521 180.029 184.521 180.176V180.371C184.473 180.664 184.473 181.006 184.473 181.299V181.445L191.699 185.645V185.498C191.699 185.205 191.699 184.912 191.748 184.57C191.748 184.473 191.748 184.424 191.797 184.326C191.797 184.18 191.846 184.033 191.846 183.887C191.846 183.789 191.895 183.691 191.895 183.594C191.895 183.496 191.943 183.398 191.943 183.35C191.992 183.203 191.992 183.105 192.041 182.959C192.041 182.91 192.09 182.812 192.09 182.764L192.236 182.324C192.236 182.275 192.285 182.227 192.285 182.129C192.334 181.934 192.432 181.738 192.529 181.543C192.529 181.543 192.529 181.494 192.578 181.494C192.676 181.348 192.725 181.152 192.822 181.006C192.871 180.957 192.871 180.908 192.92 180.859C193.018 180.713 193.066 180.566 193.164 180.371C193.164 180.322 193.213 180.322 193.213 180.273C193.311 180.078 193.408 179.932 193.555 179.736C193.604 179.688 193.604 179.639 193.652 179.59C193.75 179.443 193.848 179.346 193.896 179.199C193.945 179.15 193.994 179.053 194.043 179.004C194.141 178.906 194.189 178.809 194.287 178.711C194.336 178.613 194.434 178.564 194.482 178.467C194.531 178.369 194.629 178.32 194.678 178.223C194.775 178.076 194.922 177.979 195.02 177.832L195.215 177.637C195.459 177.393 195.703 177.197 195.947 177.002C195.996 176.953 196.045 176.953 196.094 176.904C196.338 176.709 196.631 176.514 196.924 176.367C197.168 176.221 197.363 176.123 197.559 176.025C197.607 175.977 197.705 175.977 197.754 175.928C197.9 175.879 197.998 175.83 198.145 175.781C198.242 175.781 198.291 175.732 198.389 175.732C198.438 175.732 198.535 175.684 198.584 175.684C198.682 175.684 198.779 175.635 198.877 175.635H199.463C199.609 175.635 199.707 175.684 199.854 175.684H199.951C200.049 175.684 200.146 175.732 200.244 175.781C200.293 175.781 200.293 175.781 200.342 175.83C200.439 175.879 200.586 175.928 200.684 175.977L193.311 171.875Z" fill="#535354"/>
<path d="M253.906 179.932C254.004 179.883 254.102 179.883 254.199 179.834C254.248 179.834 254.346 179.785 254.395 179.785C254.443 179.785 254.492 179.736 254.541 179.736C254.639 179.736 254.688 179.688 254.736 179.688H255.176C255.273 179.688 255.371 179.688 255.469 179.736H255.566C255.664 179.736 255.713 179.785 255.811 179.785C255.811 179.785 255.859 179.785 255.859 179.834L256.152 179.98L248.926 175.781C248.877 175.732 248.779 175.732 248.73 175.684H248.682C248.682 175.684 248.633 175.684 248.633 175.635C248.584 175.635 248.584 175.586 248.535 175.586C248.486 175.586 248.438 175.586 248.438 175.537H248.291C248.193 175.537 248.145 175.537 248.047 175.488H247.412C247.363 175.488 247.314 175.488 247.266 175.537H247.168C247.119 175.537 247.119 175.537 247.07 175.586C246.973 175.635 246.875 175.635 246.777 175.684C246.729 175.684 246.729 175.684 246.68 175.732C246.68 175.732 246.631 175.732 246.631 175.781C246.484 175.83 246.289 175.928 246.143 176.025L241.602 178.662L248.828 182.861L253.369 180.225C253.564 180.127 253.711 180.029 253.857 179.98C253.809 179.98 253.857 179.98 253.906 179.932Z" fill="#535354"/>
<path d="M239.746 192.285L232.52 188.086H232.568L239.746 192.285Z" fill="#535354"/>
<path d="M239.746 192.285L232.52 188.086C232.617 188.135 232.715 188.184 232.764 188.232L239.99 192.432C239.941 192.383 239.844 192.334 239.746 192.285Z" fill="#535354"/>
<path d="M240.039 192.432L232.812 188.232C232.91 188.281 233.008 188.281 233.105 188.33L240.332 192.529C240.186 192.48 240.137 192.432 240.039 192.432Z" fill="#535354"/>
<path d="M240.283 192.529L233.057 188.33C233.154 188.379 233.252 188.379 233.35 188.379L240.576 192.578C240.479 192.578 240.381 192.529 240.283 192.529Z" fill="#535354"/>
<path d="M240.576 192.578L233.35 188.379C233.447 188.379 233.545 188.428 233.643 188.428L240.869 192.627C240.82 192.627 240.674 192.578 240.576 192.578Z" fill="#535354"/>
<path d="M240.918 192.627L233.691 188.428H234.033L241.26 192.627H240.918Z" fill="#535354"/>
<path d="M241.26 192.627L234.033 188.428C234.18 188.428 234.277 188.428 234.424 188.379L241.65 192.578C241.504 192.578 241.406 192.627 241.26 192.627Z" fill="#535354"/>
<path d="M241.65 192.578L234.424 188.379C234.57 188.379 234.717 188.33 234.863 188.281L242.09 192.48C241.943 192.529 241.797 192.578 241.65 192.578Z" fill="#535354"/>
<path d="M242.09 192.48L234.863 188.281C235.059 188.232 235.254 188.135 235.498 188.086L242.725 192.285C242.529 192.334 242.285 192.432 242.09 192.48Z" fill="#3232C7"/>
<path d="M242.725 192.285L235.498 188.086C235.742 187.988 235.986 187.842 236.23 187.744C236.865 187.402 237.451 186.914 237.988 186.377L245.215 190.576C244.678 191.113 244.092 191.553 243.457 191.943C243.213 192.041 242.969 192.187 242.725 192.285Z" fill="#3333CC"/>
<path d="M245.215 190.527L237.988 186.328L238.574 185.742L245.801 189.941C245.605 190.137 245.41 190.381 245.215 190.527Z" fill="#3232C7"/>
<path d="M245.752 189.941L238.525 185.742C238.672 185.596 238.818 185.4 238.965 185.205L246.191 189.404C246.045 189.6 245.898 189.795 245.752 189.941Z" fill="#535354"/>
<path d="M246.191 189.404L238.965 185.205C239.063 185.059 239.209 184.912 239.307 184.717L246.533 188.916C246.436 189.111 246.338 189.258 246.191 189.404Z" fill="#535354"/>
<path d="M246.533 188.965L239.307 184.766L239.6 184.326L246.826 188.525L246.533 188.965Z" fill="#535354"/>
<path d="M246.826 188.525L239.6 184.326L239.893 183.887L247.119 188.086L246.826 188.525Z" fill="#535354"/>
<path d="M247.119 188.037L239.893 183.838C239.99 183.691 240.039 183.545 240.137 183.398L247.363 187.598C247.266 187.744 247.217 187.891 247.119 188.037Z" fill="#535354"/>
<path d="M247.363 187.598L240.137 183.398C240.234 183.252 240.283 183.105 240.381 182.959L247.607 187.158C247.51 187.305 247.461 187.451 247.363 187.598Z" fill="#535354"/>
<path d="M247.607 187.158L240.381 182.959C240.43 182.813 240.527 182.666 240.576 182.52L247.803 186.719C247.754 186.865 247.656 187.012 247.607 187.158Z" fill="#535354"/>
<path d="M247.803 186.719L240.576 182.52C240.625 182.373 240.723 182.227 240.771 182.031L247.998 186.23C247.949 186.426 247.852 186.572 247.803 186.719Z" fill="#535354"/>
<path d="M247.998 186.23L240.771 182.031C240.82 181.885 240.869 181.689 240.967 181.543L248.193 185.742C248.096 185.938 248.047 186.084 247.998 186.23Z" fill="#262699"/>
<path d="M248.145 185.742L240.918 181.543C240.967 181.348 241.016 181.201 241.064 181.006L248.291 185.205C248.291 185.4 248.242 185.596 248.145 185.742Z" fill="#252594"/>
<path d="M248.34 185.205L241.113 181.006L241.26 180.42L248.486 184.619L248.34 185.205Z" fill="#24248F"/>
<path d="M248.486 184.619L241.26 180.42L241.406 179.688L248.633 183.887L248.486 184.619Z" fill="#23238A"/>
<path d="M248.584 183.887L241.357 179.688C241.406 179.346 241.406 179.004 241.406 178.662L248.633 182.861C248.682 183.203 248.633 183.545 248.584 183.887Z" fill="#212185"/>
<path d="M223.73 268.75L230.957 272.949C230.225 272.51 229.736 271.631 229.736 270.312L222.51 266.113C222.559 267.432 222.998 268.359 223.73 268.75ZM230.957 184.717L226.416 187.354C226.172 187.5 225.879 187.695 225.635 187.891C225.537 187.939 225.488 188.037 225.391 188.086C225.293 188.184 225.146 188.281 225.049 188.379C225 188.428 224.951 188.477 224.902 188.574L224.756 188.721L224.609 188.867C224.512 189.014 224.365 189.111 224.268 189.258C224.219 189.307 224.17 189.355 224.17 189.404C224.17 189.453 224.121 189.453 224.121 189.502C224.072 189.551 224.072 189.6 224.023 189.648C223.926 189.746 223.877 189.893 223.779 189.99C223.682 190.088 223.633 190.234 223.584 190.332V190.43L223.438 190.723C223.389 190.82 223.34 190.967 223.242 191.064C223.193 191.162 223.145 191.26 223.096 191.406C223.047 191.553 222.998 191.65 222.949 191.797C222.9 191.943 222.852 192.041 222.803 192.188C222.803 192.236 222.754 192.334 222.754 192.383C222.754 192.432 222.754 192.432 222.705 192.48C222.705 192.529 222.656 192.578 222.656 192.627C222.607 192.773 222.559 192.92 222.559 193.115C222.559 193.213 222.51 193.311 222.51 193.408C222.51 193.457 222.51 193.506 222.461 193.555V193.701C222.412 193.994 222.412 194.238 222.412 194.482L222.607 266.162L229.834 270.361L229.639 198.682C229.639 198.389 229.687 198.047 229.736 197.754C229.736 197.705 229.736 197.656 229.785 197.607C229.834 197.314 229.883 197.021 229.98 196.729C229.98 196.68 229.98 196.68 230.029 196.631C230.127 196.289 230.225 195.996 230.371 195.654C230.518 195.313 230.664 195.02 230.859 194.678V194.629L231.445 193.75C231.445 193.701 231.494 193.701 231.494 193.652L232.08 192.92L232.227 192.773C232.373 192.578 232.568 192.432 232.764 192.285C232.861 192.236 232.91 192.139 233.008 192.09C233.252 191.895 233.496 191.699 233.789 191.553L238.33 188.916L230.957 184.717Z" fill="#535354"/>
<path d="M253.223 180.274C255.469 178.955 257.324 180.029 257.324 182.617L257.52 254.297C257.52 256.885 255.664 260.107 253.418 261.377L233.887 272.705C231.641 274.024 229.785 272.949 229.785 270.361L229.59 198.682C229.59 196.094 231.445 192.871 233.691 191.602L238.232 188.965C238.232 192.285 240.576 193.604 243.457 191.943C246.338 190.283 248.682 186.231 248.682 182.91L253.223 180.274Z" fill="#111212"/>
<path d="M243.457 179.883C246.338 178.223 248.682 179.541 248.682 182.861C248.682 186.182 246.338 190.234 243.457 191.894C240.576 193.555 238.232 192.236 238.232 188.916C238.232 185.596 240.576 181.543 243.457 179.883Z" fill="white"/>
<path d="M239.941 175.342L239.648 175.195H239.6C239.551 175.195 239.551 175.195 239.502 175.146C239.453 175.146 239.404 175.098 239.355 175.098C239.307 175.098 239.258 175.098 239.209 175.049H239.062C238.965 175.049 238.867 175 238.77 175H238.037C237.988 175 237.939 175 237.891 175.049C237.842 175.049 237.744 175.098 237.695 175.098C237.646 175.098 237.598 175.098 237.598 175.146C237.549 175.146 237.5 175.195 237.5 175.195C237.402 175.244 237.256 175.293 237.109 175.342C237.061 175.342 237.012 175.391 236.963 175.391C236.963 175.391 236.914 175.439 236.865 175.439C236.67 175.537 236.426 175.635 236.23 175.781C235.937 175.928 235.693 176.123 235.4 176.318C235.352 176.367 235.303 176.367 235.254 176.416C235.01 176.611 234.766 176.855 234.521 177.051L234.473 177.1L234.375 177.197C234.277 177.295 234.131 177.441 234.033 177.588C233.984 177.637 233.984 177.686 233.936 177.686L233.838 177.783C233.789 177.881 233.691 177.93 233.643 178.027L233.496 178.174C233.447 178.223 233.447 178.271 233.398 178.32C233.35 178.369 233.301 178.467 233.252 178.516C233.203 178.564 233.203 178.613 233.154 178.662C233.105 178.76 233.057 178.809 233.008 178.906C232.959 178.955 232.959 179.004 232.91 179.053L232.861 179.102L232.568 179.541V179.59C232.568 179.639 232.52 179.639 232.52 179.688C232.471 179.785 232.422 179.883 232.324 180.029C232.275 180.078 232.275 180.127 232.227 180.176C232.178 180.225 232.178 180.273 232.129 180.322C232.129 180.371 232.08 180.42 232.08 180.469C232.031 180.615 231.982 180.713 231.885 180.859C231.885 180.859 231.885 180.908 231.836 180.908C231.787 181.055 231.689 181.201 231.641 181.396C231.641 181.445 231.641 181.445 231.592 181.494C231.592 181.543 231.543 181.592 231.543 181.689C231.494 181.787 231.494 181.836 231.445 181.934C231.445 181.982 231.396 182.031 231.396 182.129C231.396 182.178 231.348 182.275 231.348 182.324C231.348 182.373 231.348 182.422 231.299 182.471C231.299 182.568 231.25 182.617 231.25 182.715C231.25 182.813 231.201 182.91 231.201 182.959V183.057C231.201 183.105 231.152 183.203 231.152 183.252C231.104 183.398 231.104 183.545 231.104 183.691V183.887C231.055 184.18 231.055 184.521 231.055 184.814V184.912L238.281 189.014C238.281 188.721 238.281 188.428 238.33 188.135V187.939C238.33 187.793 238.379 187.646 238.379 187.5C238.379 187.451 238.379 187.354 238.428 187.305V187.207C238.428 187.109 238.477 187.012 238.477 186.963C238.477 186.865 238.525 186.816 238.525 186.719C238.525 186.67 238.574 186.621 238.574 186.572C238.574 186.523 238.623 186.426 238.623 186.377C238.623 186.328 238.672 186.23 238.672 186.182C238.721 186.084 238.721 186.035 238.77 185.937C238.77 185.889 238.818 185.84 238.818 185.742C238.818 185.693 238.818 185.693 238.867 185.645C238.916 185.498 239.014 185.352 239.062 185.156C239.062 185.156 239.062 185.107 239.111 185.107C239.16 184.961 239.209 184.863 239.258 184.717C239.258 184.668 239.307 184.619 239.307 184.57C239.355 184.521 239.355 184.473 239.404 184.424C239.453 184.375 239.453 184.326 239.502 184.277C239.551 184.18 239.6 184.082 239.697 183.936C239.697 183.887 239.746 183.887 239.746 183.838V183.789L240.039 183.35L240.088 183.301C240.137 183.252 240.137 183.203 240.186 183.154C240.234 183.057 240.283 183.008 240.332 182.91C240.381 182.861 240.381 182.812 240.43 182.764C240.479 182.715 240.527 182.617 240.576 182.568C240.625 182.52 240.625 182.471 240.674 182.422L240.82 182.275C240.869 182.178 240.967 182.129 241.016 182.031L241.113 181.934L241.211 181.836C241.309 181.689 241.455 181.592 241.553 181.445C241.602 181.396 241.602 181.348 241.65 181.348L241.699 181.299C241.943 181.055 242.187 180.859 242.432 180.664C242.48 180.615 242.529 180.615 242.578 180.566C242.822 180.371 243.115 180.176 243.408 180.029C243.652 179.883 243.848 179.785 244.043 179.688C244.092 179.639 244.189 179.639 244.238 179.59C244.385 179.541 244.482 179.492 244.629 179.443C244.727 179.443 244.775 179.395 244.873 179.395C244.922 179.395 245.02 179.346 245.068 179.346C245.166 179.346 245.264 179.297 245.361 179.297H245.947C246.094 179.297 246.191 179.346 246.338 179.346H246.436C246.533 179.346 246.631 179.395 246.729 179.443C246.777 179.443 246.777 179.443 246.826 179.492C246.924 179.541 247.07 179.59 247.168 179.639L239.941 175.342Z" fill="#535354"/>
<path d="M300.293 92.3828C300.391 92.334 300.488 92.334 300.586 92.2852C300.635 92.2852 300.732 92.2363 300.781 92.2363C300.83 92.2363 300.879 92.1875 300.928 92.1875C301.025 92.1875 301.074 92.1387 301.123 92.1387H301.611C301.709 92.1387 301.807 92.1387 301.904 92.1875H302.002C302.1 92.1875 302.148 92.2363 302.246 92.2363C302.246 92.2363 302.295 92.2363 302.295 92.2852L302.588 92.4316L295.361 88.2324C295.312 88.1836 295.215 88.1836 295.166 88.1348H295.117C295.117 88.1348 295.068 88.1348 295.068 88.0859C295.02 88.0859 295.02 88.0371 294.971 88.0371C294.922 88.0371 294.873 88.0371 294.873 87.9883H294.727C294.629 87.9883 294.58 87.9883 294.482 87.9395H293.848C293.799 87.9395 293.75 87.9394 293.701 87.9883H293.603C293.555 87.9883 293.555 87.9883 293.506 88.0371C293.408 88.0859 293.311 88.0859 293.213 88.1348C293.164 88.1348 293.164 88.1348 293.115 88.1836C293.115 88.1836 293.066 88.1836 293.066 88.2324C292.92 88.2812 292.725 88.3789 292.578 88.4766L288.037 91.1133L295.264 95.3125L299.805 92.6758C300 92.5781 300.146 92.4805 300.293 92.4316C300.195 92.4316 300.244 92.3828 300.293 92.3828Z" fill="#535354"/>
<path d="M286.133 104.736L278.906 100.537H278.955L286.133 104.736C286.182 104.736 286.182 104.736 286.133 104.736Z" fill="#535354"/>
<path d="M286.182 104.736L278.955 100.537C279.053 100.586 279.15 100.635 279.199 100.684L286.426 104.883C286.328 104.834 286.279 104.785 286.182 104.736Z" fill="#535354"/>
<path d="M286.426 104.883L279.199 100.684C279.297 100.732 279.395 100.732 279.492 100.781L286.719 104.98C286.621 104.932 286.523 104.883 286.426 104.883Z" fill="#535354"/>
<path d="M286.719 104.98L279.492 100.781C279.59 100.83 279.687 100.83 279.785 100.83L287.012 105.029C286.914 105.029 286.816 104.98 286.719 104.98Z" fill="#535354"/>
<path d="M287.012 105.029L279.785 100.83C279.883 100.83 279.98 100.879 280.078 100.879L287.305 105.078C287.207 105.078 287.109 105.029 287.012 105.029Z" fill="#535354"/>
<path d="M287.305 105.078L280.078 100.879H280.42L287.646 105.078H287.305Z" fill="#535354"/>
<path d="M287.695 105.078L280.469 100.879C280.615 100.879 280.713 100.879 280.859 100.83L288.086 105.029C287.939 105.029 287.793 105.078 287.695 105.078Z" fill="#535354"/>
<path d="M288.086 105.029L280.859 100.83C281.006 100.83 281.152 100.781 281.299 100.732L288.525 104.932C288.379 104.98 288.232 105.029 288.086 105.029Z" fill="#535354"/>
<path d="M288.525 104.932L281.299 100.732C281.494 100.684 281.689 100.586 281.934 100.537L289.16 104.736C288.916 104.834 288.721 104.883 288.525 104.932Z" fill="#3232C7"/>
<path d="M289.16 104.736L281.934 100.537C282.178 100.439 282.422 100.293 282.666 100.195C283.301 99.8535 283.887 99.3652 284.424 98.8281L291.65 103.027C291.113 103.564 290.527 104.004 289.893 104.395C289.6 104.492 289.355 104.639 289.16 104.736Z" fill="#3333CC"/>
<path d="M291.602 103.027L284.375 98.8281L284.961 98.2422L292.188 102.441L291.602 103.027Z" fill="#3232C7"/>
<path d="M292.188 102.393L284.961 98.1934C285.107 98.0469 285.254 97.8516 285.4 97.6562L292.627 101.855C292.48 102.051 292.334 102.246 292.188 102.393Z" fill="#535354"/>
<path d="M292.627 101.904L285.4 97.7051C285.498 97.5586 285.645 97.4121 285.742 97.2168L292.969 101.416C292.822 101.562 292.725 101.709 292.627 101.904Z" fill="#535354"/>
<path d="M292.969 101.416L285.742 97.2168L286.035 96.7773L293.262 100.977L292.969 101.416Z" fill="#535354"/>
<path d="M293.262 100.977L286.035 96.7773L286.328 96.3379L293.555 100.537L293.262 100.977Z" fill="#535354"/>
<path d="M293.506 100.537L286.279 96.3379C286.377 96.1914 286.426 96.0449 286.523 95.8984L293.75 100.098C293.701 100.244 293.604 100.391 293.506 100.537Z" fill="#535354"/>
<path d="M293.75 100.098L286.523 95.8984C286.621 95.752 286.67 95.6055 286.768 95.459L293.994 99.6582C293.945 99.8047 293.848 99.9512 293.75 100.098Z" fill="#535354"/>
<path d="M293.994 99.6582L286.768 95.459C286.816 95.3125 286.914 95.166 286.963 95.0195L294.189 99.2187C294.141 99.3164 294.092 99.4629 293.994 99.6582Z" fill="#535354"/>
<path d="M294.189 99.1699L286.963 94.9707C287.012 94.8242 287.109 94.6777 287.158 94.4824L294.385 98.6816C294.336 98.877 294.287 99.0234 294.189 99.1699Z" fill="#535354"/>
<path d="M294.385 98.7305L287.158 94.5313C287.207 94.3848 287.305 94.1895 287.354 94.043L294.58 98.2422C294.531 98.3887 294.482 98.5352 294.385 98.7305Z" fill="#262699"/>
<path d="M294.58 98.1934L287.354 93.9941C287.402 93.7988 287.451 93.6523 287.5 93.457L294.727 97.6563C294.678 97.8516 294.629 98.0469 294.58 98.1934Z" fill="#252594"/>
<path d="M294.727 97.7051L287.5 93.5059L287.646 92.9199L294.873 97.1191C294.824 97.2656 294.775 97.4609 294.727 97.7051Z" fill="#24248F"/>
<path d="M294.873 97.0703L287.646 92.8711L287.793 92.1387L295.02 96.3379L294.873 97.0703Z" fill="#23238A"/>
<path d="M295.02 96.3379L287.793 92.1387C287.842 91.7969 287.842 91.4551 287.842 91.1133L295.068 95.3125C295.068 95.6543 295.068 95.9961 295.02 96.3379Z" fill="#212185"/>
<path d="M270.361 243.018L277.588 247.217C276.855 246.777 276.367 245.898 276.367 244.58L269.141 240.381C269.141 241.699 269.629 242.627 270.361 243.018Z" fill="#535354"/>
<path d="M277.441 97.168L272.9 99.8047C272.656 99.9512 272.363 100.146 272.119 100.342C272.021 100.391 271.973 100.488 271.875 100.537C271.777 100.635 271.631 100.732 271.533 100.83L271.387 100.977L271.24 101.123L271.094 101.27C270.996 101.416 270.85 101.514 270.752 101.66C270.703 101.709 270.654 101.758 270.654 101.807C270.654 101.855 270.605 101.855 270.605 101.904C270.557 101.953 270.557 102.002 270.508 102.051C270.41 102.148 270.361 102.295 270.264 102.393C270.166 102.49 270.117 102.637 270.068 102.734V102.832L269.922 103.125C269.873 103.223 269.824 103.369 269.727 103.467L269.58 103.76C269.531 103.906 269.482 104.004 269.434 104.15C269.385 104.297 269.336 104.395 269.287 104.541C269.287 104.59 269.238 104.687 269.238 104.736C269.238 104.785 269.238 104.785 269.189 104.834C269.189 104.883 269.141 104.932 269.141 104.98C269.092 105.127 269.043 105.273 269.043 105.469C269.043 105.566 268.994 105.664 268.994 105.762C268.994 105.811 268.994 105.859 268.945 105.908V106.055C268.896 106.348 268.896 106.592 268.896 106.836L269.287 240.332L276.367 244.629L275.977 111.133C275.977 110.84 276.025 110.498 276.074 110.205C276.074 110.156 276.074 110.107 276.123 110.059C276.172 109.766 276.221 109.473 276.318 109.18C276.318 109.131 276.318 109.131 276.367 109.082C276.465 108.74 276.562 108.447 276.709 108.105C276.855 107.764 277.002 107.471 277.197 107.129V107.08L277.783 106.201C277.783 106.152 277.832 106.152 277.832 106.104L278.418 105.371L278.564 105.225C278.711 105.029 278.906 104.883 279.102 104.736C279.199 104.687 279.248 104.59 279.346 104.541C279.59 104.346 279.834 104.15 280.127 104.004L284.668 101.367L277.441 97.168Z" fill="#535354"/>
<path d="M299.609 92.7246C301.855 91.4062 303.711 92.4804 303.76 95.0683L304.15 228.564C304.15 231.152 302.295 234.375 300.049 235.644L280.469 246.924C278.223 248.242 276.367 247.168 276.318 244.58L275.928 111.084C275.928 108.496 277.783 105.273 280.029 104.004L284.57 101.367C284.57 104.687 286.914 106.006 289.795 104.346C292.676 102.685 295.02 98.6328 295.02 95.3125L299.609 92.7246Z" fill="#111212"/>
<path d="M289.893 92.3339C292.773 90.6738 295.117 91.9921 295.117 95.3124C295.117 98.6327 292.773 102.685 289.893 104.346C287.012 106.006 284.668 104.687 284.668 101.367C284.668 98.0468 287.012 93.9941 289.893 92.3339Z" fill="white"/>
<path d="M286.377 87.793L286.084 87.6465H286.035C285.986 87.6465 285.986 87.6465 285.937 87.5977C285.889 87.5977 285.84 87.5488 285.791 87.5488C285.742 87.5488 285.693 87.5488 285.645 87.5H285.498C285.4 87.5 285.303 87.4512 285.205 87.4512H284.473C284.424 87.4512 284.375 87.4512 284.326 87.5C284.277 87.5 284.18 87.5488 284.131 87.5488C284.082 87.5488 284.033 87.5488 284.033 87.5977C283.984 87.5977 283.936 87.6465 283.936 87.6465C283.838 87.6953 283.691 87.7441 283.545 87.793C283.496 87.793 283.447 87.8418 283.398 87.8418C283.35 87.8418 283.35 87.8906 283.301 87.8906C283.105 87.9883 282.861 88.0859 282.666 88.2324C282.373 88.3789 282.129 88.5742 281.836 88.7695C281.787 88.8184 281.738 88.8184 281.689 88.8672C281.445 89.0625 281.201 89.3066 280.957 89.502L280.908 89.5508L280.811 89.6484C280.713 89.7461 280.566 89.8926 280.469 90.0391C280.42 90.0879 280.42 90.1367 280.371 90.1367L280.273 90.2344C280.225 90.332 280.127 90.3809 280.078 90.4785L279.932 90.625C279.883 90.6738 279.883 90.7227 279.834 90.7715C279.785 90.8203 279.736 90.918 279.688 90.9668C279.639 91.0156 279.639 91.0645 279.59 91.1133C279.541 91.2109 279.492 91.2598 279.443 91.3574C279.395 91.4063 279.395 91.4551 279.346 91.5039L279.297 91.5527L279.004 91.9922V92.041C279.004 92.0898 278.955 92.0898 278.955 92.1387C278.906 92.2363 278.857 92.334 278.76 92.4805C278.711 92.5293 278.711 92.5781 278.662 92.6269C278.613 92.6758 278.613 92.7246 278.564 92.7734C278.564 92.8223 278.516 92.8711 278.516 92.9199C278.467 93.0664 278.418 93.1641 278.32 93.3105C278.32 93.3105 278.32 93.3594 278.272 93.3594C278.223 93.5059 278.125 93.6523 278.076 93.8477C278.076 93.8965 278.076 93.8965 278.027 93.9453C278.027 93.9941 277.979 94.043 277.979 94.0918C277.93 94.1894 277.93 94.2383 277.881 94.3359C277.881 94.3848 277.832 94.4336 277.832 94.5313C277.832 94.5801 277.783 94.6777 277.783 94.7266C277.783 94.7754 277.783 94.8242 277.734 94.873C277.734 94.9707 277.686 95.0195 277.686 95.1172C277.686 95.2148 277.637 95.3125 277.637 95.3613V95.459C277.637 95.5078 277.588 95.6055 277.588 95.6543C277.539 95.8008 277.539 95.9473 277.539 96.0937V96.2891C277.49 96.582 277.49 96.875 277.49 97.168L284.717 101.465V101.416C284.717 101.123 284.717 100.83 284.766 100.488V100.293C284.766 100.146 284.814 100 284.814 99.8535C284.814 99.8047 284.814 99.707 284.863 99.6582V99.5605C284.863 99.4629 284.912 99.3652 284.912 99.3164C284.912 99.2187 284.961 99.1699 284.961 99.0723C284.961 99.0234 285.01 98.9746 285.01 98.9258C285.01 98.877 285.059 98.7793 285.059 98.7305C285.059 98.6816 285.107 98.584 285.107 98.5352C285.156 98.4375 285.156 98.3887 285.205 98.291C285.205 98.2422 285.254 98.1934 285.254 98.1445C285.254 98.0957 285.254 98.0957 285.303 98.0469C285.352 97.9004 285.449 97.7539 285.498 97.5586C285.498 97.5586 285.498 97.5098 285.547 97.5098C285.596 97.3633 285.645 97.2656 285.693 97.1191C285.693 97.0703 285.742 97.0215 285.742 96.9727C285.791 96.9238 285.791 96.875 285.84 96.8262C285.889 96.7773 285.889 96.7285 285.937 96.6797C285.986 96.582 286.035 96.4844 286.133 96.3379C286.133 96.2891 286.182 96.2891 286.182 96.2402V96.1914L286.475 95.752L286.523 95.7031C286.572 95.6543 286.572 95.6055 286.621 95.5566C286.67 95.459 286.719 95.4102 286.768 95.3125C286.816 95.2637 286.816 95.2148 286.865 95.166C286.914 95.1172 286.963 95.0195 287.012 94.9707C287.061 94.9219 287.061 94.873 287.109 94.8242L287.256 94.6777C287.305 94.5801 287.402 94.5312 287.451 94.4336L287.549 94.3359L287.646 94.2383C287.744 94.0918 287.891 93.9941 287.988 93.8477L288.086 93.75L288.135 93.7012C288.379 93.457 288.623 93.2617 288.867 93.0664C288.916 93.0176 288.965 93.0176 289.014 92.9687C289.258 92.7734 289.551 92.5781 289.844 92.4316C290.088 92.2852 290.283 92.1875 290.479 92.0898C290.527 92.041 290.625 92.041 290.674 91.9922C290.82 91.9434 290.918 91.8945 291.064 91.8457C291.162 91.8457 291.211 91.7969 291.309 91.7969C291.357 91.7969 291.455 91.748 291.504 91.748C291.602 91.748 291.699 91.6992 291.797 91.6992H292.383C292.529 91.6992 292.627 91.748 292.773 91.748H292.871C292.969 91.748 293.066 91.7969 293.164 91.8457C293.213 91.8457 293.213 91.8457 293.262 91.8945C293.359 91.9434 293.506 91.9922 293.604 92.041L286.377 87.793Z" fill="#535354"/>
<path d="M351.172 212.061C351.123 212.061 351.123 212.061 351.172 212.061C351.025 211.963 350.928 211.914 350.781 211.865H350.732C350.684 211.865 350.635 211.816 350.635 211.816C350.586 211.816 350.537 211.768 350.439 211.768C350.391 211.768 350.293 211.719 350.244 211.719C350.195 211.719 350.146 211.719 350.146 211.67H350.098C349.951 211.67 349.854 211.621 349.707 211.621H348.779C348.73 211.621 348.682 211.67 348.633 211.67C348.535 211.67 348.438 211.719 348.34 211.719C348.291 211.719 348.242 211.719 348.193 211.768C348.145 211.768 348.096 211.816 348.047 211.816C347.9 211.865 347.754 211.914 347.559 211.963C347.51 211.963 347.461 212.012 347.412 212.012C347.363 212.012 347.363 212.061 347.314 212.061C347.021 212.158 346.777 212.305 346.484 212.451L278.174 251.953C277.832 252.148 277.49 252.393 277.148 252.637C277.1 252.686 277.051 252.734 276.953 252.783C276.611 253.027 276.318 253.32 276.025 253.613C275.977 253.662 275.977 253.662 275.928 253.662L275.781 253.809C275.635 253.955 275.488 254.102 275.342 254.297L275.195 254.443C275.146 254.492 275.146 254.541 275.098 254.59C275 254.688 274.902 254.785 274.854 254.883C274.805 254.932 274.756 255.029 274.707 255.078C274.658 255.127 274.609 255.176 274.561 255.273C274.512 255.371 274.414 255.42 274.365 255.518C274.316 255.566 274.268 255.615 274.219 255.713C274.17 255.811 274.072 255.908 274.023 256.006C273.975 256.055 273.926 256.152 273.877 256.201C273.877 256.25 273.828 256.25 273.828 256.299C273.73 256.494 273.584 256.689 273.486 256.836V256.885C273.486 256.934 273.437 256.982 273.437 256.982C273.34 257.129 273.291 257.275 273.193 257.373C273.145 257.422 273.145 257.52 273.096 257.568C273.047 257.617 273.047 257.715 272.998 257.764C272.949 257.813 272.949 257.861 272.9 257.959C272.803 258.105 272.754 258.252 272.705 258.398C272.705 258.447 272.656 258.447 272.656 258.496C272.559 258.691 272.51 258.887 272.412 259.082C272.412 259.131 272.363 259.131 272.363 259.18C272.314 259.229 272.314 259.326 272.266 259.375C272.217 259.473 272.168 259.57 272.168 259.668C272.119 259.766 272.119 259.814 272.119 259.912C272.07 260.01 272.07 260.107 272.021 260.205C272.021 260.254 271.973 260.303 271.973 260.4C271.924 260.498 271.924 260.596 271.875 260.693C271.826 260.791 271.826 260.937 271.777 261.035C271.777 261.084 271.777 261.133 271.729 261.133C271.729 261.23 271.68 261.279 271.68 261.377C271.631 261.572 271.631 261.719 271.582 261.914C271.582 261.963 271.582 262.012 271.533 262.061V262.207C271.484 262.598 271.436 262.988 271.436 263.379L271.582 308.936C271.582 310.498 272.021 311.719 272.705 312.5C272.949 312.744 273.193 312.988 273.486 313.184L280.713 317.383C279.541 316.699 278.809 315.234 278.76 313.135L278.809 267.578C278.809 267.188 278.857 266.797 278.906 266.406C278.906 266.309 278.906 266.211 278.955 266.113C279.004 265.918 279.004 265.771 279.053 265.576C279.053 265.479 279.102 265.332 279.102 265.234C279.15 265.137 279.15 264.99 279.199 264.893C279.248 264.746 279.297 264.6 279.346 264.404C279.395 264.307 279.395 264.209 279.443 264.111C279.492 263.916 279.541 263.77 279.639 263.574C279.687 263.525 279.687 263.428 279.736 263.379L280.029 262.646C280.029 262.598 280.078 262.598 280.078 262.549C280.176 262.354 280.273 262.109 280.371 261.914C280.42 261.865 280.42 261.768 280.469 261.719C280.566 261.523 280.664 261.328 280.811 261.133C280.811 261.084 280.859 261.035 280.859 261.035C281.006 260.791 281.152 260.596 281.299 260.352C281.348 260.303 281.396 260.205 281.445 260.156C281.543 260.01 281.641 259.863 281.787 259.668C281.836 259.57 281.885 259.521 281.982 259.424C282.08 259.277 282.178 259.18 282.275 259.033C282.373 258.936 282.422 258.838 282.52 258.74C282.617 258.643 282.666 258.545 282.764 258.447C282.91 258.301 283.057 258.105 283.203 257.959C283.252 257.861 283.35 257.813 283.398 257.764C283.691 257.471 284.033 257.178 284.326 256.934C284.375 256.885 284.424 256.836 284.521 256.787C284.863 256.543 285.205 256.299 285.547 256.104L353.857 216.699C354.15 216.553 354.395 216.406 354.688 216.309C354.785 216.26 354.883 216.26 354.932 216.211C355.078 216.162 355.225 216.113 355.42 216.064C355.518 216.016 355.615 216.016 355.713 215.967C355.811 215.967 355.908 215.918 356.006 215.918C356.103 215.918 356.25 215.869 356.348 215.869H357.08C357.227 215.869 357.422 215.918 357.568 215.918C357.617 215.918 357.666 215.918 357.666 215.967C357.812 216.016 357.91 216.016 358.008 216.064C358.057 216.064 358.105 216.113 358.105 216.113C358.252 216.162 358.398 216.26 358.545 216.309L351.172 212.061Z" fill="#535354"/>
<path d="M353.854 215.908C357.516 213.808 360.494 215.468 360.494 219.668L360.641 265.224C360.641 269.424 357.711 274.551 354.049 276.65L285.738 316.054C282.076 318.154 279.098 316.445 279.098 312.295L279 266.787C279 262.588 281.93 257.461 285.592 255.361L353.854 215.908Z" fill="#111212"/>
<path d="M337.939 259.326L332.861 256.396C332.812 256.348 332.764 256.348 332.715 256.25L337.793 259.18C337.842 259.277 337.891 259.326 337.939 259.326Z" fill="#674611"/>
<path d="M336.279 257.08L331.201 254.15L332.764 256.25L337.842 259.229L336.279 257.08Z" fill="#E8CFAC"/>
<path d="M337.549 239.795C338.232 239.404 338.672 239.99 338.33 240.869L333.74 252.734C333.594 253.174 333.252 253.516 332.959 253.711C332.666 253.906 332.373 253.906 332.178 253.662L330.664 251.514L316.895 268.701C316.65 268.994 316.357 269.238 316.113 269.434C315.576 269.727 315.039 269.727 314.746 269.336L310.84 263.867L297.119 280.957C296.875 281.25 296.582 281.494 296.338 281.69C295.801 282.031 295.264 281.982 294.971 281.592C294.531 280.957 294.775 279.688 295.557 278.76L310.645 259.961C310.889 259.668 311.182 259.424 311.426 259.229C311.963 258.887 312.5 258.936 312.793 259.326L316.699 264.795L329.102 249.316L327.588 247.168C327.246 246.68 327.686 245.606 328.32 245.215L337.549 239.795Z" fill="#535354"/>
<path d="M317.188 267.383L322.266 270.312L334.668 254.834L333.154 252.686L328.076 249.756L329.59 251.855L317.188 267.383Z" fill="white"/>
<path d="M343.75 245.313L341.162 243.799L338.672 242.334H338.135C338.086 242.334 338.037 242.383 337.988 242.383L328.76 247.754C328.662 247.803 328.564 247.9 328.467 247.949L328.369 248.047L328.32 248.096C328.32 248.145 328.271 248.145 328.271 248.193C328.271 248.242 328.223 248.242 328.223 248.291C328.223 248.34 328.174 248.34 328.174 248.389V248.438C328.174 248.486 328.125 248.486 328.125 248.535C328.125 248.584 328.125 248.584 328.076 248.633C328.076 248.682 328.076 248.682 328.027 248.73C328.027 248.779 328.027 248.779 327.979 248.828C327.979 248.877 327.979 248.877 327.93 248.926C327.93 248.975 327.93 248.975 327.881 249.023V249.463C327.881 249.561 327.93 249.658 327.979 249.707L333.057 252.637C333.008 252.588 332.959 252.49 332.959 252.393V251.904C333.008 251.709 333.057 251.514 333.154 251.367C333.203 251.27 333.252 251.172 333.301 251.123C333.35 251.074 333.398 250.977 333.496 250.928C333.594 250.83 333.691 250.781 333.789 250.732L343.018 245.361C343.066 245.313 343.115 245.313 343.164 245.264H343.213C343.262 245.264 343.311 245.215 343.359 245.215H343.506C343.701 245.313 343.75 245.313 343.75 245.313C343.799 245.313 343.799 245.313 343.75 245.313ZM320.313 274.854L316.406 269.385L311.328 266.455L315.234 271.924C315.283 272.022 315.381 272.119 315.479 272.168L320.557 275.098C320.459 275.049 320.41 274.951 320.313 274.854Z" fill="white"/>
<path d="M312.988 261.67C312.939 261.67 312.939 261.621 312.891 261.621C312.842 261.621 312.842 261.621 312.793 261.572H312.451C312.402 261.572 312.353 261.572 312.305 261.621C312.305 261.621 312.256 261.621 312.256 261.67H312.158C312.061 261.719 312.012 261.719 311.914 261.768C311.816 261.816 311.67 261.914 311.572 262.012L311.475 262.109L311.377 262.207L311.182 262.402L311.084 262.5L295.996 281.299L301.074 284.228L316.162 265.43C316.26 265.283 316.406 265.186 316.504 265.039L316.602 264.941C316.699 264.844 316.846 264.746 316.943 264.697L317.236 264.551H317.285C317.383 264.502 317.48 264.502 317.529 264.502H317.773C317.871 264.502 317.92 264.551 318.018 264.6L312.988 261.67Z" fill="white"/>
<path d="M295.85 281.494C295.801 281.543 295.801 281.592 295.752 281.641V281.689C295.752 281.738 295.703 281.738 295.703 281.787C295.654 281.836 295.654 281.885 295.605 281.934C295.605 281.982 295.557 282.031 295.557 282.08C295.557 282.129 295.508 282.129 295.508 282.178C295.508 282.227 295.459 282.275 295.459 282.324C295.459 282.373 295.41 282.422 295.41 282.471C295.41 282.52 295.361 282.568 295.361 282.617C295.361 282.666 295.312 282.764 295.312 282.813V282.861C295.312 282.91 295.312 282.959 295.264 283.008V283.643C295.312 283.789 295.361 283.984 295.459 284.082C295.508 284.18 295.605 284.277 295.703 284.326L300.781 287.256C300.684 287.207 300.586 287.109 300.537 287.012C300.439 286.865 300.391 286.719 300.342 286.572V286.523C300.293 286.377 300.293 286.182 300.342 285.986C300.342 285.938 300.342 285.84 300.391 285.791V285.742C300.439 285.596 300.439 285.498 300.488 285.352C300.537 285.205 300.586 285.107 300.635 284.961C300.684 284.814 300.781 284.717 300.83 284.57C300.928 284.424 300.977 284.326 301.074 284.229L295.996 281.299L295.947 281.348C295.898 281.397 295.898 281.445 295.85 281.494Z" fill="white"/>
<path d="M343.164 245.41C343.848 245.02 344.287 245.605 343.945 246.484L339.355 258.301C339.209 258.74 338.867 259.082 338.574 259.277C338.281 259.473 337.988 259.473 337.793 259.229L336.279 257.08L322.461 274.268C322.217 274.561 321.924 274.805 321.68 275C321.143 275.342 320.605 275.293 320.312 274.902L316.406 269.434L302.686 286.523C302.441 286.816 302.148 287.061 301.904 287.256C301.367 287.598 300.83 287.549 300.537 287.158C300.098 286.523 300.342 285.254 301.123 284.326L316.211 265.527C316.455 265.234 316.748 264.99 316.992 264.795C317.529 264.453 318.066 264.502 318.359 264.893L322.266 270.361L334.668 254.883L333.154 252.734C332.812 252.246 333.252 251.172 333.887 250.781L343.164 245.41Z" fill="#535354"/>
</svg>
