<svg width="500" height="500" viewBox="0 0 500 500" fill="none" xmlns="http://www.w3.org/2000/svg">
<path d="M442.102 310.977C441.565 316.348 436.633 319.033 432.434 321.475C428.528 323.721 424.622 326.016 420.764 328.262C414.514 331.875 408.313 335.488 402.063 339.102C394.25 343.643 386.487 348.184 378.674 352.676C370.081 357.656 361.487 362.686 352.844 367.666C344.202 372.695 335.559 377.725 326.868 382.754C318.909 387.393 310.998 391.982 303.039 396.621C296.545 400.381 290.1 404.141 283.606 407.9C279.358 410.342 275.11 412.832 270.862 415.273C267.639 417.129 264.612 418.984 260.95 420.059C251.428 422.793 240.881 421.865 232.288 416.885C229.211 415.078 226.086 413.32 223.01 411.514C217.346 408.242 211.731 405.02 206.067 401.748C198.645 397.451 191.223 393.154 183.801 388.906C175.354 384.023 166.858 379.141 158.411 374.258C149.67 369.229 140.93 364.15 132.19 359.121C123.938 354.336 115.686 349.6 107.385 344.814L86.2915 332.656C81.2622 329.727 76.184 326.846 71.1547 323.916C68.8598 322.598 66.5649 321.279 64.27 319.912C60.6567 317.813 57.0922 314.492 57.0922 310C57.0922 314.102 57.0922 318.203 57.0434 322.354C57.0434 323.818 56.9457 325.332 57.0434 326.846C57.3364 330.801 60.4614 333.877 63.7329 335.83C65.7348 337.051 67.7856 338.174 69.8364 339.346C75.1098 342.373 80.3832 345.449 85.6567 348.477C93.2739 352.871 100.842 357.266 108.459 361.66C117.493 366.885 126.575 372.109 135.608 377.334C145.032 382.803 154.456 388.223 163.928 393.691C172.913 398.867 181.848 404.043 190.832 409.219C198.303 413.516 205.725 417.813 213.196 422.109C218.225 425.039 223.303 427.92 228.332 430.85C231.262 432.51 234.143 434.414 237.317 435.586C247.229 439.199 258.85 438.418 267.981 433.096C271.448 431.094 274.914 429.043 278.381 427.041C284.778 423.33 291.174 419.619 297.522 415.908C305.872 411.074 314.172 406.24 322.522 401.357C331.848 395.938 341.174 390.518 350.452 385.098L378.43 368.838C386.78 363.955 395.129 359.121 403.528 354.238C410.022 350.479 416.516 346.719 423.01 342.91C426.575 340.811 430.188 338.76 433.752 336.66C434.827 336.025 435.95 335.391 436.975 334.658C439.709 332.607 441.858 329.775 441.907 326.211C441.956 324.404 441.907 322.646 441.907 320.84C441.907 317.275 441.907 313.662 441.956 310.098C442.151 310.488 442.151 310.732 442.102 310.977C442.102 311.123 442.102 310.879 442.102 310.977Z" fill="#111212"/>
<path d="M278.955 79.3946C276.465 77.9298 273.34 80.3712 271.191 81.6407L259.766 88.2325C254.053 91.5528 248.34 94.8243 242.627 98.1446C235.938 102.002 229.199 105.908 222.51 109.766C215.723 113.672 208.936 117.627 202.148 121.533L184.424 131.787C180.371 134.131 176.27 136.475 172.217 138.867C169.873 140.234 167.334 141.406 165.479 143.408C163.184 145.899 161.572 149.316 161.572 152.734V162.891C161.572 167.725 161.621 172.559 161.621 177.393C161.621 183.74 161.67 190.088 161.67 196.436C161.67 203.809 161.719 211.182 161.719 218.506C161.719 226.367 161.768 234.229 161.768 242.09C161.768 250 161.816 257.91 161.816 265.869C161.816 273.34 161.865 280.811 161.865 288.281C161.865 294.775 161.914 301.27 161.914 307.764C161.914 312.842 161.963 317.969 161.963 323.047C161.963 326.221 161.963 329.395 162.012 332.52C162.012 334.961 161.719 337.891 164.111 339.356C166.455 340.772 168.848 342.09 171.191 343.457C168.896 342.139 169.238 338.965 169.238 336.621C169.238 333.545 169.238 330.469 169.189 327.393C169.189 322.51 169.141 317.627 169.141 312.793C169.141 306.543 169.092 300.342 169.092 294.092C169.092 286.914 169.043 279.736 169.043 272.559C169.043 264.893 168.994 257.275 168.994 249.609C168.994 241.943 168.945 234.326 168.945 226.66C168.945 219.385 168.896 212.109 168.896 204.883C168.896 198.486 168.848 192.09 168.848 185.645C168.848 180.566 168.799 175.488 168.799 170.41C168.799 167.041 168.799 163.721 168.75 160.352C168.75 158.838 168.652 157.324 168.799 155.811C169.238 151.66 171.826 147.461 175.391 145.361L177.148 144.336C180.371 142.481 183.545 140.625 186.768 138.818C191.992 135.791 197.217 132.813 202.393 129.785C208.74 126.123 215.137 122.461 221.484 118.75C228.125 114.941 234.766 111.084 241.357 107.275C247.461 103.76 253.516 100.244 259.619 96.7286C264.307 93.9942 268.994 91.3087 273.73 88.5743C276.172 87.1583 278.613 85.7423 281.055 84.3751C282.617 83.4962 284.521 82.6661 286.23 83.6427C283.74 82.1778 281.348 80.7618 278.955 79.3946Z" fill="#535354"/>
<path d="M281.445 84.0332C285.107 81.9336 288.086 83.6425 288.086 87.8417L288.623 270.215C288.623 274.414 285.645 279.541 282.031 281.641L175.83 342.92C172.168 345.019 169.189 343.31 169.189 339.16L168.652 156.787C168.652 152.588 171.631 147.461 175.244 145.361L281.445 84.0332Z" fill="#111212"/>
<path d="M258.74 159.424C260.547 158.35 262.061 159.228 262.061 161.328C262.061 163.428 260.596 165.967 258.789 167.041L193.848 204.541C192.041 205.615 190.527 204.736 190.527 202.637C190.527 200.537 191.992 197.998 193.799 196.924L258.74 159.424Z" fill="#1C2222"/>
<path d="M265.869 165.674C266.406 165.478 267.09 165.43 267.627 165.723L263.086 163.086C261.963 162.451 261.182 162.256 259.961 162.89C258.838 163.476 257.764 164.16 256.689 164.795C250.684 168.262 244.629 171.777 238.623 175.244C230.762 179.785 222.949 184.326 215.088 188.818C209.326 192.139 203.516 195.508 197.754 198.828C196.777 199.365 195.801 199.902 194.873 200.488C192.969 201.758 191.309 204.59 191.895 206.933C192.139 207.861 192.773 208.203 193.555 208.642L196.338 210.254C196.875 210.596 197.461 210.889 197.998 211.23C195.801 209.961 197.607 206.152 198.73 204.785C199.268 204.15 199.902 203.662 200.586 203.223C201.66 202.588 202.783 201.953 203.906 201.318C208.838 198.486 213.721 195.654 218.652 192.822L238.428 181.396C244.385 177.93 250.342 174.512 256.299 171.045C258.301 169.922 260.254 168.75 262.256 167.627C262.891 167.285 263.525 166.894 264.16 166.553C264.355 166.455 265.039 166.211 265.137 165.967C265.137 165.918 265.234 165.918 265.283 165.918L263.525 164.892L264.551 165.478C265.234 165.918 265.137 165.967 265.869 165.674Z" fill="#535354"/>
<path d="M258.74 135.205C260.547 134.131 262.061 135.01 262.061 137.109C262.061 139.209 260.596 141.748 258.789 142.822L193.848 180.322C192.041 181.396 190.527 180.518 190.527 178.418C190.527 176.318 191.992 173.779 193.799 172.705L258.74 135.205Z" fill="#1C2222"/>
<path d="M265.283 165.967C267.09 164.893 268.604 165.771 268.604 167.871C268.604 169.971 267.139 172.51 265.332 173.584L200.391 211.084C198.584 212.158 197.07 211.279 197.07 209.18C197.07 207.08 198.535 204.541 200.342 203.467L265.283 165.967Z" fill="white"/>
<path d="M265.869 141.455C266.406 141.26 267.09 141.211 267.627 141.504L263.086 138.867C261.963 138.232 261.182 138.037 259.961 138.672C258.838 139.258 257.764 139.941 256.689 140.576C250.684 144.043 244.629 147.558 238.623 151.025C230.762 155.566 222.949 160.107 215.088 164.599C209.326 167.92 203.516 171.289 197.754 174.609C196.777 175.146 195.801 175.683 194.873 176.269C192.969 177.539 191.309 180.371 191.895 182.715C192.139 183.642 192.773 183.984 193.555 184.424L196.338 186.035C196.875 186.377 197.461 186.67 197.998 187.012C195.801 185.742 197.607 181.933 198.73 180.566C199.268 179.932 199.902 179.443 200.586 179.004C201.66 178.369 202.783 177.734 203.906 177.099C208.838 174.267 213.721 171.435 218.652 168.603L238.428 157.178C244.385 153.711 250.342 150.293 256.299 146.826C258.301 145.703 260.254 144.531 262.256 143.408C262.891 143.066 263.525 142.676 264.16 142.334C264.355 142.236 265.039 141.992 265.137 141.748C265.137 141.699 265.234 141.699 265.283 141.699L263.525 140.674L264.551 141.26C265.234 141.699 265.137 141.699 265.869 141.455Z" fill="#535354"/>
<path d="M230.029 201.269C231.836 200.195 233.35 201.074 233.35 203.174C233.35 205.273 231.885 207.812 230.029 208.887L193.799 229.834C191.992 230.908 190.479 230.029 190.479 227.93C190.479 225.83 191.943 223.291 193.75 222.217L230.029 201.269Z" fill="#1C2222"/>
<path d="M265.283 141.699C267.09 140.625 268.604 141.504 268.604 143.603C268.604 145.703 267.139 148.242 265.332 149.316L200.391 186.816C198.584 187.891 197.07 187.012 197.07 184.912C197.07 182.812 198.535 180.273 200.342 179.199L265.283 141.699Z" fill="white"/>
<path d="M233.643 204.492C232.227 203.711 230.127 205.371 228.955 206.055L220.605 210.889C213.721 214.844 206.836 218.848 199.951 222.803C198.291 223.73 196.68 224.707 195.02 225.635L196.777 226.66C196.338 226.416 195.654 225.781 195.166 225.732C194.531 225.635 193.701 226.709 193.311 227.197C192.285 228.516 191.357 230.615 191.895 232.324C192.285 233.545 193.799 234.082 194.775 234.668C195.85 235.303 196.924 235.889 197.949 236.523C196.582 235.742 196.924 233.691 197.314 232.471C197.803 231.104 198.682 229.834 199.853 228.955C200.342 228.613 200.879 228.32 201.367 228.027C204.053 226.465 206.787 224.902 209.473 223.34C216.992 218.994 224.463 214.697 231.982 210.352C233.203 209.668 234.375 208.984 235.596 208.252C236.572 207.715 237.744 206.836 238.867 207.471C237.158 206.543 235.4 205.518 233.643 204.492Z" fill="#535354"/>
<path d="M236.523 207.764C238.33 206.689 239.844 207.568 239.844 209.668C239.844 211.768 238.379 214.307 236.523 215.381L200.293 236.328C198.486 237.402 196.973 236.523 196.973 234.424C196.973 232.324 198.438 229.785 200.244 228.711L236.523 207.764Z" fill="white"/>
<path d="M328.955 234.424C326.367 232.959 322.998 235.596 320.801 236.865C316.553 239.307 312.305 241.748 308.057 244.238C302.148 247.656 296.24 251.074 290.332 254.443C284.424 257.861 278.516 261.279 272.607 264.648C268.311 267.139 263.965 269.629 259.668 272.119C256.592 273.926 253.711 275.391 251.66 278.516C250.146 280.859 249.316 283.447 249.316 286.23V291.357C249.316 297.852 249.365 304.297 249.365 310.791C249.365 316.65 249.414 322.51 249.414 328.369V331.445C249.463 333.398 250.195 334.863 251.904 335.84C253.223 336.621 254.59 337.402 255.908 338.184C256.787 338.721 257.666 339.209 258.594 339.746C256.738 338.672 256.689 336.426 256.641 334.473V329.15C256.641 323.096 256.592 317.09 256.592 311.035C256.592 305.371 256.543 299.658 256.543 293.994V290.137C256.543 286.621 258.154 283.154 260.547 280.615C262.402 278.662 264.99 277.441 267.334 276.074C271.436 273.73 275.488 271.338 279.59 268.994C285.059 265.82 290.527 262.695 295.947 259.522C301.514 256.299 307.129 253.076 312.695 249.854C317.041 247.314 321.387 244.824 325.781 242.285C327.637 241.211 329.492 240.088 331.396 239.063C332.813 238.281 334.619 237.744 336.133 238.574C333.789 237.207 331.396 235.84 328.955 234.424Z" fill="#535354"/>
<path d="M331.494 239.062C335.156 236.963 338.135 238.623 338.135 242.822L338.281 288.379C338.281 292.578 335.352 297.705 331.689 299.805L263.379 339.209C259.717 341.309 256.738 339.6 256.738 335.449L256.592 289.893C256.592 285.693 259.521 280.566 263.184 278.467L331.494 239.062Z" fill="#111212"/>
<path d="M315.771 281.689L310.693 278.76C310.645 278.711 310.596 278.711 310.547 278.613L315.625 281.543C315.674 281.641 315.723 281.689 315.771 281.689Z" fill="#674611"/>
<path d="M314.111 279.443L309.033 276.514L310.547 278.613L315.625 281.592L314.111 279.443Z" fill="#E8CFAC"/>
<path d="M315.381 262.158C316.064 261.768 316.504 262.354 316.162 263.232L311.572 275.098C311.426 275.537 311.084 275.879 310.791 276.074C310.498 276.27 310.205 276.27 310.01 276.025L308.496 273.877L294.678 291.064C294.434 291.357 294.141 291.602 293.896 291.797C293.359 292.09 292.822 292.09 292.529 291.699L288.623 286.23L274.902 303.32C274.658 303.613 274.365 303.857 274.121 304.053C273.584 304.395 273.047 304.346 272.754 303.955C272.314 303.32 272.559 302.051 273.34 301.123L288.428 282.324C288.672 282.031 288.965 281.787 289.209 281.592C289.746 281.25 290.283 281.299 290.576 281.689L294.482 287.158L306.885 271.68L305.371 269.531C305.029 269.043 305.469 267.969 306.104 267.578L315.381 262.158Z" fill="#1C2222"/>
<path d="M295.02 289.746L300.098 292.676L312.5 277.197L310.986 275.049L305.908 272.119L307.422 274.219L295.02 289.746Z" fill="white"/>
<path d="M321.582 267.676L318.994 266.162L316.504 264.697H316.455H316.406H316.357H316.309H316.26H316.113H316.064H316.016H315.967C315.918 264.697 315.869 264.746 315.82 264.746L306.592 270.117C306.494 270.166 306.396 270.264 306.299 270.313L306.201 270.41L306.152 270.459C306.152 270.508 306.104 270.508 306.104 270.557C306.104 270.605 306.055 270.605 306.055 270.654C306.055 270.703 306.006 270.703 306.006 270.752V270.801C306.006 270.85 305.957 270.85 305.957 270.898C305.957 270.947 305.957 270.947 305.908 270.996C305.908 271.045 305.908 271.045 305.859 271.094C305.859 271.143 305.859 271.143 305.811 271.191C305.811 271.24 305.811 271.24 305.762 271.289C305.762 271.338 305.762 271.338 305.713 271.387V271.826C305.713 271.924 305.762 272.022 305.811 272.07L310.889 275C310.84 274.951 310.791 274.854 310.791 274.756V274.658V274.463V274.268C310.84 274.072 310.889 273.877 310.986 273.73C311.035 273.633 311.084 273.535 311.133 273.486C311.182 273.438 311.23 273.34 311.328 273.291C311.426 273.193 311.523 273.145 311.621 273.096L320.85 267.725C320.898 267.676 320.947 267.676 320.996 267.627H321.045C321.094 267.627 321.143 267.578 321.191 267.578H321.338C321.484 267.676 321.533 267.676 321.582 267.676ZM298.145 297.217L294.238 291.748L289.16 288.818L293.066 294.287C293.115 294.385 293.213 294.482 293.311 294.531L298.389 297.461C298.291 297.412 298.193 297.314 298.145 297.217Z" fill="white"/>
<path d="M290.82 284.033C290.771 284.033 290.771 283.984 290.723 283.984C290.674 283.984 290.674 283.984 290.625 283.936H290.381H290.332H290.283C290.234 283.936 290.186 283.936 290.137 283.984C290.137 283.984 290.088 283.984 290.088 284.033H290.039H289.99C289.893 284.082 289.844 284.082 289.746 284.131C289.648 284.18 289.502 284.277 289.404 284.375L289.307 284.473L289.209 284.57L289.014 284.766L288.916 284.863L273.828 303.662L278.906 306.592L293.994 287.793C294.092 287.646 294.238 287.549 294.336 287.402L294.434 287.305C294.531 287.207 294.678 287.109 294.775 287.061L295.068 286.914H295.117C295.215 286.865 295.313 286.865 295.361 286.865H295.605C295.703 286.865 295.752 286.914 295.85 286.963L290.82 284.033ZM273.633 303.857C273.584 303.906 273.584 303.955 273.535 304.004V304.053C273.535 304.102 273.486 304.102 273.486 304.15C273.437 304.199 273.438 304.248 273.389 304.297C273.389 304.346 273.34 304.395 273.34 304.443C273.34 304.492 273.291 304.492 273.291 304.541C273.291 304.59 273.242 304.639 273.242 304.688C273.242 304.736 273.193 304.785 273.193 304.834C273.193 304.883 273.145 304.932 273.145 304.98C273.145 305.029 273.096 305.127 273.096 305.176V305.225C273.096 305.273 273.096 305.322 273.047 305.371V306.006C273.096 306.152 273.145 306.348 273.242 306.445C273.291 306.543 273.389 306.641 273.486 306.689L278.564 309.619C278.467 309.57 278.369 309.473 278.32 309.375C278.223 309.229 278.174 309.082 278.125 308.936V308.887C278.076 308.74 278.076 308.545 278.125 308.35C278.125 308.301 278.125 308.203 278.174 308.154V308.105C278.223 307.959 278.223 307.861 278.271 307.715C278.32 307.568 278.369 307.471 278.418 307.324C278.467 307.178 278.564 307.08 278.613 306.934C278.711 306.787 278.76 306.689 278.857 306.592L273.779 303.662L273.73 303.711C273.73 303.76 273.682 303.809 273.633 303.857Z" fill="white"/>
<path d="M320.947 267.773C321.631 267.383 322.07 267.969 321.729 268.848L317.139 280.713C316.992 281.152 316.65 281.494 316.357 281.689C316.064 281.885 315.771 281.885 315.576 281.641L314.062 279.492L300.293 296.631C300.049 296.924 299.756 297.168 299.512 297.363C298.975 297.705 298.437 297.656 298.145 297.266L294.238 291.797L280.518 308.887C280.273 309.18 279.98 309.424 279.736 309.619C279.199 309.961 278.662 309.912 278.369 309.522C277.93 308.887 278.174 307.617 278.955 306.689L294.043 287.891C294.287 287.598 294.58 287.354 294.824 287.158C295.361 286.816 295.898 286.865 296.191 287.256L300.098 292.725L312.5 277.246L310.986 275.098C310.645 274.609 311.084 273.535 311.719 273.145L320.947 267.773Z" fill="#535354"/>
</svg>
