<svg width="210" height="210" viewBox="0 0 210 210" fill="none" xmlns="http://www.w3.org/2000/svg">
<path d="M105.079 209.782C162.905 209.782 209.782 162.905 209.782 105.079C209.782 47.2531 162.905 0.375977 105.079 0.375977C47.2531 0.375977 0.375977 47.2531 0.375977 105.079C0.375977 162.905 47.2531 209.782 105.079 209.782Z" fill="#7DA5D4" fill-opacity="0.2"/>
<mask id="mask0_177_102" style="mask-type:luminance" maskUnits="userSpaceOnUse" x="0" y="0" width="210" height="210">
<path d="M105.079 209.782C162.905 209.782 209.782 162.905 209.782 105.079C209.782 47.2531 162.905 0.375977 105.079 0.375977C47.2531 0.375977 0.375977 47.2531 0.375977 105.079C0.375977 162.905 47.2531 209.782 105.079 209.782Z" fill="white"/>
</mask>
<g mask="url(#mask0_177_102)">
<path d="M81.273 201.232C62.272 201.062 43.363 195.032 27.772 184.169C12.181 173.306 0.762973 157.206 -5.97803 139.44C-2.61403 133.385 1.08197 126.999 7.22797 123.806C10.068 122.331 13.29 121.629 15.987 119.907C20.38 117.103 22.744 112.023 24.269 107.039C25.794 102.056 26.746 96.816 29.33 92.29C31.824 87.922 35.723 84.474 40.047 81.904C44.226 79.42 48.953 77.601 52.222 74.003C55.478 70.418 56.841 65.55 58.102 60.874C59.718 62.149 61.953 61.226 64.008 61.329C75.229 61.892 86.527 60.918 97.486 58.442C102.793 88.313 100.673 119.036 97.582 149.217C96.5 159.788 95.415 170.375 93.384 180.805C91.869 188.586 87.46 196.278 81.273 201.232Z" fill="#000035"/>
<path d="M127.347 201.232C146.348 201.062 165.257 195.032 180.848 184.169C196.439 173.306 207.857 157.206 214.598 139.44C211.234 133.385 207.538 126.999 201.392 123.806C198.552 122.331 195.33 121.629 192.633 119.907C188.24 117.103 185.876 112.023 184.351 107.039C182.826 102.056 181.874 96.816 179.29 92.29C176.796 87.922 172.898 84.474 168.574 81.904C164.395 79.42 159.668 77.601 156.399 74.003C153.143 70.418 151.78 65.55 150.519 60.874C148.903 62.149 146.668 61.226 144.612 61.329C133.391 61.892 122.093 60.918 111.134 58.442C105.828 88.313 107.948 119.036 111.038 149.217C112.12 159.788 113.205 170.375 115.236 180.805C116.751 188.586 121.16 196.278 127.347 201.232Z" fill="#000035"/>
<path d="M134.5 152.991C133.809 152.714 133.127 152.435 132.465 152.155C132.294 152.083 132.138 152.009 131.97 151.936C130.88 151.466 129.848 150.988 128.86 150.505C128.598 150.377 128.323 150.251 128.071 150.122C127.534 149.848 127.021 149.57 126.525 149.291C123.996 147.864 122.04 146.362 120.934 144.746C120.637 144.313 120.389 143.873 120.222 143.422C116.785 134.121 118.161 123.607 118.161 123.607L106.777 124.391L94.5819 123.607C94.5819 123.607 96.7679 134.121 93.3309 143.422C93.2349 143.681 93.1069 143.936 92.9679 144.189C91.8709 146.18 89.4559 147.994 86.2599 149.708C86.1059 149.79 85.9619 149.874 85.8049 149.956C85.4449 150.143 85.0889 150.331 84.7119 150.516C83.6479 151.038 82.5069 151.549 81.3209 152.055C80.6789 152.329 80.0279 152.601 79.3589 152.871C78.8639 153.071 78.3549 153.269 77.8469 153.467L106.545 196.514L134.5 152.991Z" fill="#EBA08C"/>
<path d="M167.13 166.674C160.24 161.507 145.65 157.461 134.5 152.991L106.541 196.513L77.843 153.466C66.866 157.75 53.064 161.69 46.419 166.674C35.096 175.166 29.839 211.157 29.839 211.157H79.921H87.454H106.47H107.077H135.187H146.77H183.709C183.709 211.157 178.453 175.166 167.13 166.674Z" fill="#2847FB"/>
<path d="M104.322 120.701C130.953 120.701 152.542 99.8603 152.542 74.152C152.542 48.4437 130.953 27.603 104.322 27.603C77.6908 27.603 56.1019 48.4437 56.1019 74.152C56.1019 99.8603 77.6908 120.701 104.322 120.701Z" fill="#000035"/>
<path d="M146.088 83.734C146.088 106.506 131.606 133.683 104.856 133.683C78.1059 133.683 63.6239 106.506 63.6239 83.734C63.6239 60.962 82.0839 42.502 104.856 42.502C127.628 42.502 146.088 60.963 146.088 83.734Z" fill="#EBA08C"/>
<path d="M68.217 85.123C72.502 77.975 75.925 60.692 73.993 56.543C73.398 55.265 69.527 56.848 68.431 56.184C66.494 55.009 64.022 55.751 62.367 57.427C60.712 59.103 59.745 61.541 59.065 63.993C57.073 71.181 57.207 78.931 58.337 86.303C58.876 89.821 58.764 92.473 62.198 90.903C64.631 89.788 66.717 87.624 68.217 85.123Z" fill="#000035"/>
<path d="M141.171 85.682C139.081 82.186 138.003 77.973 137.368 73.753C136.666 69.087 136.521 64.022 138.452 59.873C139.047 58.595 139.86 57.407 140.956 56.742C142.893 55.567 145.365 56.309 147.02 57.984C148.675 59.66 149.642 62.098 150.322 64.55C152.314 71.738 152.18 79.488 151.05 86.86C150.511 90.378 150.623 93.03 147.189 91.46C144.756 90.347 142.667 88.185 141.171 85.682Z" fill="#000035"/>
<path d="M157.041 90.668C156.487 93.609 154.864 96.33 152.801 98.368C151.399 99.752 149.76 100.865 148.007 101.337C146.255 101.809 144.386 101.595 142.995 100.526C141.722 99.548 140.927 97.931 140.539 96.201C139.645 92.207 140.855 87.569 143.308 84.096C145.012 81.683 147.423 79.713 150.018 79.387C155.248 78.728 158.02 85.465 157.041 90.668Z" fill="#EBA08C"/>
<path d="M142.317 96.794C143.571 96.722 144.815 96.275 145.872 95.516C146.192 95.286 146.527 94.96 146.512 94.555C146.503 94.329 146.384 94.13 146.263 93.947C145.55 92.866 144.661 91.921 143.646 91.164C144.387 89.495 145.14 87.805 146.245 86.378C147.351 84.951 148.868 83.792 150.565 83.556C152.263 83.32 154.113 84.187 154.761 85.854C154.761 85.854 157.039 90.667 151.673 95.877C146.016 101.372 142.317 96.794 142.317 96.794Z" fill="#EBA08C"/>
<path d="M154.763 85.855C154.119 84.666 152.883 84.023 151.681 83.948C150.476 83.861 149.317 84.371 148.362 85.118C147.399 85.875 146.628 86.863 145.98 87.951C145.338 89.045 144.781 90.219 144.23 91.423L144.028 90.653C144.688 91.176 145.289 91.769 145.814 92.418C146.071 92.747 146.31 93.089 146.531 93.441C146.637 93.62 146.75 93.778 146.862 94.037C146.978 94.283 147.014 94.667 146.891 94.952C146.646 95.523 146.204 95.749 145.862 95.958C145.501 96.17 145.112 96.328 144.722 96.464C143.938 96.725 143.118 96.86 142.316 96.794C143.101 96.635 143.846 96.379 144.517 95.999C144.853 95.811 145.163 95.586 145.465 95.36C145.771 95.134 146.025 94.869 146.054 94.675C146.064 94.582 146.053 94.544 145.996 94.432C145.941 94.33 145.814 94.168 145.7 94.017C145.467 93.717 145.22 93.429 144.959 93.156C144.446 92.603 143.879 92.103 143.266 91.676L142.856 91.39L143.065 90.906C143.589 89.691 144.111 88.437 144.842 87.262C145.557 86.086 146.481 84.966 147.671 84.165C148.836 83.367 150.348 82.862 151.794 83.186C153.2 83.478 154.453 84.531 154.763 85.855Z" fill="#000035"/>
<path d="M51.5349 90.668C52.0889 93.609 53.7119 96.33 55.7749 98.368C57.1769 99.752 58.8159 100.865 60.5689 101.337C62.3209 101.809 64.1899 101.595 65.5819 100.526C66.8549 99.548 67.6499 97.931 68.0379 96.201C68.9319 92.207 67.7229 87.569 65.2689 84.096C63.5649 81.683 61.1539 79.713 58.5589 79.387C53.3279 78.728 50.5559 85.465 51.5349 90.668Z" fill="#EBA08C"/>
<path d="M66.258 96.794C65.004 96.722 63.76 96.275 62.703 95.516C62.383 95.286 62.0479 94.96 62.0629 94.555C62.0719 94.329 62.191 94.13 62.311 93.947C63.024 92.866 63.913 91.921 64.928 91.164C64.187 89.495 63.434 87.805 62.329 86.378C61.223 84.951 59.706 83.792 58.009 83.556C56.311 83.32 54.4609 84.187 53.8129 85.854C53.8129 85.854 51.535 90.667 56.901 95.877C62.56 101.372 66.258 96.794 66.258 96.794Z" fill="#EBA08C"/>
<path d="M53.813 85.855C54.122 84.531 55.376 83.477 56.782 83.186C58.227 82.862 59.74 83.366 60.905 84.165C62.096 84.965 63.019 86.086 63.734 87.262C64.465 88.437 64.987 89.691 65.511 90.906L65.72 91.39L65.31 91.676C64.697 92.103 64.13 92.603 63.617 93.156C63.356 93.429 63.109 93.717 62.876 94.017C62.762 94.168 62.635 94.33 62.58 94.432C62.523 94.543 62.512 94.582 62.522 94.675C62.551 94.87 62.805 95.135 63.111 95.36C63.413 95.586 63.723 95.811 64.059 95.999C64.73 96.379 65.474 96.634 66.26 96.794C65.458 96.86 64.638 96.725 63.854 96.464C63.464 96.329 63.075 96.17 62.714 95.958C62.372 95.749 61.93 95.523 61.685 94.952C61.562 94.667 61.599 94.283 61.714 94.037C61.826 93.778 61.94 93.62 62.046 93.441C62.267 93.089 62.506 92.747 62.763 92.418C63.289 91.769 63.889 91.177 64.549 90.653L64.347 91.423C63.796 90.219 63.239 89.044 62.597 87.951C61.948 86.863 61.178 85.876 60.215 85.118C59.26 84.371 58.101 83.861 56.896 83.948C55.693 84.023 54.457 84.667 53.813 85.855Z" fill="#000035"/>
<path d="M94.0489 81.382C94.0489 83.406 92.4079 85.046 90.3849 85.046C88.3609 85.046 86.7209 83.405 86.7209 81.382C86.7209 79.358 88.3619 77.718 90.3849 77.718C92.4079 77.718 94.0489 79.358 94.0489 81.382Z" fill="#000035"/>
<path d="M77.9409 79.118C78.6269 77.23 79.7269 75.483 81.0329 73.883C82.3659 72.303 83.9689 70.924 85.7619 69.813C86.2149 69.545 86.6689 69.273 87.1199 68.984L88.5329 68.213C89.0239 67.998 89.5269 67.803 90.0379 67.636C90.5599 67.506 91.0919 67.412 91.6249 67.344C93.7669 67.169 96.0119 67.497 97.8739 68.785L97.8309 69.17C95.7969 70.025 94.0799 70.554 92.3799 71.144C91.9599 71.302 91.5379 71.432 91.1069 71.528C90.6839 71.654 90.2509 71.751 89.8079 71.83L88.4849 72.132C88.0519 72.263 87.6209 72.412 87.1889 72.564C85.5029 73.257 83.8749 74.165 82.3679 75.286C80.8339 76.386 79.4859 77.758 78.2799 79.305L77.9409 79.118Z" fill="#000035"/>
<path d="M118.252 81.382C118.252 83.406 119.893 85.046 121.916 85.046C123.94 85.046 125.58 83.405 125.58 81.382C125.58 79.358 123.939 77.718 121.916 77.718C119.893 77.718 118.252 79.358 118.252 81.382Z" fill="#000035"/>
<path d="M134.021 79.305C132.815 77.759 131.467 76.386 129.933 75.286C128.426 74.165 126.798 73.257 125.112 72.564C124.68 72.412 124.249 72.263 123.816 72.132L122.493 71.83C122.05 71.751 121.617 71.655 121.194 71.528C120.763 71.431 120.342 71.301 119.921 71.144C118.22 70.554 116.504 70.025 114.47 69.17L114.427 68.785C116.289 67.497 118.533 67.169 120.676 67.344C121.209 67.412 121.741 67.506 122.263 67.636C122.774 67.803 123.277 67.998 123.768 68.213L125.18 68.984C125.631 69.273 126.086 69.545 126.538 69.813C128.331 70.925 129.934 72.303 131.267 73.883C132.573 75.483 133.672 77.231 134.359 79.118L134.021 79.305Z" fill="#000035"/>
<path d="M93.5909 106.726C95.5529 108.542 97.6949 110.115 100.007 111.282C101.165 111.857 102.357 112.351 103.597 112.625C104.208 112.802 104.836 112.866 105.457 112.968C106.083 112.985 106.716 113.067 107.324 112.977C108.556 112.935 109.772 112.568 110.927 112.063C112.105 111.594 113.188 110.883 114.249 110.143C116.356 108.622 118.246 106.756 120.004 104.741C118.739 107.106 117.034 109.261 114.95 111.035C112.888 112.794 110.313 114.239 107.423 114.426C105.995 114.53 104.587 114.339 103.244 113.951C101.9 113.568 100.622 113.001 99.4599 112.27C97.1169 110.843 95.1039 108.944 93.5909 106.726Z" fill="#000035"/>
<path d="M85.095 127.873C88.544 129.933 92.216 131.495 95.981 132.611C99.749 133.683 103.662 134.29 107.519 134.143C111.355 133.983 115.128 132.815 118.652 131.114C122.171 129.382 125.497 127.172 128.565 124.58C126.061 127.741 122.89 130.384 119.358 132.444C115.825 134.5 111.792 135.864 107.607 136.077C103.45 136.203 99.344 135.463 95.507 134.048C91.686 132.618 88.077 130.593 85.095 127.873Z" fill="#000035"/>
<path opacity="0.2" d="M136.581 97.0991C136.581 100.747 132.682 103.705 127.873 103.705C123.064 103.705 119.165 100.747 119.165 97.0991C119.165 93.4501 123.064 90.493 127.873 90.493C132.682 90.493 136.581 93.4501 136.581 97.0991Z" fill="#EBA08C"/>
<path opacity="0.2" d="M94.34 97.0991C94.34 100.747 90.441 103.705 85.632 103.705C80.823 103.705 76.924 100.747 76.924 97.0991C76.924 93.4501 80.823 90.493 85.632 90.493C90.442 90.493 94.34 93.4501 94.34 97.0991Z" fill="#EBA08C"/>
<path d="M63.7329 72.25C67.5289 75.816 73.8139 75.42 77.2249 71.4C79.3539 68.891 80.2909 65.447 81.7759 62.417C83.2609 59.387 85.7999 56.479 88.8949 56.636C91.4009 56.763 93.5439 58.881 96.0449 59.093C99.3389 59.373 102.201 56.134 103.067 52.582C103.933 49.03 106.531 43.46 105.89 39.849C102.728 37.964 95.0579 39.449 91.5719 40.385C78.3419 43.938 67.8059 57.781 63.7329 72.25Z" fill="#000035"/>
<path d="M146.614 72.25C142.818 75.816 136.533 75.42 133.122 71.4C130.993 68.891 130.056 65.447 128.571 62.417C127.086 59.387 124.547 56.479 121.452 56.636C118.946 56.763 116.803 58.881 114.302 59.093C111.008 59.373 108.146 56.134 107.28 52.582C106.414 49.03 105.248 43.46 105.889 39.849C109.051 37.964 115.29 39.449 118.776 40.385C132.005 43.938 142.541 57.781 146.614 72.25Z" fill="#000035"/>
<path d="M105.539 79.023C107.116 80.244 108.47 81.761 109.606 83.429C110.738 85.102 111.634 86.964 112.187 88.946C112.449 89.953 112.636 90.943 112.769 91.934C112.918 92.926 113.035 93.926 113.107 94.93C113.23 96.951 113.272 98.938 112.932 101.024L112.841 101.583L112.286 101.567C110.503 101.517 108.72 101.448 106.937 101.34C105.154 101.238 103.371 101.11 101.588 100.911C103.371 100.712 105.154 100.584 106.937 100.482C108.72 100.374 110.503 100.306 112.286 100.255L111.64 100.798C111.824 98.956 111.765 96.962 111.619 95.038C111.468 93.116 111.228 91.122 110.862 89.276C110.426 87.424 109.726 85.619 108.817 83.902C107.894 82.196 106.815 80.547 105.539 79.023Z" fill="#000035"/>
<path d="M73.2859 154.974L106.182 204.076L139.078 154.974" stroke="#000035" stroke-miterlimit="10"/>
<g opacity="0.38">
<path d="M98.627 47.823C94.544 46.535 90.132 46.721 86.177 48.08C82.228 49.437 78.622 51.926 76.268 55.364C75.07 57.055 74.244 58.997 73.398 60.962C72.54 62.91 71.634 64.945 70.145 66.586C68.694 68.229 66.892 69.546 64.9 70.406C62.9 71.239 60.733 71.677 58.595 71.546C62.862 71.371 66.944 69.324 69.557 66.091C72.224 62.867 72.93 58.449 75.449 54.793C78.002 51.212 81.787 48.604 85.943 47.352C88.024 46.731 90.195 46.422 92.356 46.477C94.511 46.562 96.66 46.976 98.627 47.823Z" fill="white"/>
<path d="M99.1069 36.745C97.4359 35.63 95.4269 35.234 93.4749 35.31C91.5149 35.359 89.5789 35.804 87.7259 36.447C84.0189 37.721 80.5889 39.816 77.8659 42.621C75.0619 45.357 73.1599 48.891 70.8789 52.18C69.7339 53.825 68.4889 55.424 67.0389 56.828C65.5729 58.203 63.9049 59.411 62.0249 60.102C63.8099 59.203 65.3679 57.946 66.6899 56.484C68.0369 55.043 69.1849 53.43 70.2379 51.754C72.3599 48.425 74.2829 44.842 77.1559 41.918C80.0439 39.061 83.6079 36.876 87.4909 35.718C89.4269 35.147 91.4429 34.771 93.4759 34.823C95.4899 34.904 97.5659 35.44 99.1069 36.745Z" fill="white"/>
<path d="M109.93 51.512C111.159 49.913 112.902 48.728 114.802 47.983C116.722 47.271 118.814 47.028 120.869 47.245C125.021 47.724 128.701 50.284 131.123 53.593C132.347 55.261 133.163 57.204 133.822 59.095C134.493 60.988 135.162 62.85 136.277 64.443C138.504 67.64 142.251 69.782 146.255 70.089C144.241 70.154 142.215 69.655 140.373 68.779C138.539 67.876 136.914 66.535 135.655 64.896C134.355 63.254 133.677 61.267 132.968 59.409C132.28 57.529 131.49 55.743 130.313 54.177C128.078 50.995 124.628 48.607 120.767 48.004C116.932 47.416 112.724 48.59 109.93 51.512Z" fill="white"/>
<path d="M110.146 38.758C111.756 37.639 113.607 36.868 115.528 36.383C117.464 35.953 119.476 35.846 121.464 36.053C123.453 36.269 125.395 36.883 127.191 37.784C128.976 38.718 130.582 39.96 131.973 41.395C134.719 44.316 136.681 47.809 138.362 51.343C139.194 53.114 140.004 54.884 141.034 56.522C142.032 58.173 143.311 59.679 144.966 60.74C143.192 59.875 141.781 58.387 140.626 56.793C139.487 55.172 138.587 53.411 137.674 51.686C135.865 48.248 133.94 44.831 131.254 42.087C129.946 40.695 128.436 39.495 126.769 38.588C125.088 37.697 123.246 37.135 121.362 36.811C117.579 36.234 113.584 36.875 110.146 38.758Z" fill="white"/>
<path d="M164.377 96.158C166.992 97.862 169.234 100.14 171.001 102.742C172.766 105.361 173.87 108.375 174.644 111.411C175.425 114.455 175.852 117.556 176.494 120.585C177.123 123.61 177.943 126.612 179.462 129.245C179.629 129.587 179.847 129.896 180.056 130.211C180.273 130.519 180.455 130.855 180.701 131.142C181.184 131.722 181.648 132.319 182.196 132.841C183.29 133.887 184.526 134.794 185.83 135.612C188.425 137.265 191.285 138.609 193.788 140.567C196.284 142.505 198.444 144.856 200.169 147.483C201.864 150.126 203.159 153.028 203.868 156.067C202.941 153.091 201.568 150.269 199.763 147.758C197.987 145.231 195.809 142.993 193.326 141.182C190.837 139.383 188.032 138.034 185.347 136.383C184.005 135.559 182.705 134.628 181.535 133.531C180.379 132.415 179.393 131.127 178.594 129.741C177.016 126.938 176.212 123.834 175.604 120.768C174.999 117.692 174.553 114.613 173.899 111.59C173.224 108.578 172.235 105.628 170.59 103.006C168.992 100.362 166.859 98.044 164.377 96.158Z" fill="white"/>
<path d="M146.892 109.948C150.005 110.539 152.587 112.778 154.349 115.366C156.114 118.012 157.124 121.044 158.093 124.003C159.981 129.938 162.203 135.762 164.894 141.364C165.553 142.754 166.287 144.085 167.362 145.103C168.431 146.138 169.76 146.916 171.113 147.676C173.859 149.177 176.526 150.955 178.815 153.122C181.131 155.26 183.174 157.69 184.878 160.328C186.564 162.978 187.922 165.832 188.859 168.813C187.709 165.91 186.274 163.129 184.471 160.601C182.708 158.052 180.633 155.72 178.301 153.694C175.969 151.656 173.422 149.924 170.671 148.471C169.303 147.718 167.896 146.924 166.702 145.793C165.488 144.662 164.676 143.209 163.994 141.795C161.354 136.107 159.102 130.24 157.362 124.229C156.484 121.246 155.571 118.254 153.94 115.63C152.35 113.022 149.939 110.761 146.892 109.948Z" fill="white"/>
<path d="M135.457 124.534C135.35 126.001 135.628 127.446 136.177 128.777C136.698 130.119 137.409 131.38 138.23 132.575C139.821 134.993 141.713 137.204 143.648 139.386C145.572 141.578 147.573 143.738 149.351 146.094C151.135 148.436 152.707 150.991 153.685 153.766C152.974 152.479 152.284 151.197 151.41 150.028C150.599 148.822 149.688 147.686 148.75 146.575C146.857 144.365 144.855 142.242 142.899 140.048C140.972 137.836 139.057 135.559 137.58 132.979C136.822 131.71 136.158 130.362 135.716 128.936C135.304 127.508 135.124 125.973 135.457 124.534Z" fill="white"/>
<path d="M45.9419 94.767C44.6909 95.168 43.4839 95.679 42.3439 96.309C41.2189 96.967 40.1529 97.717 39.1819 98.576C37.2339 100.287 35.6139 102.354 34.4109 104.637C33.2109 106.924 32.3819 109.377 31.9829 111.938C31.5549 114.495 31.4079 117.114 31.0529 119.74C30.6779 122.352 30.0509 125.018 28.7699 127.397C27.4979 129.763 25.7939 131.89 23.7659 133.612C21.7549 135.353 19.5489 136.832 17.2589 138.133C14.9509 139.406 12.5909 140.562 10.1919 141.63C12.4899 140.359 14.8019 139.117 17.0079 137.712C19.2289 136.337 21.3529 134.806 23.2499 133.042C25.1419 131.279 26.7869 129.257 27.9609 126.98C29.1519 124.707 29.7179 122.172 30.0629 119.602C30.4409 117.032 30.6189 114.402 31.0869 111.785C31.5379 109.17 32.3909 106.571 33.7399 104.269C35.0679 101.954 36.8049 99.88 38.8689 98.205C39.9129 97.381 41.0439 96.679 42.2209 96.078C43.4089 95.494 44.6629 95.064 45.9419 94.767Z" fill="white"/>
<path d="M58.3869 107.101C52.7839 109.703 48.2429 114.375 45.8579 119.97C44.6619 122.765 44.0609 125.779 43.7239 128.82C43.3869 131.867 43.2869 134.953 42.9879 138.049C42.6549 141.139 42.1049 144.251 40.9399 147.186C40.3559 148.647 39.6329 150.068 38.6959 151.349C37.7709 152.639 36.6219 153.76 35.3849 154.726C32.8909 156.648 30.1039 158.03 27.4779 159.623C24.8499 161.179 22.3189 163.069 20.7639 165.775C22.1169 162.951 24.6549 160.911 27.2169 159.208C29.8149 157.519 32.5529 156.057 34.9049 154.126C36.0679 153.151 37.1199 152.07 37.9929 150.846C38.8689 149.624 39.5459 148.263 40.0929 146.855C41.1849 144.027 41.6929 140.99 41.9939 137.949C42.3189 134.9 42.4499 131.807 42.8219 128.717C43.2079 125.64 43.8059 122.512 45.1579 119.662C46.4769 116.816 48.3189 114.223 50.5759 112.07C52.8519 109.941 55.4969 108.206 58.3869 107.101Z" fill="white"/>
<path d="M71.8439 121.943C70.6709 122.739 69.5649 123.614 68.6189 124.645C67.6439 125.642 66.8049 126.764 66.1109 127.959C64.6779 130.347 64.0349 133.045 63.5819 135.828C63.3259 137.214 63.0899 138.624 62.7179 140.017C62.3279 141.404 61.8559 142.771 61.2139 144.057C59.9759 146.648 58.2719 149.009 56.1819 150.93C57.0639 149.819 57.9109 148.692 58.6139 147.476C59.3479 146.282 59.9889 145.036 60.5119 143.743C61.6059 141.165 62.1499 138.454 62.5989 135.651C62.8579 134.258 63.1269 132.844 63.5739 131.462C64.0339 130.084 64.6479 128.752 65.4609 127.553C66.2679 126.353 67.2069 125.245 68.2819 124.292C69.3669 123.355 70.5589 122.544 71.8439 121.943Z" fill="white"/>
</g>
</g>
</svg>
