<svg width="210" height="210" viewBox="0 0 210 210" fill="none" xmlns="http://www.w3.org/2000/svg">
<path d="M105.079 209.782C162.905 209.782 209.782 162.905 209.782 105.079C209.782 47.2531 162.905 0.375977 105.079 0.375977C47.2531 0.375977 0.375977 47.2531 0.375977 105.079C0.375977 162.905 47.2531 209.782 105.079 209.782Z" fill="#7DA5D4" fill-opacity="0.2"/>
<mask id="mask0_177_150" style="mask-type:luminance" maskUnits="userSpaceOnUse" x="0" y="0" width="210" height="210">
<path d="M105.079 209.782C162.905 209.782 209.782 162.905 209.782 105.079C209.782 47.2531 162.905 0.375977 105.079 0.375977C47.2531 0.375977 0.375977 47.2531 0.375977 105.079C0.375977 162.905 47.2531 209.782 105.079 209.782Z" fill="white"/>
</mask>
<g mask="url(#mask0_177_150)">
<path d="M114.942 136.241C113.568 128.838 114.436 122.185 114.436 122.185L103.052 122.97L90.857 122.185C90.857 122.185 92.298 129.116 91 136.701C98.88 138.343 107.128 138.174 114.942 136.241Z" fill="#EBA08C"/>
<path d="M142.365 82.313C142.365 105.085 127.883 132.262 101.133 132.262C74.383 132.262 59.901 105.085 59.901 82.313C59.901 59.541 66.893 33.681 101.133 33.681C135.373 33.681 142.365 59.542 142.365 82.313Z" fill="#EBA08C"/>
<path d="M74.218 77.697C74.904 75.809 76.004 74.062 77.31 72.462C78.643 70.882 80.246 69.503 82.039 68.392C82.492 68.124 82.946 67.852 83.397 67.563L84.809 66.792C85.3 66.577 85.803 66.382 86.314 66.215C86.836 66.085 87.368 65.991 87.901 65.923C90.043 65.748 92.288 66.076 94.15 67.364L94.107 67.749C92.073 68.604 90.356 69.133 88.656 69.723C88.236 69.881 87.814 70.011 87.383 70.107C86.96 70.233 86.527 70.33 86.084 70.409L84.76 70.711C84.326 70.842 83.896 70.991 83.464 71.143C81.778 71.836 80.15 72.744 78.643 73.865C77.109 74.964 75.761 76.337 74.555 77.884L74.218 77.697Z" fill="#000035"/>
<path d="M114.529 80.961C114.529 82.985 116.17 84.625 118.193 84.625C120.217 84.625 121.857 82.984 121.857 80.961C121.857 78.937 120.217 77.297 118.193 77.297C116.17 77.297 114.529 78.937 114.529 80.961Z" fill="#000035"/>
<path d="M130.298 77.884C129.092 76.338 127.744 74.965 126.21 73.865C124.703 72.744 123.075 71.835 121.389 71.143C120.957 70.991 120.527 70.842 120.093 70.711L118.77 70.409C118.327 70.33 117.894 70.233 117.471 70.107C117.04 70.01 116.619 69.88 116.198 69.723C114.497 69.133 112.781 68.604 110.746 67.749L110.703 67.364C112.566 66.076 114.81 65.748 116.952 65.923C117.485 65.991 118.017 66.085 118.539 66.215C119.05 66.382 119.553 66.577 120.044 66.792L121.456 67.563C121.907 67.852 122.362 68.124 122.814 68.392C124.607 69.504 126.21 70.882 127.544 72.462C128.85 74.062 129.949 75.81 130.636 77.697L130.298 77.884Z" fill="#000035"/>
<path d="M89.868 105.306C91.83 107.122 93.973 108.695 96.284 109.862C97.441 110.437 98.634 110.931 99.874 111.205C100.485 111.382 101.113 111.446 101.734 111.548C102.36 111.565 102.993 111.647 103.601 111.557C104.833 111.515 106.049 111.148 107.204 110.643C108.382 110.174 109.465 109.463 110.526 108.723C112.633 107.202 114.523 105.336 116.281 103.321C115.016 105.686 113.311 107.841 111.227 109.615C109.165 111.374 106.59 112.819 103.7 113.006C102.271 113.11 100.864 112.919 99.521 112.531C98.177 112.148 96.9 111.581 95.737 110.85C93.395 109.422 91.382 107.523 89.868 105.306Z" fill="#000035"/>
<path d="M81.372 126.452C84.922 128.113 88.616 129.313 92.357 130.181C96.103 130.993 99.936 131.464 103.721 131.345C107.481 131.228 111.205 130.271 114.744 128.831C118.281 127.367 121.67 125.458 124.842 123.16C122.194 126.068 118.927 128.42 115.367 130.204C113.589 131.11 111.701 131.805 109.766 132.357C107.822 132.872 105.815 133.197 103.79 133.281C99.762 133.371 95.78 132.787 91.971 131.642C88.183 130.469 84.522 128.814 81.372 126.452Z" fill="#000035"/>
<path opacity="0.2" d="M132.858 95.678C132.858 99.326 128.959 102.284 124.15 102.284C119.34 102.284 115.442 99.326 115.442 95.678C115.442 92.029 119.341 89.072 124.15 89.072C128.959 89.072 132.858 92.03 132.858 95.678Z" fill="#EBA08C"/>
<path opacity="0.2" d="M90.618 95.678C90.618 99.326 86.719 102.284 81.91 102.284C77.1 102.284 73.202 99.326 73.202 95.678C73.202 92.029 77.101 89.072 81.91 89.072C86.719 89.072 90.618 92.03 90.618 95.678Z" fill="#EBA08C"/>
<path d="M143.485 88.582C135.159 80.379 131.257 68.56 130.499 56.896C120.882 62.375 109.649 64.977 98.603 64.282C87.556 63.587 77.41 60.278 68.555 53.637C68.533 60.727 68.5 67.909 66.69 74.765C64.88 81.621 61.065 88.228 55.012 91.921C50.642 74.925 53.986 51.116 64.535 37.092C64.726 33.001 67.813 27.054 72.201 25.026C72.399 24.934 72.64 24.857 72.826 24.971C73.047 25.107 73.053 25.422 73.025 25.68C72.818 27.606 72.214 29.489 71.262 31.176C72.744 29.219 74.632 27.57 76.77 26.364C77.733 25.821 78.824 25.355 79.915 25.533C79.537 27.024 78.792 28.421 77.764 29.566C88.925 24.962 101.338 23.924 113.154 26.402C122.006 28.258 130.754 32.387 136.153 39.644C138.338 42.581 139.906 45.931 141.217 49.348C146.324 62.664 146.4 74.621 143.485 88.582Z" fill="#000035"/>
<path d="M153.318 89.247C152.764 92.188 151.142 94.909 149.078 96.947C147.676 98.331 146.037 99.444 144.284 99.916C142.532 100.388 140.663 100.174 139.272 99.105C137.999 98.127 137.204 96.51 136.816 94.78C135.922 90.786 137.131 86.148 139.585 82.675C141.289 80.262 143.7 78.292 146.295 77.966C151.525 77.307 154.297 84.045 153.318 89.247Z" fill="#EBA08C"/>
<path d="M138.595 95.3731C139.849 95.3011 141.093 94.854 142.15 94.095C142.47 93.865 142.805 93.539 142.79 93.134C142.781 92.908 142.662 92.709 142.542 92.526C141.829 91.445 140.94 90.5001 139.925 89.7431C140.666 88.0741 141.419 86.384 142.524 84.957C143.63 83.53 145.147 82.3701 146.844 82.1351C148.542 81.8991 150.392 82.7661 151.04 84.4331C151.04 84.4331 153.318 89.2461 147.952 94.4561C142.293 99.9521 138.595 95.3731 138.595 95.3731Z" fill="#EBA08C"/>
<path d="M151.04 84.435C150.396 83.247 149.16 82.603 147.958 82.528C146.753 82.441 145.594 82.951 144.639 83.698C143.676 84.455 142.905 85.443 142.257 86.531C141.615 87.625 141.058 88.799 140.507 90.004L140.305 89.234C140.966 89.757 141.566 90.35 142.091 90.999C142.348 91.328 142.587 91.67 142.808 92.022C142.914 92.201 143.027 92.36 143.14 92.618C143.256 92.864 143.292 93.248 143.169 93.533C142.924 94.104 142.482 94.33 142.14 94.539C141.779 94.751 141.39 94.909 141 95.044C140.216 95.305 139.396 95.44 138.594 95.374C139.379 95.215 140.124 94.959 140.795 94.579C141.131 94.391 141.441 94.166 141.743 93.94C142.048 93.714 142.303 93.449 142.332 93.255C142.342 93.162 142.331 93.124 142.274 93.012C142.218 92.909 142.092 92.748 141.978 92.597C141.745 92.297 141.498 92.009 141.237 91.736C140.724 91.183 140.157 90.683 139.544 90.256L139.134 89.97L139.342 89.486C139.866 88.271 140.388 87.017 141.119 85.842C141.834 84.666 142.758 83.546 143.948 82.745C145.113 81.947 146.625 81.442 148.071 81.766C149.477 82.057 150.73 83.111 151.04 84.435Z" fill="#000035"/>
<path d="M47.812 89.247C48.366 92.188 49.988 94.909 52.052 96.947C53.454 98.331 55.093 99.444 56.846 99.916C58.598 100.388 60.467 100.174 61.859 99.105C63.132 98.127 63.927 96.51 64.315 94.78C65.209 90.786 64 86.148 61.546 82.675C59.842 80.262 57.431 78.292 54.836 77.966C49.606 77.307 46.833 84.045 47.812 89.247Z" fill="#EBA08C"/>
<path d="M62.536 95.3731C61.282 95.3011 60.038 94.854 58.981 94.095C58.661 93.865 58.326 93.539 58.341 93.134C58.35 92.908 58.469 92.709 58.589 92.526C59.302 91.445 60.191 90.5001 61.206 89.7431C60.465 88.0741 59.712 86.384 58.607 84.957C57.501 83.53 55.984 82.3701 54.287 82.1351C52.589 81.8991 50.739 82.7661 50.091 84.4331C50.091 84.4331 47.813 89.2461 53.179 94.4561C58.838 99.9521 62.536 95.3731 62.536 95.3731Z" fill="#EBA08C"/>
<path d="M50.09 84.435C50.4 83.111 51.653 82.057 53.059 81.766C54.504 81.442 56.017 81.946 57.182 82.745C58.373 83.546 59.296 84.666 60.012 85.842C60.743 87.017 61.265 88.271 61.789 89.486L61.997 89.97L61.587 90.256C60.974 90.683 60.407 91.183 59.894 91.736C59.633 92.009 59.386 92.297 59.153 92.597C59.039 92.748 58.912 92.91 58.857 93.012C58.8 93.124 58.789 93.162 58.799 93.255C58.828 93.45 59.082 93.715 59.388 93.94C59.69 94.166 60 94.391 60.336 94.579C61.007 94.959 61.751 95.214 62.537 95.374C61.735 95.44 60.915 95.305 60.131 95.044C59.741 94.909 59.352 94.75 58.991 94.539C58.649 94.33 58.207 94.104 57.963 93.533C57.84 93.248 57.876 92.864 57.992 92.618C58.104 92.359 58.218 92.201 58.323 92.022C58.544 91.67 58.783 91.328 59.04 90.999C59.566 90.35 60.166 89.758 60.826 89.234L60.624 90.004C60.073 88.8 59.516 87.625 58.874 86.531C58.226 85.443 57.455 84.456 56.492 83.698C55.537 82.951 54.378 82.441 53.173 82.528C51.97 82.602 50.735 83.246 50.09 84.435Z" fill="#000035"/>
<path d="M80.985 149.093C79.345 149.897 77.538 150.679 75.631 151.449C64.443 155.967 49.647 160.039 42.695 165.253C31.372 173.745 26.115 209.736 26.115 209.736H95.237C92.743 188.72 89.138 167.837 84.428 147.205C83.388 147.848 82.241 148.478 80.985 149.093Z" fill="#000035"/>
<path d="M104.841 160.226C105.228 160.216 105.515 159.878 105.748 159.569C109.771 154.226 113.506 148.666 116.946 142.931C116.766 142.625 116.614 142.315 116.498 142C115.795 140.097 115.296 138.145 114.942 136.241C107.128 138.174 98.88 138.343 91 136.702C90.699 138.459 90.252 140.251 89.605 142.001C89.433 142.466 89.165 142.919 88.856 143.366C93.879 148.802 98.902 154.238 103.925 159.675C104.175 159.945 104.473 160.236 104.841 160.226Z" fill="#EBA08C"/>
<path d="M163.407 165.253C156.091 159.766 140.085 155.543 128.743 150.734C127.175 150.069 125.701 149.393 124.348 148.701C124.243 148.647 124.148 148.593 124.045 148.539C118.87 168.633 115.164 189.102 112.974 209.736H179.988C179.988 209.736 174.73 173.745 163.407 165.253Z" fill="#000035"/>
<path d="M116.945 142.931C113.505 148.667 109.77 154.226 105.747 159.569C105.514 159.878 105.227 160.215 104.84 160.226C104.472 160.236 104.174 159.944 103.924 159.674C98.901 154.238 93.878 148.802 88.855 143.365C87.919 144.716 86.392 145.989 84.427 147.204C89.137 167.836 92.742 188.72 95.236 209.735H102.746H103.353H112.971C115.16 189.101 118.867 168.632 124.042 148.538C120.699 146.798 118.139 144.956 116.945 142.931Z" fill="white"/>
<path d="M116.49 142.657C118.032 143.886 119.47 145.103 121.012 146.212C122.537 147.344 124.133 148.346 125.77 149.445C123.824 149.079 122.02 148.172 120.422 147.019C118.84 145.843 117.429 144.399 116.49 142.657Z" fill="#000035"/>
<path d="M83.769 147.743C85.004 146.418 86.381 145.341 87.617 144.149C88.875 142.972 89.979 141.721 90.936 140.191C90.842 141.096 90.498 141.97 90.028 142.755C89.562 143.548 88.956 144.246 88.303 144.875C86.969 146.111 85.444 147.071 83.769 147.743Z" fill="#000035"/>
<path d="M96.456 165.951L101.7 174.088L94.648 204.466L95.238 209.736H112.973L113.634 204.828L107.667 174.631L113.092 166.313L104.841 160.226L96.456 165.951Z" fill="#2847FB"/>
<path d="M87.596 171.738C87.958 171.196 104.841 160.227 104.841 160.227L122.494 173.546" stroke="#000035" stroke-miterlimit="10"/>
<path d="M66.692 154.001L86.442 209.501" stroke="white" stroke-miterlimit="10"/>
<path d="M140.192 154.001L120.442 209.501" stroke="white" stroke-miterlimit="10"/>
<g opacity="0.28">
<path d="M64.718 37.709C68.6 43.22 73.909 47.609 79.876 50.579C85.845 53.551 92.477 55.2 99.134 55.209C105.774 55.287 112.504 53.782 118.223 50.364C121.076 48.665 123.639 46.4591 125.731 43.8611C127.849 41.2831 129.46 38.2751 130.404 35.0421C129.679 38.3371 128.14 41.4401 126.118 44.1631C124.066 46.8711 121.506 49.194 118.626 51.0201C112.832 54.6711 105.911 56.212 99.129 56.209C92.321 56.118 85.535 54.438 79.527 51.261C76.528 49.669 73.715 47.7291 71.198 45.4611C68.703 43.1711 66.479 40.582 64.718 37.709Z" fill="white"/>
<path d="M74.783 33.707C76.297 34.796 77.885 35.766 79.568 36.531C81.233 37.328 82.979 37.9441 84.766 38.3661C88.335 39.2281 92.059 39.3881 95.657 38.7361C99.259 38.1131 102.717 36.7131 105.801 34.7271C107.34 33.7291 108.781 32.563 110.075 31.255C111.372 29.965 112.473 28.414 112.888 26.582C112.7 28.463 111.644 30.1571 110.436 31.5861C109.182 32.9961 107.766 34.254 106.234 35.362C103.158 37.563 99.568 39.052 95.831 39.72C92.089 40.374 88.199 40.174 84.57 39.106C80.934 38.075 77.545 36.219 74.783 33.707Z" fill="white"/>
<path d="M139.343 47.0081C138.7 49.7211 138.077 52.4291 137.71 55.1631C137.355 57.8951 137.2 60.65 137.485 63.367C137.747 66.078 138.477 68.743 139.644 71.209C140.821 73.668 142.515 75.9041 144.699 77.6411C143.483 76.9511 142.4 76.03 141.424 75.01C140.471 73.967 139.651 72.8 138.96 71.561C137.579 69.076 136.785 66.2881 136.49 63.4651C136.22 60.6401 136.41 57.792 136.954 55.037C137.487 52.28 138.307 49.5971 139.343 47.0081Z" fill="white"/>
<path d="M59.672 46.175C60.433 47.322 61.033 48.5741 61.549 49.8611C62.036 51.1601 62.399 52.5071 62.647 53.8791C63.142 56.6251 63.077 59.4761 62.495 62.2191C61.892 64.9571 60.772 67.58 59.186 69.876C58.393 71.023 57.504 72.099 56.525 73.08C55.522 74.038 54.459 74.9301 53.291 75.6591C54.322 74.7501 55.303 73.798 56.166 72.746C57.052 71.718 57.849 70.618 58.54 69.459C59.922 67.144 60.962 64.63 61.519 62.007C62.098 59.3881 62.19 56.6691 61.89 53.9901C61.577 51.3101 60.814 48.674 59.672 46.175Z" fill="white"/>
</g>
<path d="M103.339 77.873C103.747 80.676 104.256 83.433 104.949 86.126C105.123 86.786 105.335 87.3871 105.67 87.8271C106.006 88.2701 106.539 88.628 107.129 89.035C108.379 89.867 109.424 91.1381 110.034 92.5461C110.632 93.9671 110.837 95.579 110.541 97.101C110.237 98.611 109.529 100.037 108.458 101.125C107.398 102.235 106.013 102.943 104.601 103.31C103.178 103.658 101.718 103.71 100.316 103.497C103.112 103.293 105.924 102.375 107.588 100.342C109.247 98.332 109.718 95.466 108.657 93.136C108.159 91.952 107.364 90.949 106.293 90.177C105.753 89.755 105.099 89.302 104.606 88.591C104.115 87.876 103.939 87.086 103.812 86.377C103.316 83.561 103.126 80.702 103.339 77.873Z" fill="#000035"/>
<path d="M82.697 83.806C84.258 83.066 85.935 82.585 87.644 82.287C89.354 81.982 91.104 81.894 92.843 81.979L92.244 83.209C91.067 81.907 89.515 80.914 87.828 80.231C86.131 79.557 84.3 79.167 82.361 79.182C84.195 78.512 86.288 78.549 88.214 79.082C89.182 79.349 90.119 79.75 90.994 80.268C91.855 80.805 92.684 81.434 93.356 82.228L94.497 83.575L92.757 83.458C91.1 83.347 89.437 83.345 87.763 83.404C86.09 83.471 84.414 83.632 82.697 83.806Z" fill="#000035"/>
</g>
</svg>
