<svg width="750" height="500" viewBox="0 0 750 500" fill="none" xmlns="http://www.w3.org/2000/svg">
<path d="M219.883 122.263L107.678 197.318L218.194 362.535L330.398 287.48L219.883 122.263Z" fill="#F5F5F5"/>
<path d="M272.42 279.659L271.146 287.54L215.368 279.505L216.641 271.624L272.42 279.659Z" fill="#E0E0E0"/>
<path d="M244.329 251.546L252.333 252.7L243.459 307.617L235.454 306.465L244.329 251.546Z" fill="#E0E0E0"/>
<path d="M192.952 181.745C193.032 181.865 181.787 189.526 167.84 198.855C153.888 208.187 142.516 215.653 142.436 215.533C142.356 215.414 153.598 207.754 167.551 198.422C181.498 189.093 192.872 181.626 192.952 181.745Z" fill="#E0E0E0"/>
<path d="M234.216 171.387C234.296 171.507 215.597 184.154 192.457 199.631C169.308 215.114 150.484 227.565 150.404 227.445C150.324 227.326 169.019 214.681 192.167 199.198C215.307 183.721 234.136 171.268 234.216 171.387Z" fill="#E0E0E0"/>
<path d="M242.487 183.753C242.567 183.873 223.868 196.52 200.728 211.997C177.579 227.48 158.755 239.931 158.675 239.811C158.595 239.691 177.29 227.047 200.438 211.564C223.579 196.087 242.407 183.634 242.487 183.753Z" fill="#E0E0E0"/>
<path d="M250.758 196.12C250.838 196.24 232.139 208.887 208.999 224.364C185.85 239.847 167.026 252.298 166.946 252.178C166.866 252.059 185.561 239.414 208.709 223.931C231.85 208.453 250.678 196 250.758 196.12Z" fill="#E0E0E0"/>
<path d="M259.03 208.486C259.11 208.606 240.411 221.252 217.271 236.73C194.122 252.213 175.298 264.664 175.218 264.544C175.138 264.424 193.833 251.78 216.981 236.297C240.121 220.82 258.95 208.367 259.03 208.486Z" fill="#E0E0E0"/>
<path d="M595.079 232.976L500.846 296.009L593.661 434.763L687.893 371.73L595.079 232.976Z" fill="#F5F5F5"/>
<path d="M639.199 365.18L638.13 371.798L591.285 365.049L592.355 358.431L639.199 365.18Z" fill="#E0E0E0"/>
<path d="M615.608 341.569L622.33 342.538L614.877 388.659L608.155 387.691L615.608 341.569Z" fill="#E0E0E0"/>
<path d="M572.46 282.948C572.54 283.068 563.107 289.517 551.393 297.352C539.675 305.189 530.115 311.444 530.035 311.324C529.955 311.204 539.386 304.756 551.104 296.919C562.817 289.085 572.38 282.829 572.46 282.948Z" fill="#E0E0E0"/>
<path d="M607.114 274.249C607.194 274.369 591.501 285.005 572.067 298.004C552.626 311.007 536.807 321.448 536.727 321.328C536.647 321.208 552.337 310.574 571.778 297.571C591.211 284.573 607.034 274.13 607.114 274.249Z" fill="#E0E0E0"/>
<path d="M614.061 284.635C614.141 284.755 598.448 295.392 579.014 308.39C559.573 321.393 543.754 331.834 543.674 331.714C543.594 331.594 559.284 320.96 578.725 307.957C598.158 294.958 613.981 284.515 614.061 284.635Z" fill="#E0E0E0"/>
<path d="M621.007 295.02C621.087 295.14 605.394 305.776 585.96 318.775C566.519 331.778 550.7 342.219 550.62 342.099C550.54 341.98 566.23 331.345 585.671 318.342C605.104 305.344 620.927 294.901 621.007 295.02Z" fill="#E0E0E0"/>
<path d="M627.954 305.406C628.034 305.526 612.341 316.162 592.907 329.161C573.466 342.164 557.647 352.605 557.567 352.485C557.487 352.366 573.177 341.731 592.618 328.728C612.051 315.73 627.874 305.286 627.954 305.406Z" fill="#E0E0E0"/>
<path d="M445.99 128.328L343.172 73.3396L262.203 224.735L365.021 279.724L445.99 128.328Z" fill="#F5F5F5"/>
<path d="M347.422 232.368L340.899 234.602L324.341 188.828L330.865 186.594L347.422 232.368Z" fill="#E0E0E0"/>
<path d="M357.423 199.529L359.8 206.098L314.34 221.667L311.964 215.098L357.423 199.529Z" fill="#E0E0E0"/>
<path d="M389.724 131.993C389.643 132.144 379.215 126.723 366.434 119.888C353.649 113.05 343.353 107.387 343.434 107.236C343.515 107.086 353.941 112.505 366.726 119.342C379.507 126.178 389.805 131.843 389.724 131.993Z" fill="#E0E0E0"/>
<path d="M414.397 159.227C414.316 159.378 397.057 150.304 375.853 138.964C354.641 127.619 337.516 118.304 337.597 118.153C337.678 118.003 354.933 127.074 376.145 138.419C397.349 149.759 414.478 159.076 414.397 159.227Z" fill="#E0E0E0"/>
<path d="M408.337 170.559C408.256 170.71 390.997 161.636 369.793 150.295C348.581 138.95 331.456 129.635 331.537 129.484C331.618 129.334 348.873 138.405 370.085 149.75C391.289 161.09 408.417 170.408 408.337 170.559Z" fill="#E0E0E0"/>
<path d="M402.276 181.89C402.195 182.041 384.936 172.967 363.732 161.626C342.52 150.282 325.395 140.966 325.476 140.815C325.556 140.664 342.812 149.736 364.024 161.081C385.228 172.422 402.357 181.74 402.276 181.89Z" fill="#E0E0E0"/>
<path d="M396.216 193.222C396.135 193.373 378.877 184.299 357.672 172.958C336.46 161.614 319.335 152.298 319.416 152.147C319.497 151.997 336.752 161.068 357.964 172.413C379.168 183.754 396.296 193.072 396.216 193.222Z" fill="#E0E0E0"/>
<path d="M663.667 439.828C663.667 439.972 534.416 440.088 375.014 440.088C215.557 440.088 86.334 439.971 86.334 439.828C86.334 439.684 215.557 439.568 375.014 439.568C534.416 439.568 663.667 439.685 663.667 439.828Z" fill="#909090"/>
<path d="M118.286 377.201C121.667 377.32 124.841 379.155 127.071 381.7C129.301 384.244 130.668 387.443 131.543 390.712C133.235 397.035 132.195 404.498 130.392 410.79C123.546 408.343 119.325 401.043 117.416 397.204C114.398 391.138 112.629 378.342 118.286 377.201Z" fill="#8399C8"/>
<path d="M140.242 418.454C138.082 415.353 138.031 411.04 139.739 407.668C141.446 404.296 144.727 401.865 148.34 400.755C150.011 400.242 151.949 400.026 153.402 400.997C154.761 401.904 155.348 403.685 155.172 405.309C154.997 406.933 154.174 408.42 153.203 409.734C149.874 414.241 145.825 417.991 140.242 418.454Z" fill="#8399C8"/>
<path d="M140.995 439.584C140.962 439.589 140.858 439.12 140.689 438.27C140.506 437.332 140.269 436.121 139.985 434.666C139.445 431.636 138.588 427.327 139.236 422.563C139.859 417.82 141.747 413.766 143.726 411.345C144.7 410.12 145.633 409.253 146.323 408.72C146.657 408.439 146.951 408.267 147.138 408.135C147.329 408.009 147.434 407.95 147.444 407.963C147.519 408.048 145.844 409.08 143.993 411.549C142.118 413.978 140.321 417.963 139.707 422.626C139.069 427.293 139.859 431.563 140.316 434.609C140.561 436.139 140.758 437.379 140.872 438.24C140.985 439.101 141.027 439.58 140.995 439.584Z" fill="#263238"/>
<path d="M120.494 386.826C120.509 386.819 120.604 386.998 120.77 387.344C120.952 387.738 121.186 388.243 121.475 388.868C122.08 390.195 122.93 392.126 123.961 394.521C126.024 399.31 128.78 405.967 131.658 413.385C134.535 420.806 136.987 427.582 138.692 432.509C139.546 434.973 140.219 436.972 140.667 438.36C140.875 439.017 141.043 439.547 141.173 439.961C141.284 440.329 141.334 440.524 141.319 440.53C141.303 440.535 141.223 440.35 141.083 439.992C140.931 439.586 140.735 439.065 140.493 438.42C139.973 436.995 139.255 435.028 138.376 432.621C136.59 427.725 134.09 420.972 131.215 413.556C128.339 406.143 125.633 399.471 123.651 394.651C122.677 392.281 121.881 390.344 121.304 388.941C121.048 388.302 120.841 387.785 120.68 387.382C120.544 387.024 120.479 386.833 120.494 386.826Z" fill="#263238"/>
<path d="M132.869 425.604C128.832 418.735 121.294 414.051 113.347 413.475C111.323 413.328 108.889 413.669 107.987 415.486C107.083 417.306 108.292 419.461 109.671 420.954C115.407 427.167 125.111 429.333 132.945 426.149" fill="#8399C8"/>
<path d="M116.429 418.892C116.431 418.859 116.881 418.878 117.696 418.939C118.104 418.967 118.603 419.003 119.174 419.11C119.744 419.216 120.407 419.278 121.113 419.475C121.824 419.649 122.608 419.823 123.42 420.116C124.248 420.361 125.098 420.715 125.991 421.093C127.755 421.894 129.626 422.942 131.408 424.305C133.177 425.684 134.671 427.225 135.886 428.736C136.47 429.511 137.028 430.245 137.463 430.991C137.944 431.708 138.301 432.429 138.636 433.079C138.995 433.718 139.207 434.35 139.442 434.881C139.679 435.412 139.827 435.89 139.945 436.282C140.188 437.063 140.306 437.497 140.275 437.506C140.174 437.541 139.687 435.793 138.339 433.233C137.989 432.6 137.62 431.9 137.132 431.203C136.69 430.477 136.128 429.764 135.545 429.009C134.331 427.538 132.856 426.035 131.119 424.681C129.369 423.343 127.538 422.302 125.811 421.492C124.937 421.109 124.105 420.746 123.294 420.489C122.5 420.185 121.73 419.995 121.033 419.801C118.228 419.091 116.418 418.995 116.429 418.892Z" fill="#263238"/>
<path d="M570.361 105.475C567.421 106.152 565.989 109.535 565.71 112.54C565.431 115.544 565.814 118.717 564.553 121.458C563.133 124.543 559.741 126.817 559.628 130.212C559.559 132.281 560.788 134.227 560.729 136.297C560.632 139.696 557.166 142.265 556.984 145.661C556.853 148.106 558.481 150.453 558.09 152.87C557.785 154.751 556.321 156.233 555.702 158.035C554.468 161.628 556.936 165.583 560.151 167.605C563.734 169.859 568.322 170.44 572.353 169.152C576.385 167.864 579.786 164.729 581.398 160.816C583.177 156.497 582.788 151.634 582.402 146.98C581.197 132.474 580.301 117.943 579.716 103.399" fill="#263238"/>
<path d="M561.824 156.664C561.761 156.607 562.628 156.349 563.168 155.066C563.429 154.439 563.563 153.595 563.51 152.625C563.476 151.649 563.143 150.586 562.781 149.387C562.446 148.199 562.009 146.82 562.259 145.287C562.511 143.73 563.625 142.451 564.642 141.195C565.154 140.558 565.668 139.896 565.992 139.143C566.334 138.398 566.406 137.545 566.148 136.745C565.632 135.111 564.031 133.909 563.296 132.023C562.932 131.078 562.928 130.04 563.135 129.105C563.333 128.161 563.715 127.304 564.1 126.488C564.883 124.86 565.745 123.367 566.087 121.782C566.789 118.61 566.461 115.582 566.939 113.095C567.372 110.603 568.425 108.73 569.468 107.767C569.976 107.269 570.468 107.004 570.789 106.825C571.131 106.678 571.311 106.61 571.318 106.627C571.352 106.683 570.577 106.921 569.611 107.91C568.647 108.885 567.68 110.717 567.302 113.156C567.103 114.369 567.074 115.733 567.024 117.197C566.972 118.66 566.926 120.249 566.554 121.891C566.207 123.555 565.321 125.107 564.561 126.706C563.809 128.277 563.118 130.119 563.783 131.841C564.418 133.543 566.029 134.752 566.634 136.591C566.93 137.506 566.833 138.52 566.447 139.34C566.08 140.174 565.535 140.856 565.013 141.496C563.968 142.76 562.922 143.962 562.683 145.362C562.433 146.754 562.819 148.097 563.134 149.286C563.469 150.475 563.792 151.595 563.8 152.612C563.827 153.62 563.657 154.498 563.353 155.147C563.051 155.8 562.638 156.204 562.328 156.409C562.021 156.62 561.824 156.664 561.824 156.664Z" fill="#455A64"/>
<path d="M553.951 180.366L544.924 206.388L507.281 208.406L501.004 222.374L540.304 226.35C548.141 229.59 557.095 225.619 559.955 217.636L570.443 188.361L553.951 180.366Z" fill="#B78876"/>
<path d="M631.814 425.697C631.814 425.697 604.228 338.08 603.643 335.235C603.114 332.664 613.654 269.611 614.982 253.293L577.708 254.683C577.708 254.683 577.707 254.783 577.705 254.955L561.861 255.834L576.052 435.027H593.205L591.504 375.576C602.081 403.973 617.238 432.911 617.238 432.911L631.814 425.697Z" fill="#B78876"/>
<path d="M592.203 396.883C592.218 396.339 591.995 376.964 591.995 376.964C591.781 378.123 585.419 360.141 585.573 359.048C585.652 358.482 592.203 396.883 592.203 396.883Z" fill="#A36957"/>
<path d="M584.847 350.535C584.808 350.534 584.771 350.92 584.737 351.621C584.7 352.321 584.692 353.337 584.76 354.592C584.784 355.22 584.85 355.906 584.931 356.641C585.025 357.374 585.125 358.16 585.295 358.975C585.606 360.61 586.086 362.38 586.697 364.195C587.943 367.819 589.317 370.99 590.293 373.291C590.756 374.34 591.153 375.242 591.487 376C591.78 376.635 591.959 376.98 591.996 376.965C592.033 376.95 591.923 376.578 591.693 375.917C591.463 375.256 591.113 374.307 590.667 373.14C589.787 370.801 588.472 367.606 587.238 364.014C586.633 362.216 586.145 360.477 585.811 358.872C585.63 358.072 585.514 357.301 585.401 356.58C585.301 355.857 585.213 355.183 585.164 354.563C585.046 353.326 584.992 352.318 584.961 351.621C584.924 350.922 584.886 350.535 584.847 350.535Z" fill="#A36957"/>
<path d="M575.729 435.91L575.722 434.299L593.292 433.533L593.34 440.178L592.256 440.251C587.433 440.533 567.714 441.347 564.487 440.379C560.886 439.3 575.729 435.91 575.729 435.91Z" fill="#455A64"/>
<path d="M593.584 439.776C593.584 439.783 593.481 439.795 593.284 439.81C593.025 439.827 592.741 439.845 592.421 439.865C591.558 439.905 590.497 439.955 589.244 440.013C586.561 440.119 582.852 440.217 578.755 440.235C574.656 440.252 570.946 440.187 568.263 440.105C567.01 440.058 565.949 440.017 565.085 439.984C564.765 439.966 564.481 439.951 564.222 439.936C564.025 439.923 563.921 439.912 563.922 439.905C563.922 439.898 564.026 439.894 564.224 439.893C564.484 439.895 564.768 439.898 565.089 439.901C565.953 439.915 567.014 439.933 568.267 439.954C570.951 439.998 574.659 440.04 578.755 440.022C582.85 440.004 586.557 439.93 589.24 439.862C590.493 439.83 591.555 439.803 592.418 439.781C592.739 439.775 593.023 439.77 593.283 439.766C593.48 439.766 593.584 439.769 593.584 439.776Z" fill="#263238"/>
<path d="M570.036 440.342C569.971 440.35 569.919 439.592 569.437 438.828C568.968 438.055 568.313 437.67 568.35 437.616C568.362 437.563 569.113 437.89 569.618 438.717C570.132 439.538 570.089 440.355 570.036 440.342Z" fill="#263238"/>
<path d="M575.185 437.707C575.136 437.738 574.888 437.439 574.632 437.038C574.375 436.637 574.208 436.287 574.257 436.255C574.306 436.223 574.554 436.523 574.811 436.924C575.066 437.325 575.234 437.676 575.185 437.707Z" fill="#263238"/>
<path d="M576.597 436.953C576.558 436.997 576.282 436.814 575.979 436.544C575.677 436.274 575.464 436.021 575.502 435.977C575.541 435.933 575.817 436.116 576.12 436.386C576.423 436.656 576.636 436.91 576.597 436.953Z" fill="#263238"/>
<path d="M577.486 435.3C577.487 435.359 577.079 435.412 576.574 435.42C576.07 435.427 575.66 435.386 575.659 435.328C575.658 435.269 576.066 435.216 576.571 435.208C577.076 435.201 577.485 435.242 577.486 435.3Z" fill="#263238"/>
<path d="M577.789 434.136C577.809 434.188 577.365 434.39 576.772 434.436C576.18 434.485 575.709 434.354 575.721 434.3C575.731 434.24 576.193 434.272 576.756 434.225C577.318 434.182 577.77 434.078 577.789 434.136Z" fill="#263238"/>
<path d="M574.586 436.184C574.588 436.208 574.157 436.262 573.463 436.181C573.117 436.141 572.707 436.06 572.266 435.922C572.047 435.845 571.818 435.787 571.581 435.642C571.47 435.568 571.346 435.464 571.302 435.294C571.255 435.126 571.344 434.936 571.471 434.844C572.543 434.284 573.62 434.884 574.021 435.437C574.241 435.719 574.343 435.995 574.39 436.185C574.436 436.377 574.433 436.487 574.42 436.488C574.38 436.503 574.342 436.046 573.905 435.532C573.689 435.28 573.363 435.035 572.943 434.912C572.546 434.796 571.981 434.766 571.604 435.008C571.426 435.141 571.496 435.35 571.695 435.468C571.88 435.587 572.12 435.658 572.327 435.735C572.753 435.88 573.149 435.973 573.485 436.032C574.158 436.15 574.586 436.15 574.586 436.184Z" fill="#263238"/>
<path d="M574.295 436.241C574.279 436.253 574.112 435.967 574.163 435.462C574.189 435.214 574.279 434.919 574.467 434.64C574.664 434.39 574.918 434.045 575.4 434.064C575.661 434.097 575.789 434.392 575.748 434.581C575.728 434.778 575.641 434.947 575.559 435.084C575.393 435.365 575.205 435.593 575.031 435.766C574.68 436.111 574.402 436.244 574.39 436.223C574.37 436.196 574.613 436.021 574.921 435.664C575.074 435.486 575.241 435.26 575.389 434.988C575.542 434.75 575.646 434.323 575.364 434.273C575.083 434.247 574.797 434.528 574.626 434.753C574.45 434.997 574.353 435.259 574.311 435.485C574.227 435.941 574.333 436.233 574.295 436.241Z" fill="#263238"/>
<path d="M593.21 434.995C593.206 435.034 592.709 434.949 591.92 435.045C591.138 435.135 590.05 435.46 589.106 436.217C588.163 436.976 587.611 437.967 587.354 438.712C587.09 439.462 587.066 439.966 587.026 439.961C587.013 439.96 587.006 439.835 587.024 439.608C587.041 439.382 587.094 439.055 587.211 438.665C587.437 437.888 587.989 436.843 588.973 436.052C589.957 435.263 591.097 434.95 591.904 434.897C592.311 434.867 592.641 434.886 592.865 434.918C593.091 434.948 593.212 434.982 593.21 434.995Z" fill="#263238"/>
<path d="M584.796 438.384C584.803 438.439 583.663 438.621 582.243 438.627C580.822 438.637 579.681 438.467 579.687 438.412C579.693 438.351 580.834 438.425 582.242 438.415C583.649 438.409 584.789 438.323 584.796 438.384Z" fill="#263238"/>
<path d="M588.221 438.347C588.264 438.39 588.128 438.589 588.013 438.852C587.894 439.113 587.835 439.347 587.774 439.343C587.717 439.343 587.683 439.067 587.819 438.765C587.954 438.462 588.183 438.305 588.221 438.347Z" fill="#263238"/>
<path d="M589.506 436.735C589.548 436.776 589.436 436.958 589.256 437.142C589.076 437.326 588.896 437.442 588.854 437.401C588.812 437.36 588.924 437.178 589.105 436.994C589.284 436.81 589.464 436.694 589.506 436.735Z" fill="#263238"/>
<path d="M591.351 435.994C591.339 436.053 591.107 436.052 590.85 436.144C590.591 436.229 590.409 436.373 590.363 436.333C590.316 436.301 590.462 436.052 590.781 435.944C591.1 435.833 591.368 435.94 591.351 435.994Z" fill="#263238"/>
<path d="M592.665 435.643C592.686 435.698 592.586 435.788 592.441 435.844C592.296 435.901 592.161 435.903 592.14 435.848C592.119 435.794 592.219 435.703 592.364 435.647C592.509 435.591 592.643 435.589 592.665 435.643Z" fill="#263238"/>
<path d="M616.893 434.36L616.226 432.893L631.941 424.998L634.707 431.04L633.748 431.55C629.464 433.783 611.808 442.602 608.468 443.042C604.742 443.532 616.893 434.36 616.893 434.36Z" fill="#455A64"/>
<path d="M634.766 430.573C634.769 430.58 634.68 430.632 634.506 430.727C634.277 430.848 634.025 430.981 633.741 431.131C632.97 431.521 632.022 432.001 630.904 432.568C628.5 433.764 625.156 435.372 621.426 437.067C617.694 438.762 614.283 440.222 611.801 441.246C610.639 441.716 609.654 442.114 608.853 442.438C608.554 442.553 608.288 442.655 608.046 442.748C607.861 442.817 607.762 442.85 607.759 442.843C607.756 442.836 607.849 442.79 608.03 442.709C608.268 442.605 608.528 442.491 608.822 442.362C609.616 442.021 610.592 441.603 611.743 441.109C614.21 440.05 617.609 438.569 621.339 436.875C625.067 435.181 628.419 433.595 630.839 432.434C631.969 431.892 632.926 431.432 633.705 431.058C633.995 430.921 634.252 430.8 634.487 430.69C634.666 430.607 634.762 430.566 634.766 430.573Z" fill="#263238"/>
<path d="M613.516 440.735C613.461 440.769 613.102 440.099 612.349 439.599C611.605 439.086 610.849 439.003 610.86 438.938C610.85 438.885 611.668 438.875 612.468 439.423C613.273 439.962 613.569 440.725 613.516 440.735Z" fill="#263238"/>
<path d="M617.133 436.222C617.101 436.271 616.752 436.099 616.354 435.839C615.956 435.578 615.659 435.327 615.691 435.279C615.723 435.23 616.072 435.402 616.47 435.662C616.868 435.922 617.165 436.173 617.133 436.222Z" fill="#263238"/>
<path d="M618.113 434.956C618.095 435.012 617.768 434.958 617.382 434.836C616.996 434.714 616.697 434.57 616.715 434.514C616.733 434.458 617.06 434.512 617.446 434.634C617.832 434.756 618.13 434.9 618.113 434.956Z" fill="#263238"/>
<path d="M618.247 433.084C618.272 433.137 617.921 433.353 617.465 433.567C617.008 433.78 616.617 433.91 616.593 433.857C616.568 433.804 616.919 433.588 617.376 433.375C617.831 433.161 618.222 433.031 618.247 433.084Z" fill="#263238"/>
<path d="M618.046 431.897C618.085 431.936 617.763 432.303 617.241 432.587C616.72 432.874 616.238 432.948 616.226 432.893C616.21 432.834 616.645 432.674 617.139 432.401C617.636 432.132 618.005 431.852 618.046 431.897Z" fill="#263238"/>
<path d="M615.963 435.078C615.974 435.099 615.603 435.325 614.937 435.535C614.605 435.64 614.198 435.734 613.739 435.789C613.507 435.808 613.275 435.85 612.999 435.815C612.867 435.793 612.712 435.749 612.602 435.612C612.49 435.478 612.494 435.269 612.572 435.133C613.32 434.183 614.549 434.289 615.141 434.63C615.458 434.797 615.663 435.007 615.784 435.161C615.904 435.317 615.946 435.419 615.936 435.425C615.906 435.455 615.684 435.054 615.074 434.764C614.774 434.622 614.376 434.532 613.943 434.592C613.533 434.649 613.006 434.853 612.761 435.228C612.653 435.422 612.803 435.584 613.032 435.61C613.25 435.642 613.497 435.61 613.718 435.595C614.166 435.553 614.565 435.476 614.896 435.391C615.558 435.222 615.949 435.046 615.963 435.078Z" fill="#263238"/>
<path d="M615.721 435.249C615.712 435.267 615.442 435.074 615.281 434.592C615.203 434.355 615.165 434.049 615.221 433.718C615.299 433.409 615.389 432.991 615.836 432.81C616.087 432.733 616.673 433.237 616.713 433.427C616.776 433.615 616.417 433.518 616.398 433.676C616.362 434.001 616.284 434.285 616.196 434.514C616.017 434.973 615.818 435.208 615.798 435.194C615.769 435.177 615.919 434.918 616.054 434.466C616.121 434.24 616.18 433.966 616.204 433.658C616.246 433.378 616.166 432.946 615.889 433.016C615.622 433.107 615.476 433.481 615.412 433.756C615.352 434.05 615.37 434.329 615.424 434.553C615.536 435.004 615.752 435.226 615.721 435.249Z" fill="#263238"/>
<path d="M632.466 426.364C632.479 426.402 631.99 426.527 631.309 426.938C630.632 427.34 629.773 428.082 629.222 429.159C628.672 430.237 628.575 431.368 628.646 432.152C628.712 432.945 628.897 433.414 628.859 433.426C628.847 433.431 628.789 433.319 628.713 433.105C628.636 432.892 628.551 432.572 628.497 432.168C628.385 431.367 628.46 430.187 629.034 429.063C629.609 427.94 630.52 427.188 631.235 426.808C631.594 426.614 631.903 426.496 632.121 426.433C632.338 426.371 632.462 426.352 632.466 426.364Z" fill="#263238"/>
<path d="M626.178 432.903C626.207 432.95 625.242 433.583 623.949 434.17C622.657 434.761 621.546 435.073 621.529 435.021C621.509 434.963 622.581 434.563 623.861 433.978C625.142 433.396 626.147 432.849 626.178 432.903Z" fill="#263238"/>
<path d="M629.287 431.466C629.343 431.487 629.302 431.725 629.304 432.012C629.302 432.299 629.344 432.536 629.287 432.558C629.235 432.581 629.091 432.344 629.092 432.012C629.091 431.68 629.235 431.443 629.287 431.466Z" fill="#263238"/>
<path d="M629.799 429.469C629.854 429.489 629.826 429.701 629.737 429.943C629.648 430.185 629.531 430.364 629.477 430.344C629.422 430.324 629.45 430.112 629.539 429.87C629.628 429.629 629.745 429.449 629.799 429.469Z" fill="#263238"/>
<path d="M631.179 428.038C631.192 428.097 630.98 428.191 630.783 428.379C630.582 428.563 630.474 428.768 630.416 428.751C630.36 428.741 630.391 428.454 630.638 428.224C630.884 427.993 631.173 427.981 631.179 428.038Z" fill="#263238"/>
<path d="M632.234 427.179C632.276 427.22 632.221 427.343 632.113 427.454C632.004 427.565 631.882 427.622 631.84 427.581C631.798 427.54 631.853 427.417 631.961 427.306C632.07 427.195 632.192 427.138 632.234 427.179Z" fill="#263238"/>
<path d="M612.564 223.635L609.638 187.938L624.666 188.206C624.666 188.206 625.362 182.943 623.148 171.397C621.79 164.317 617.075 159.975 611.787 157.395L611.788 157.3L611.329 157.18C604.604 154.032 597.564 153.588 597.564 153.588L579.117 153.801C579.117 153.801 565.025 152.043 557.225 162.089C554.22 165.959 544.923 192.444 544.923 192.444L567.065 203.107L564.957 188.42C564.957 188.42 565.376 199.069 566.735 202.443C567.492 204.323 569.684 210.159 569.684 210.159L569.398 227.774L612.564 223.635Z" fill="#8399C8"/>
<path d="M602.387 182.756L599.649 194.422H625.48L623.781 174.864L602.387 182.756Z" fill="#8399C8"/>
<path d="M625.48 194.422C625.484 194.345 624.178 194.208 622.061 194.084C619.944 193.96 617.015 193.855 613.777 193.87C610.539 193.886 607.609 194.026 605.494 194.194C603.379 194.361 602.078 194.54 602.084 194.615C602.09 194.697 603.401 194.66 605.516 194.596C607.631 194.531 610.552 194.455 613.781 194.439C617.008 194.425 619.931 194.465 622.048 194.486C624.164 194.508 625.476 194.502 625.48 194.422Z" fill="#263238"/>
<path d="M601.273 174.768C601.194 174.771 601.167 175.905 601.187 177.735C601.207 179.566 601.273 182.092 601.381 184.882C601.489 187.672 601.619 190.197 601.742 192.024C601.864 193.85 601.98 194.978 602.058 194.975C602.137 194.972 602.164 193.838 602.144 192.008C602.125 190.178 602.058 187.65 601.95 184.86C601.842 182.07 601.712 179.546 601.589 177.719C601.467 175.894 601.352 174.765 601.273 174.768Z" fill="#263238"/>
<g opacity="0.3">
<path d="M577.768 184.872C577.768 184.872 583.51 227.44 599.649 226.313C599.649 226.313 606.915 226.227 609.252 221.397V219.496L577.768 184.872Z" fill="black"/>
</g>
<g opacity="0.3">
<path d="M601.273 177.277L598.184 198.145L600.184 201.807L603.477 194.647L602.083 194.614L601.273 177.277Z" fill="black"/>
</g>
<path d="M569.686 210.161C569.652 210.173 569.498 209.817 569.25 209.164C568.999 208.512 568.666 207.558 568.28 206.37C567.509 203.995 566.556 200.669 565.81 196.925C565.068 193.178 564.704 189.732 564.586 187.234C564.526 185.985 564.507 184.973 564.526 184.274C564.54 183.575 564.564 183.189 564.6 183.189C564.683 183.188 564.739 184.73 564.953 187.209C565.165 189.688 565.583 193.101 566.321 196.824C567.062 200.545 567.954 203.868 568.633 206.264C568.95 207.375 569.221 208.322 569.443 209.102C569.631 209.772 569.72 210.149 569.686 210.161Z" fill="#263238"/>
<path d="M576.212 222.393C576.074 222.435 575.675 221.516 575.32 220.342C574.965 219.167 574.788 218.182 574.926 218.14C575.064 218.098 575.463 219.017 575.818 220.191C576.173 221.365 576.35 222.351 576.212 222.393Z" fill="#263238"/>
<path d="M578.443 222.23C578.31 222.264 577.874 220.886 577.853 219.118C577.823 217.35 578.218 215.96 578.351 215.99C578.499 216.017 578.343 217.404 578.373 219.11C578.393 220.816 578.591 222.199 578.443 222.23Z" fill="#263238"/>
<path d="M567.516 203.596C567.452 203.725 562.299 201.28 556.008 198.136C549.715 194.991 544.667 192.339 544.732 192.21C544.796 192.081 549.948 194.526 556.241 197.67C562.531 200.814 567.58 203.467 567.516 203.596Z" fill="#263238"/>
<path d="M576.596 157.253C576.711 152.194 576.74 146.866 576.74 146.866C576.74 146.866 570.251 145.616 569.12 137.078C568.042 128.936 571.058 109.831 571.058 109.831C580.536 106.248 590.386 109.496 596.88 117.176L595.268 158.25C595.081 163.018 590.832 166.655 585.728 166.416C580.572 166.174 576.486 162.073 576.596 157.253Z" fill="#B78876"/>
<path d="M570.565 125.1C570.53 125.675 570.988 126.179 571.588 126.227C572.187 126.275 572.702 125.848 572.737 125.273C572.772 124.698 572.314 124.193 571.715 124.145C571.115 124.097 570.6 124.525 570.565 125.1Z" fill="#263238"/>
<path d="M570.159 123.667C570.291 123.813 571.133 123.223 572.306 123.256C573.479 123.272 574.324 123.898 574.455 123.758C574.519 123.696 574.388 123.436 574.02 123.153C573.658 122.872 573.035 122.591 572.304 122.575C571.573 122.56 570.951 122.813 570.591 123.08C570.223 123.348 570.094 123.602 570.159 123.667Z" fill="#263238"/>
<path d="M582.471 125.841C582.436 126.416 582.894 126.921 583.494 126.969C584.093 127.017 584.608 126.59 584.643 126.015C584.678 125.44 584.22 124.935 583.621 124.887C583.021 124.838 582.506 125.266 582.471 125.841Z" fill="#263238"/>
<path d="M582.391 124.409C582.523 124.555 583.366 123.965 584.538 123.998C585.71 124.015 586.556 124.641 586.687 124.5C586.751 124.438 586.621 124.178 586.252 123.895C585.89 123.614 585.267 123.333 584.536 123.317C583.805 123.302 583.183 123.555 582.823 123.822C582.456 124.09 582.327 124.344 582.391 124.409Z" fill="#263238"/>
<path d="M577.908 133.001C577.915 132.934 577.189 132.79 576.011 132.608C575.712 132.569 575.43 132.503 575.385 132.297C575.32 132.079 575.454 131.759 575.608 131.414C575.908 130.696 576.223 129.944 576.553 129.155C577.867 125.938 578.827 123.29 578.697 123.238C578.567 123.186 577.396 125.751 576.082 128.968C575.765 129.761 575.462 130.518 575.174 131.241C575.052 131.579 574.847 131.96 574.988 132.413C575.063 132.639 575.279 132.807 575.469 132.864C575.66 132.928 575.828 132.935 575.976 132.948C577.164 133.044 577.902 133.068 577.908 133.001Z" fill="#263238"/>
<path d="M576.739 146.866C576.739 146.866 582.45 147.382 588.204 144.122C588.204 144.122 585.291 149.892 576.801 148.876L576.739 146.866Z" fill="#A36957"/>
<path d="M586.147 121.024C585.906 121.391 585.014 121.228 584.014 121.048C583.018 120.847 582.128 120.67 582.039 120.24C581.94 119.828 582.973 119.257 584.307 119.513C585.641 119.767 586.391 120.677 586.147 121.024Z" fill="#263238"/>
<path d="M574.48 119.302C574.389 119.73 573.434 119.886 572.332 119.942C571.229 119.987 570.263 119.919 570.134 119.502C570.002 119.098 570.934 118.44 572.26 118.382C573.585 118.318 574.574 118.887 574.48 119.302Z" fill="#263238"/>
<path d="M577.927 135.81C577.68 135.741 577.402 135.882 577.278 136.107C577.13 136.374 577.198 136.742 577.432 136.939C577.665 137.136 578.039 137.141 578.278 136.95C578.517 136.76 578.595 136.394 578.455 136.123C578.315 135.852 577.972 135.704 577.678 135.788" fill="#A36957"/>
<path d="M578.202 135.926C578.255 135.879 578.014 135.591 577.502 135.703C577.265 135.755 576.955 135.968 576.861 136.332C576.767 136.674 576.852 137.117 577.214 137.395C577.589 137.659 578.041 137.605 578.339 137.402C578.659 137.192 578.749 136.808 578.699 136.568C578.596 136.041 578.206 135.957 578.195 136.03C578.151 136.096 578.331 136.279 578.296 136.591C578.279 136.744 578.206 136.886 578.058 136.958C577.913 137.037 577.682 137.037 577.551 136.936C577.414 136.838 577.343 136.62 577.371 136.452C577.392 136.284 577.504 136.159 577.64 136.082C577.918 135.924 578.165 135.998 578.202 135.926Z" fill="#263238"/>
<path d="M592.95 127.208C591.938 129.552 589.47 131.358 589.812 133.888C590.033 135.521 591.081 137.044 590.877 138.68C590.621 140.734 588.487 142.158 588.185 144.206C587.815 146.718 590.258 148.67 591.234 151.014C592.655 154.427 590.837 158.266 590.794 161.963C590.729 167.626 595.544 172.916 601.188 173.381C603.471 173.569 606.043 172.88 607.226 170.919C608.203 169.301 608.007 167.245 608.593 165.448C609.465 162.772 612.016 160.813 612.554 158.05C613.534 153.013 607.447 148.845 607.847 143.729C608.018 141.543 609.368 139.636 609.941 137.52C610.693 134.748 610.004 131.626 608.155 129.428C606.653 127.641 604.473 126.466 603.194 124.514C601.743 122.3 601.693 119.493 601.146 116.903C599.813 110.592 595.073 105.11 589.021 102.878C582.969 100.646 575.805 101.738 570.693 105.671C570.693 105.671 569.238 112.262 576.004 113.364C582.769 114.466 585.905 113.194 586.668 115.906C586.668 115.906 585.897 119.073 588.694 122.099C591.492 125.127 594.121 124.494 592.95 127.208Z" fill="#263238"/>
<path d="M603.746 172.92C603.743 172.938 603.532 172.915 603.129 172.856C602.727 172.793 602.137 172.66 601.408 172.392C599.964 171.864 597.917 170.714 596.173 168.517C595.307 167.428 594.496 166.108 593.948 164.556C593.388 163.013 593.068 161.264 593.039 159.422C592.996 157.579 593.257 155.646 593.76 153.712C594.011 152.744 594.338 151.778 594.717 150.819C595.091 149.856 595.551 148.928 595.815 147.946C596.1 146.967 596.061 145.967 595.805 145.013C595.544 144.059 595.1 143.162 594.668 142.275C594.233 141.389 593.789 140.505 593.503 139.565C593.212 138.633 593.103 137.628 593.293 136.691C593.692 134.807 594.836 133.413 595.511 131.982C596.225 130.565 596.449 129.067 596.416 127.723C596.295 124.999 595.134 122.985 594.186 121.824C593.198 120.662 592.449 120.219 592.487 120.17C592.487 120.17 593.28 120.545 594.34 121.692C595.356 122.838 596.609 124.88 596.784 127.707C596.844 129.1 596.63 130.678 595.9 132.171C595.21 133.654 594.106 135.058 593.765 136.782C593.414 138.519 594.236 140.308 595.127 142.049C595.563 142.937 596.025 143.855 596.307 144.876C596.587 145.89 596.628 147.036 596.32 148.08C596.036 149.129 595.566 150.069 595.201 151.009C594.827 151.949 594.505 152.894 594.256 153.841C593.757 155.733 593.493 157.618 593.522 159.413C593.534 163.018 594.771 166.169 596.466 168.287C598.127 170.455 600.09 171.625 601.486 172.202C602.897 172.775 603.758 172.861 603.746 172.92Z" fill="#455A64"/>
<path d="M602.75 122.459C602.753 122.492 602.226 122.587 601.26 122.681C600.298 122.76 598.877 122.872 597.141 122.573C595.446 122.263 593.302 121.431 591.944 119.42C591.277 118.411 591.013 117.19 590.579 116.063C590.171 114.923 589.382 113.936 588.301 113.252C586.113 111.865 583.539 111.695 581.288 111.421C579.025 111.166 576.9 110.686 575.459 109.606C574.008 108.573 573.264 107.233 573.073 106.267C572.964 105.783 572.973 105.395 572.995 105.139C573.031 104.882 573.059 104.751 573.077 104.754C573.141 104.755 573.008 105.304 573.27 106.217C573.512 107.121 574.263 108.357 575.67 109.304C577.057 110.287 579.09 110.716 581.344 110.945C583.576 111.197 586.241 111.336 588.584 112.815C589.741 113.537 590.636 114.669 591.055 115.88C591.5 117.07 591.749 118.241 592.347 119.161C593.565 121.022 595.583 121.873 597.211 122.213C598.881 122.55 600.288 122.498 601.247 122.481C602.211 122.447 602.746 122.421 602.75 122.459Z" fill="#455A64"/>
<path d="M600.268 114.315C600.273 114.34 599.864 114.468 599.096 114.487C598.334 114.508 597.194 114.373 595.939 113.776C595.314 113.479 594.672 113.053 594.081 112.484C593.481 111.918 592.99 111.186 592.53 110.414C591.628 108.893 590.76 107.017 588.89 106.242C587.058 105.456 585.04 105.631 583.287 105.75C581.517 105.924 579.858 105.976 578.505 105.71C577.143 105.473 576.121 104.909 575.554 104.387C575.268 104.129 575.073 103.898 574.966 103.727C574.854 103.559 574.803 103.467 574.818 103.456C574.859 103.424 575.098 103.777 575.683 104.23C576.265 104.681 577.249 105.164 578.566 105.347C579.883 105.557 581.468 105.474 583.246 105.272C585.008 105.133 587.086 104.911 589.1 105.766C590.097 106.189 590.91 106.938 591.488 107.749C592.077 108.56 592.499 109.407 592.944 110.172C593.385 110.938 593.838 111.637 594.385 112.177C594.926 112.724 595.52 113.144 596.104 113.447C597.276 114.056 598.362 114.244 599.1 114.284C599.845 114.328 600.262 114.27 600.268 114.315Z" fill="#455A64"/>
<path d="M606.73 170.762C606.679 170.739 606.997 170.095 607.366 168.864C607.732 167.637 608.096 165.793 608.033 163.504C607.955 161.231 607.408 158.481 605.9 155.868C605.169 154.558 604.057 153.392 603.152 151.953C602.702 151.235 602.315 150.43 602.145 149.539C601.978 148.647 602.08 147.7 602.366 146.84C602.927 145.114 603.931 143.66 604.147 142.073C604.415 140.481 603.611 139.029 602.85 137.737C602.465 137.079 602.079 136.429 601.779 135.749C601.48 135.069 601.289 134.353 601.214 133.661C601.062 132.271 601.224 130.994 601.327 129.848C601.616 127.564 601.404 125.687 600.853 124.534C600.32 123.367 599.621 123.017 599.672 122.969C599.677 122.962 599.718 122.981 599.793 123.027C599.867 123.075 599.984 123.138 600.112 123.255C600.379 123.472 600.735 123.857 601.035 124.446C601.668 125.613 601.939 127.576 601.693 129.88C601.612 131.031 601.477 132.292 601.641 133.609C601.774 134.938 602.459 136.192 603.262 137.493C603.651 138.151 604.062 138.838 604.35 139.618C604.646 140.391 604.781 141.275 604.651 142.143C604.408 143.892 603.377 145.372 602.861 146.998C602.592 147.81 602.506 148.644 602.653 149.446C602.804 150.248 603.156 150.995 603.584 151.685C604.442 153.067 605.559 154.257 606.314 155.629C607.849 158.344 608.366 161.173 608.399 163.496C608.417 165.835 607.988 167.702 607.558 168.926C607.333 169.537 607.145 170.005 606.982 170.307C606.833 170.613 606.746 170.77 606.73 170.762Z" fill="#455A64"/>
<path d="M565.996 357.088C565.996 357.088 559.261 293.246 558.874 269.655C558.487 246.065 569.48 222.789 569.48 222.789L612.563 220.967C612.563 220.967 621.079 244.903 621.231 254.957C621.527 274.496 616.04 293.79 616.672 309.29L618.112 357.088" fill="#263238"/>
<path d="M619.555 278.603C619.564 278.619 619.32 278.803 618.852 279.136C618.732 279.221 618.601 279.313 618.459 279.413C618.324 279.527 618.193 279.671 618.042 279.816C617.74 280.106 617.387 280.436 617.082 280.891C615.69 282.595 614.676 285.639 613.711 289.436C613.18 291.322 612.641 293.438 611.53 295.51C611.232 296.015 610.965 296.551 610.573 297.022C610.386 297.262 610.216 297.519 610.01 297.75L609.347 298.413C608.448 299.298 607.308 299.965 606.107 300.492C603.695 301.549 600.973 302.051 598.486 303.298C595.983 304.517 594.106 306.88 592.956 309.601C591.743 312.31 591.007 315.155 589.995 317.811C589.001 320.446 587.647 323.012 585.498 324.632C583.366 326.311 580.73 326.695 578.448 326.842C576.128 326.977 573.98 326.91 572.054 327.202C570.135 327.468 568.434 328.076 567.231 329.022C566.025 329.971 565.321 331.159 564.99 332.177C564.647 333.207 564.709 334.076 564.823 334.629C564.934 335.191 565.092 335.459 565.057 335.474C565.057 335.474 564.869 335.222 564.721 334.654C564.571 334.095 564.472 333.195 564.796 332.118C565.11 331.053 565.81 329.807 567.049 328.795C568.293 327.782 570.041 327.135 571.999 326.838C573.961 326.518 576.133 326.564 578.419 326.411C580.679 326.247 583.202 325.851 585.207 324.251C587.237 322.707 588.543 320.239 589.519 317.631C590.514 315.006 591.245 312.157 592.482 309.388C593.643 306.619 595.633 304.106 598.256 302.844C600.842 301.56 603.566 301.074 605.917 300.052C607.089 299.545 608.176 298.915 609.036 298.078L609.673 297.451C609.871 297.232 610.036 296.985 610.217 296.757C610.596 296.31 610.858 295.791 611.151 295.305C612.247 293.305 612.805 291.213 613.357 289.338C614.364 285.561 615.451 282.468 616.923 280.766C617.247 280.313 617.618 279.986 617.938 279.702C618.097 279.561 618.237 279.421 618.379 279.311C618.528 279.217 618.665 279.13 618.792 279.05C619.286 278.74 619.547 278.587 619.555 278.603Z" fill="#FAFAFA"/>
<path d="M619.821 249.059C619.839 249.058 619.858 249.351 619.877 249.914C619.885 250.476 619.818 251.31 619.578 252.357C619.078 254.439 617.557 257.297 614.711 259.883C613.304 261.182 611.606 262.437 609.665 263.568C607.735 264.714 605.605 265.804 603.423 267.037C601.249 268.273 599.007 269.671 597.037 271.527C595.041 273.361 593.546 275.772 592.2 278.324C590.84 280.873 589.636 283.467 588.005 285.713C587.196 286.835 586.282 287.86 585.271 288.737C584.254 289.608 583.145 290.315 582.019 290.903C579.759 292.076 577.457 292.801 575.324 293.469C573.186 294.13 571.193 294.715 569.449 295.446C567.703 296.166 566.191 296.981 564.968 297.846C563.745 298.712 562.815 299.619 562.155 300.44C560.823 302.09 560.543 303.285 560.467 303.245C560.45 303.239 560.546 302.961 560.745 302.434C560.976 301.924 561.334 301.163 561.995 300.315C562.641 299.46 563.57 298.513 564.797 297.61C566.024 296.708 567.547 295.858 569.305 295.107C571.062 294.345 573.067 293.736 575.193 293.058C577.316 292.374 579.591 291.637 581.794 290.479C582.892 289.899 583.965 289.206 584.945 288.361C585.919 287.509 586.801 286.515 587.589 285.416C589.176 283.219 590.37 280.645 591.738 278.08C593.088 275.516 594.627 273.037 596.684 271.156C598.709 269.259 600.991 267.851 603.184 266.619C605.386 265.391 607.518 264.317 609.443 263.196C611.375 262.092 613.056 260.875 614.459 259.611C617.293 257.098 618.826 254.333 619.379 252.305C619.92 250.258 619.741 249.053 619.821 249.059Z" fill="#FAFAFA"/>
<path d="M559.092 273.036C559.084 273.039 559.054 272.974 559.005 272.842C558.962 272.709 558.87 272.516 558.811 272.247C558.689 271.713 558.613 270.869 558.911 269.85C559.467 267.814 561.679 265.28 565.244 264.011C567.017 263.402 569.029 263.034 571.126 262.485C573.198 261.927 575.456 261.145 577.142 259.412C577.979 258.557 578.687 257.539 579.276 256.42C579.849 255.291 580.323 254.079 580.769 252.828C581.666 250.334 582.418 247.624 583.94 245.16C585.452 242.677 587.914 240.952 590.463 240.088C593.005 239.154 595.569 238.74 597.948 238.191C600.334 237.672 602.564 237 604.457 235.975C606.323 234.915 607.809 233.504 608.862 232.008C611.019 229.009 611.584 225.937 611.661 223.907C611.708 221.844 611.38 220.721 611.448 220.711C611.448 220.711 611.847 221.815 611.863 223.911C611.847 225.972 611.333 229.118 609.162 232.221C608.101 233.768 606.589 235.239 604.668 236.352C602.727 237.425 600.451 238.124 598.056 238.659C595.665 239.223 593.117 239.648 590.642 240.566C588.152 241.423 585.839 243.056 584.382 245.437C582.913 247.81 582.158 250.49 581.251 253C580.798 254.26 580.313 255.492 579.718 256.651C579.107 257.802 578.364 258.862 577.481 259.754C575.69 261.57 573.331 262.358 571.236 262.904C569.11 263.441 567.109 263.785 565.361 264.361C561.893 265.545 559.693 267.972 559.106 269.91C558.79 270.882 558.829 271.697 558.915 272.227C559.026 272.753 559.115 273.028 559.092 273.036Z" fill="#FAFAFA"/>
<path d="M616.116 327.019C616.134 327.017 616.157 327.232 616.185 327.647C616.209 328.06 616.176 328.679 616.001 329.452C615.648 330.992 614.458 333.1 612.221 334.855C611.12 335.743 609.787 336.558 608.256 337.21C606.729 337.864 605.041 338.382 603.278 338.932C601.516 339.482 599.667 340.057 597.87 340.907C596.059 341.736 594.388 342.949 592.948 344.497C591.489 346.025 590.23 347.694 588.834 349.168C587.444 350.651 585.864 351.872 584.225 352.774C580.934 354.592 577.522 355.215 574.715 355.247C571.886 355.278 569.642 354.684 568.169 354.159C567.426 353.9 566.874 353.641 566.508 353.447C566.138 353.263 565.949 353.158 565.957 353.142C565.965 353.126 566.17 353.199 566.551 353.351C566.928 353.513 567.489 353.74 568.233 353.967C569.709 354.427 571.931 354.955 574.707 354.878C577.462 354.8 580.794 354.149 583.989 352.354C585.583 351.46 587.103 350.274 588.46 348.817C589.828 347.365 591.081 345.696 592.569 344.136C594.034 342.558 595.795 341.282 597.649 340.445C599.495 339.581 601.368 339.011 603.135 338.473C604.903 337.936 606.583 337.436 608.087 336.812C609.589 336.193 610.903 335.415 611.992 334.566C614.204 332.888 615.399 330.883 615.804 329.401C616.2 327.902 616.044 327.017 616.116 327.019Z" fill="#FAFAFA"/>
<path d="M611.205 194.464L602.874 194.661C602.327 197.467 600.99 199.387 600.99 199.387C594.024 187.295 588.623 171.095 587.282 164.584C587.477 163.934 587.709 163.214 587.998 162.41C588.331 161.482 588.045 159.724 587.888 158.749C587.654 157.299 587.249 155.349 587.127 154.446C586.756 151.695 586.313 151.263 585.353 151.574C584.048 151.997 585.888 159.3 584.818 159.459C584.243 159.544 583.54 157.042 583.336 154.989C583.132 152.936 582.204 146.621 581.525 146.2C580.53 145.583 579.663 146.559 579.914 148.603C580.168 150.672 580.489 156.843 579.404 156.926C578.335 157.008 577.438 146.539 577.438 146.539C577.438 146.539 577.607 144.261 576.351 144.316C574.085 144.414 575.856 155.452 576.05 156.498C576.186 157.225 575.008 157.359 574.905 156.569C574.798 155.756 574.252 146.099 571.945 146.176C570.174 146.236 573.316 155.272 572.322 157.367C571.328 159.461 570.637 150.253 568.947 150.38C568.318 150.428 567.853 150.551 569.009 155.762C569.63 158.563 571.456 163.712 573.051 167.976C575.73 182.426 587.488 228.652 605.921 220.19C616.236 215.455 620.42 194.47 620.42 194.47L611.205 194.464Z" fill="#B78876"/>
<path d="M575.657 157.204C575.657 157.204 575.741 157.219 575.897 157.171C576.038 157.128 576.317 156.952 576.273 156.593C576.249 155.973 576.152 155.068 576.008 153.899C575.901 152.722 575.549 151.31 575.548 149.639C575.534 148.802 575.556 147.902 575.604 146.948C575.635 146.471 575.643 145.976 575.749 145.508C575.827 145.055 576.131 144.537 576.48 144.599L576.518 144.606L576.535 144.605C576.891 144.589 577.169 144.866 577.283 145.29C577.408 145.695 577.439 146.173 577.414 146.629L577.413 146.648L577.414 146.661C577.648 149.219 577.9 152.02 578.483 155.01C578.564 155.384 578.647 155.76 578.763 156.139C578.821 156.328 578.888 156.519 578.971 156.712C579.025 156.811 579.059 156.905 579.141 157.008C579.212 157.095 579.303 157.247 579.559 157.27C579.974 157.239 580.094 156.925 580.188 156.745C580.278 156.538 580.334 156.333 580.375 156.13C580.461 155.723 580.504 155.317 580.536 154.909C580.646 153.278 580.589 151.614 580.469 149.907C580.43 149.044 580.218 148.184 580.365 147.402C580.433 147.017 580.594 146.629 580.857 146.469C580.985 146.391 581.129 146.375 581.287 146.415C581.366 146.438 581.446 146.47 581.525 146.518C581.591 146.581 581.576 146.553 581.635 146.665C581.97 147.381 582.141 148.313 582.329 149.179C582.506 150.064 582.66 150.966 582.801 151.878C582.942 152.79 583.071 153.713 583.18 154.643C583.269 155.572 583.404 156.548 583.641 157.487C583.761 157.96 583.894 158.432 584.092 158.9C584.194 159.135 584.299 159.367 584.504 159.607C584.578 159.709 584.811 159.9 585.103 159.825C585.385 159.731 585.465 159.507 585.511 159.376C585.673 158.801 585.625 158.323 585.617 157.82C585.596 157.324 585.554 156.833 585.513 156.343C585.442 155.501 585.361 154.668 585.333 153.847C585.32 153.438 585.319 153.029 585.363 152.644C585.388 152.456 585.42 152.262 585.485 152.123C585.515 152.052 585.553 152 585.581 151.974C585.597 151.958 585.607 151.965 585.62 151.949L585.75 151.912C586.413 151.638 586.634 152.561 586.81 153.305C586.964 154.081 587.061 154.882 587.217 155.671C587.48 157.246 587.817 158.811 587.992 160.316C588.064 161.061 588.118 161.836 587.904 162.468C587.667 163.191 587.433 163.906 587.202 164.613L587.181 164.677L587.196 164.744C588.415 170.121 590.103 174.932 591.67 179.203C593.253 183.47 594.836 187.158 596.233 190.173C597.626 193.192 598.876 195.517 599.739 197.104C600.177 197.856 600.523 198.45 600.78 198.892C601.021 199.295 601.153 199.5 601.166 199.493C601.179 199.485 601.074 199.265 600.859 198.848C600.621 198.397 600.301 197.789 599.895 197.021C599.082 195.411 597.882 193.068 596.535 190.037C595.183 187.009 593.643 183.315 592.096 179.047C590.566 174.781 588.906 169.957 587.721 164.636L587.715 164.767C587.946 164.069 588.18 163.364 588.416 162.651C588.685 161.835 588.606 161.038 588.539 160.258C588.36 158.694 588.033 157.174 587.772 155.592C587.618 154.81 587.523 154.007 587.362 153.187C587.267 152.778 587.179 152.366 586.954 151.949C586.846 151.747 586.678 151.517 586.402 151.393C586.123 151.272 585.837 151.306 585.613 151.361L585.445 151.409C585.37 151.443 585.276 151.483 585.218 151.538C585.09 151.649 585.017 151.776 584.965 151.894C584.86 152.134 584.83 152.355 584.799 152.577C584.749 153.016 584.752 153.443 584.764 153.867C584.793 154.715 584.875 155.554 584.946 156.393C584.987 156.881 585.028 157.367 585.049 157.846C585.066 158.313 585.083 158.829 584.975 159.19C584.95 159.295 584.901 159.275 584.958 159.326L584.96 159.331C584.955 159.297 584.968 159.382 584.966 159.368L584.964 159.358C584.962 159.345 584.964 159.333 584.967 159.323C584.972 159.314 584.994 159.279 584.981 159.277C584.974 159.274 584.95 159.261 584.921 159.222C584.811 159.095 584.701 158.887 584.615 158.68C584.437 158.261 584.306 157.806 584.191 157.353C583.961 156.436 583.832 155.526 583.74 154.581C583.628 153.64 583.497 152.713 583.353 151.795C583.209 150.877 583.052 149.969 582.87 149.073C582.664 148.171 582.531 147.304 582.11 146.403C582.084 146.312 581.906 146.11 581.796 146.051C581.683 145.984 581.558 145.932 581.424 145.894C581.155 145.82 580.826 145.854 580.578 146.011C580.082 146.339 579.929 146.86 579.839 147.312C579.758 147.778 579.77 148.238 579.822 148.682C579.872 149.109 579.913 149.527 579.947 149.95C580.073 151.634 580.136 153.291 580.038 154.875C580.01 155.27 579.969 155.661 579.893 156.03C579.857 156.215 579.806 156.394 579.741 156.548C579.709 156.624 579.669 156.695 579.632 156.735C579.596 156.818 579.564 156.716 579.567 156.851C579.618 156.748 579.569 156.805 579.53 156.719C579.487 156.672 579.451 156.582 579.411 156.512C579.34 156.349 579.278 156.177 579.222 155.999C579.111 155.644 579.026 155.276 578.946 154.913C578.352 151.976 578.073 149.168 577.816 146.628V146.66C577.838 146.146 577.804 145.655 577.653 145.173C577.577 144.936 577.465 144.694 577.262 144.507C577.063 144.314 576.777 144.228 576.521 144.236L576.576 144.242C576.174 144.171 575.881 144.414 575.714 144.655C575.542 144.903 575.466 145.172 575.407 145.432C575.297 145.957 575.299 146.456 575.273 146.935C575.238 147.897 575.23 148.802 575.258 149.648C575.29 151.354 575.674 152.766 575.81 153.929C575.984 155.091 576.114 155.993 576.17 156.601C576.233 156.89 576 157.076 575.878 157.125C575.737 157.183 575.655 157.192 575.657 157.204Z" fill="#A36957"/>
<path d="M510.532 208.232C510.532 208.232 507.765 208.1 504.739 208.896C499.575 210.255 490.66 215.657 490.291 222.332H496.766C496.766 222.332 493.14 230.051 494.206 229.336C496.97 227.482 502.474 221.889 502.474 221.889L510.532 208.232Z" fill="#B78876"/>
<path d="M598.858 92.044C598.715 92.057 598.127 86.703 597.545 80.088C596.963 73.47 596.608 68.097 596.751 68.085C596.894 68.072 597.482 73.425 598.064 80.043C598.646 86.657 599.001 92.031 598.858 92.044Z" fill="#909090"/>
<path d="M627.266 68.411C627.383 68.494 623.008 74.844 617.496 82.591C611.982 90.341 607.418 96.554 607.3 96.471C607.183 96.388 611.557 90.039 617.071 82.289C622.583 74.542 627.148 68.328 627.266 68.411Z" fill="#909090"/>
<path d="M639.068 97.188C639.097 97.329 633.991 98.497 627.666 99.797C621.338 101.097 616.187 102.037 616.158 101.896C616.129 101.755 621.234 100.587 627.561 99.287C633.887 97.988 639.039 97.048 639.068 97.188Z" fill="#909090"/>
<path d="M298.958 234.544L263.597 416.343L258.968 440.142L495.031 438.977C505.625 438.925 515.014 429.518 518.423 415.542L560.282 243.905C562.869 233.295 557.192 222.26 549.149 222.269L310.226 222.52C304.951 222.527 300.339 227.449 298.958 234.544Z" fill="#8399C8"/>
<g opacity="0.5">
<path d="M298.958 234.544L263.597 416.343L258.968 440.142L495.031 438.977C505.625 438.925 515.014 429.518 518.423 415.542L560.282 243.905C562.869 233.295 557.192 222.26 549.149 222.269L310.226 222.52C304.951 222.527 300.339 227.449 298.958 234.544Z" fill="black"/>
</g>
<path d="M472.387 404.026L447.393 202.618C446.369 194.365 439.795 188.209 432.033 188.235L377.227 188.414C373.171 188.427 369.282 190.152 366.4 193.215L340.375 220.88L187.949 221.675C178.634 221.724 171.478 230.537 172.713 240.44L195.919 426.593C196.946 434.834 203.508 440.982 211.259 440.966L476.906 440.441C506.493 441.054 509.317 432.316 509.317 432.316C475.41 439.831 472.39 404.049 472.387 404.026Z" fill="#8399C8"/>
<g opacity="0.5">
<path d="M357.842 363.717L348.883 373.339L279.88 311.264L288.84 301.642L357.842 363.717Z" fill="white"/>
<path d="M345.128 299.509L355.03 308.416L292.595 375.473L282.693 366.565L345.128 299.509Z" fill="white"/>
</g>
<path d="M510.32 103.785C509.681 103.511 509.222 102.89 509.189 102.149L508.79 92.865C508.764 92.281 509.014 91.719 509.464 91.347C509.914 90.974 510.513 90.835 511.082 90.969C512.574 91.321 514.22 90.996 515.597 90.077C516.865 89.231 517.716 87.985 517.931 86.658C518.147 85.336 517.738 83.873 516.809 82.643C515.814 81.326 514.344 80.439 512.868 80.27C509.857 79.923 506.606 82.23 505.769 85.308C505.499 86.302 504.474 86.89 503.48 86.619C502.469 86.341 501.898 85.323 502.168 84.329C503.482 79.491 508.474 76.007 513.296 76.562C515.796 76.85 518.165 78.246 519.785 80.392C521.327 82.432 521.993 84.934 521.614 87.258C521.232 89.603 519.794 91.761 517.668 93.18C516.132 94.205 514.37 94.771 512.608 94.832L512.918 101.988C512.962 103.018 512.163 103.888 511.133 103.932C510.845 103.945 510.569 103.891 510.32 103.785Z" fill="#8399C8"/>
<path d="M513.055 107.577C513.113 108.418 512.478 109.147 511.637 109.204C510.796 109.262 510.067 108.627 510.009 107.786C509.951 106.945 510.586 106.216 511.427 106.158C512.268 106.1 512.997 106.736 513.055 107.577Z" fill="#8399C8"/>
<path d="M478.186 90.694C478.198 90.694 478.229 90.488 478.276 90.085C478.323 89.65 478.389 89.058 478.472 88.297C478.517 87.506 478.719 86.55 478.956 85.423C479.088 84.863 479.156 84.24 479.361 83.61C479.556 82.976 479.763 82.303 479.981 81.591C480.949 78.783 482.442 75.415 484.954 72.065C487.448 68.722 490.955 65.419 495.456 62.917C497.673 61.595 500.208 60.674 502.866 59.861C505.565 59.222 508.426 58.674 511.415 58.745C512.91 58.665 514.417 58.884 515.953 59.013C516.72 59.086 517.475 59.291 518.246 59.425C519.017 59.567 519.792 59.718 520.547 59.98C523.634 60.772 526.633 62.228 529.491 64.033C535.228 67.642 540.059 73.514 542.709 80.632C544.038 84.193 544.674 88.097 544.669 92.04C544.748 95.991 543.983 100.004 542.577 103.782L542.126 104.924L542.067 105.075L542.128 105.216C544.636 110.993 547.096 116.659 549.479 122.149L549.9 121.671C544.736 119.687 539.728 117.763 534.924 115.917L534.739 115.846L534.594 115.987C530.439 120.013 525.476 122.734 520.452 124.152C515.412 125.573 510.336 125.646 505.719 124.825C501.092 124.006 496.926 122.236 493.452 119.961C489.968 117.686 487.174 114.92 485.02 112.109C482.882 109.267 481.474 106.353 480.41 103.75C479.474 101.09 478.9 98.729 478.622 96.775C478.504 95.799 478.399 94.931 478.308 94.174C478.288 93.426 478.272 92.79 478.258 92.263C478.242 91.772 478.229 91.384 478.219 91.092C478.207 90.829 478.196 90.694 478.186 90.694C478.177 90.694 478.169 90.827 478.162 91.091C478.158 91.384 478.153 91.771 478.147 92.265C478.146 92.794 478.144 93.435 478.144 94.187C478.221 94.95 478.309 95.825 478.409 96.809C478.655 98.782 479.201 101.172 480.118 103.871C481.162 106.512 482.561 109.475 484.703 112.371C486.861 115.236 489.674 118.06 493.195 120.39C496.706 122.72 500.927 124.541 505.624 125.395C510.31 126.249 515.471 126.196 520.604 124.766C525.722 123.34 530.786 120.581 535.03 116.485L534.699 116.555C539.501 118.408 544.504 120.34 549.667 122.332L550.422 122.623L550.089 121.854C547.708 116.362 545.252 110.695 542.747 104.917L542.749 105.208L543.21 104.041C544.648 100.18 545.427 96.075 545.346 92.037C545.349 88.007 544.693 84.016 543.331 80.379C540.616 73.108 535.673 67.133 529.821 63.471C526.906 61.639 523.847 60.169 520.704 59.371C519.935 59.108 519.146 58.957 518.362 58.815C517.578 58.681 516.809 58.476 516.029 58.404C514.468 58.279 512.935 58.064 511.417 58.151C508.379 58.093 505.473 58.661 502.737 59.326C500.041 60.165 497.474 61.116 495.232 62.47C490.681 65.037 487.151 68.412 484.656 71.819C482.142 75.232 480.669 78.655 479.732 81.501C479.522 82.222 479.323 82.905 479.137 83.546C478.94 84.184 478.881 84.813 478.759 85.379C478.542 86.519 478.36 87.483 478.337 88.28C478.282 89.045 478.239 89.643 478.207 90.08C478.182 90.486 478.175 90.693 478.186 90.694Z" fill="#909090"/>
</svg>
